<?xml version="1.0" encoding="utf-8"?>
<!-- Generator: Adobe Illustrator 18.1.1, SVG Export Plug-In . SVG Version: 6.00 Build 0)  -->
<svg version="1.1" id="Layer_1" xmlns="http://www.w3.org/2000/svg" xmlns:xlink="http://www.w3.org/1999/xlink" x="0px" y="0px"
	 viewBox="53 -52.1 405.1 405.1" enable-background="new 53 -52.1 405.1 405.1" xml:space="preserve">
<g id="Layer_5">
	<path fill="#FFFFFF" d="M442.2,71.6c-10.4-24.5-25.1-45.9-43.5-64.3c-19-19-40.4-33-64.3-43.5c-25.1-10.4-51.4-15.9-78.9-15.9
		s-53.9,5.5-78.9,15.9c-24.5,10.4-45.9,25.1-64.3,43.5c-19,19-33,40.4-43.5,64.3C58.4,96.6,52.9,123,52.9,150.5s5.5,53.9,15.9,78.9
		c10.4,24.5,25.1,45.9,43.5,64.3c19,19,40.4,33,64.3,43.5c25,10.4,51.4,15.9,78.9,15.9s53.9-5.5,78.9-15.9
		c24.5-10.4,45.9-25.1,64.3-43.5c19-19,33-40.4,43.5-64.3c10.4-25.1,15.9-51.4,15.9-78.9C458.2,123,452.7,96.6,442.2,71.6z
		 M255.6-19.6c40.4,0,80.2,14.7,110.8,41c-17.1,24.5-46.5,44.1-86.9,59.4c-17.7-31.8-38.6-64.3-61.8-96.1
		C229.9-17.9,242.6-19.6,255.6-19.6z M182.2-2.5C192.6,11,217.1,44,243.4,93c-66.7,17.7-135.3,20.2-153.6,20.2
		C101.4,63,135.6,19.5,182.2-2.5z M86.1,150.5c0-1.2,0-3.1,0-4.3c3.1,0,6.1,0,9.2,0c61.8,0,117.5-7.3,164.6-22
		c3.7,8,8,16.5,11.6,25.1c-90.6,26.3-133.4,93.6-143.8,112.6C100.8,230.6,86.1,191.5,86.1,150.5z M255.6,320
		c-37.3,0-72.2-11.6-102.2-34.3c34.3-53.2,78.3-88.7,131-105.3c15.9,41.6,28.2,84.5,36.1,126.7C300.2,315.6,278.1,320,255.6,320z
		 M352.9,289.4c-1.2-15.9-6.7-57.5-30-117.5c10.4-1.2,20.8-1.8,31.8-1.8c30.6,0,55.1,5.5,68.5,9.2
		C415.2,223.9,389.5,263.6,352.9,289.4z M351.7,138.3c-14.1,0-28.2,1.2-41.6,3.1c-4.9-11-9.8-20.8-14.7-30.6
		c55.1-23.9,82-53.2,92.4-67.3c23.3,28.8,36.7,64.9,37.9,102.2C400,140.6,374.9,138.3,351.7,138.3z"/>
</g>
</svg>
