<?xml version="1.0" encoding="utf-8"?>
<!-- Generator: Adobe Illustrator 18.1.1, SVG Export Plug-In . SVG Version: 6.00 Build 0)  -->
<svg version="1.1" id="Layer_1" xmlns="http://www.w3.org/2000/svg" xmlns:xlink="http://www.w3.org/1999/xlink" x="0px" y="0px"
	 viewBox="40 -40.1 380.1 380.1" enable-background="new 40 -40.1 380.1 380.1" xml:space="preserve">
<g id="Layer_4">
	<g>
		<path fill="#FFFFFF" d="M328.8,163.1c0,54.5-44.1,99.1-99.1,99.1s-99.1-44.1-99.1-99.1c0-17.1,4.3-33,11.6-47.1H40v151.2
			c0,40.4,33,72.8,72.8,72.8h231.9c40.4,0,72.8-33,72.8-72.8V115.9H315.4C324.6,130,328.8,145.9,328.8,163.1z"/>
		<path fill="#FFFFFF" d="M286.6,163.1c0-31.2-25.7-56.9-56.9-56.9s-56.9,25.6-56.9,56.9c0,31.2,25.7,56.9,56.9,56.9
			S286.6,194.3,286.6,163.1z"/>
		<path fill="#FFFFFF" d="M346-40.1H113.4c-40.4,0-72.8,33-72.8,72.8v47.1h135.2c15.3-10.4,34.3-15.9,54.5-15.9s38.6,6.1,54.5,15.9
			h135.3V32.7C418.8-7.1,386.4-40.1,346-40.1z M373.5,41.3c0,6.1-4.9,10.4-10.4,10.4h-32.4c-6.1,0-10.4-4.9-10.4-10.4V8.9
			c0-6.1,4.9-10.4,10.4-10.4h32.4c6.1,0,10.4,4.9,10.4,10.4V41.3L373.5,41.3z"/>
	</g>
</g>
</svg>
