<?xml version="1.0" encoding="utf-8"?>
<!-- Generator: Adobe Illustrator 18.1.1, SVG Export Plug-In . SVG Version: 6.00 Build 0)  -->
<svg version="1.1" id="_x3C_Layer_x3E_" xmlns="http://www.w3.org/2000/svg" xmlns:xlink="http://www.w3.org/1999/xlink" x="0px"
	 y="0px" width="472.4px" height="439px" viewBox="76.5 148.4 472.4 439" enable-background="new 76.5 148.4 472.4 439"
	 xml:space="preserve">
<g>
	<path fill="none" stroke="#FFFFFF" stroke-width="5" stroke-miterlimit="10" d="M82.8,150.9h198.9v138.8l238.5,175.7
		c0,0,2.5,5.6,3.8,9.4s0,6.3,4.4,9.4s3.8,5,5.6,8.7c1.9,3.8,15.1,7.5,11.9,11.9c-3.1,4.4-12.5,6.9-15.7,10c-3.1,3.1-4.4,4.4-4.4,8.7
		c0,4.4,3.8,7.5,0,13.2c-3.8,5.6-5.6,5-6.3,13.9c-0.7,8.7,0.7,6.3,3.8,8.7c3.1,2.4,5.6,0,7.5,2.5c2,2.5,0,7.5-2,10
		c-2,2.4-115.4,12.8-115.4,12.8s-2-4-6.9-7.1c-5-3.1,0-9.4-3.8-13.9c-3.8-4.5-2.5-8.7-8.2-13.9c-5.6-5-15.7-10-22.6-15.1
		c-6.9-5.1-8.7-8.2-11.9-8.2c-3.1,0-6.3,3.1-7.5,0s5.6-10.6-3.8-10.6s-12.5,3.3-18.3,3.6c-5.6,0.2-12.5-4.1-20-9.2
		c-7.5-5-3.1-10.6-10-11.3c-6.9-0.7-11.5,4.7-16.2,2.5c-4.7-2.3-8.3-3.8-12.8-5.6c-4.4-2-10,0.7-13.5,0c-3.6-0.7-9.7-2-11-13.2
		c-1.2-11.3,1.2-14.3-0.7-16.9c-2-2.6-7.5-2-8.7-6.9c-1.2-5-4.4-10.6-9.4-14.3c-5-3.8-7.5-2.3-12.5-8.7c-5-6.4-15.1-14.6-18.3-19
		c-3.1-4.4-5-8.2-7.5-13.2c-2.5-5-5-11.3-0.7-10.6c4.4,0.7,5.6,0.7,5.6-5s-7.5-6.9-12.5-7.5c-5-0.7-2,2.5-7.5-3.8
		c-5.6-6.3-6.3-11.3-9.4-16.9c-3.2-5.6-1.2-9.4,0-11.9c1.2-2.5,2.9,1.2,8,5.6c5.1,4.4,10.8,2.3,7.6-1.4c-3.1-3.7-8.7-8-10.6-12.4
		c-2-4.4-5-4.4-6.9-0.7c-2,3.8-4.1,4.4-7.1,3.1c-2.9-1.4-4.2-8.7-7.2-8.2c-3.1,0.7-3.8,6.3-6.3,3.8c-2.5-2.5-3.8-8.2-5-13.9
		c-1.2-5.6,3.8-8.2-6.9-13.2c-10.6-5-20-8.7-23.2-16.3c-3.2-7.5-2.5-9.4-4.4-18.3c-2-8.7,2.5-15.7-4.4-25.7
		c-6.9-10-3.8-10-10.6-16.9c-6.9-6.9-8.7-5-9.4-13.9c-0.7-8.7,3.1-8.2,6.9-18.3c3.8-10.1,1.2-6.9,4.4-18.8
		c3.1-11.9,5.6-9.4,2.5-17.7C89.8,157.3,80.4,158.9,82.8,150.9z"/>
	<circle opacity="0.1" fill="#149896" enable-background="new    " cx="180.2" cy="357.5" r="48.7"/>
	<circle opacity="0.5" fill="#149896" enable-background="new    " cx="180.2" cy="357.5" r="20.8"/>
	<circle fill="#149896" cx="180.2" cy="357.5" r="3.9"/>
</g>
</svg>
