<?xml version="1.0" encoding="utf-8"?>
<!-- Generator: Adobe Illustrator 18.1.1, SVG Export Plug-In . SVG Version: 6.00 Build 0)  -->
<svg version="1.1" id="Layer_1" xmlns="http://www.w3.org/2000/svg" xmlns:xlink="http://www.w3.org/1999/xlink" x="0px" y="0px"
	 width="396.6px" height="54.7px" viewBox="0 0 396.6 54.7" enable-background="new 0 0 396.6 54.7" xml:space="preserve">
<g>
	<path fill="#FFFFFF" d="M0,0.4h11.5c10.9,0,12,2.9,12,14.7c0,7.2-1,10.4-7.1,12.2v0.1c5.1,0.5,6.8,3.1,6.8,8.2v11.7
		c0,1.9,0,4.6,0.4,6.9h-7c-0.7-1.3-0.9-2.7-0.9-4.8V37.2c0-5.1-0.9-6.4-5.8-6.4H7.5v23.4H0V0.4z M7.5,24.6h1.9
		c5.9,0,6.7-1.1,6.7-9.2c0-8-0.4-8.7-5.1-8.7H7.5V24.6z"/>
	<path fill="#FFFFFF" d="M26.6,14.2C26.6,6.6,29.1,0,39.2,0c9.6,0,12.7,5,12.7,13.3v27.2c0,7.5-2.5,14.2-12.7,14.2
		c-9.5,0-12.6-5-12.6-13.3V14.2z M34,41.8c0,4.6,2.1,7.1,5.1,7.1c3.1,0,5.2-2.5,5.2-7.1V13.6c0-5.3-1.8-7.7-5.2-7.7
		c-3.4,0-5.1,2.5-5.1,7.7V41.8z"/>
	<path fill="#FFFFFF" d="M63.5,0.4h8.6l11,53.8h-7.4l-2.5-13.7H61.5l-2.5,13.7h-7.4L63.5,0.4z M62.7,34.3h9.5L67.5,8.3h-0.1
		L62.7,34.3z"/>
	<path fill="#FFFFFF" d="M84.5,0.4h12c12.1,0,13,4,13,19.7v16c0,13.8-2.5,18.1-14.2,18.1H84.5V0.4z M91.9,48h3.6
		c5.5,0,6.6-2.9,6.6-12.1V17.4c0-8-0.8-10.7-7.2-10.7h-3V48z"/>
	<path fill="#FFFFFF" d="M113.2,38.7h7.4v4.4c0,3.6,1.3,5.8,4.3,5.8c3.9,0,4.9-2.7,4.9-6.2c0-4.5-0.2-6-8-13.7
		c-4.8-4.8-8.7-9.1-8.7-16.4c0-8.8,4.1-12.6,12.2-12.6c4,0,6.9,1.3,8.7,3c1.3,1.2,2.2,3.1,2.2,6.9v5.1h-7v-4.2
		c0-3.1-1.3-4.8-4.2-4.8c-3.1,0-4.5,1.7-4.5,5.9c0,3.7,0.7,5.9,7.6,13c7.3,7.6,8.6,10.2,8.6,16.7c0,8.4-3.3,13.3-12.1,13.3
		c-6.9,0-11.5-2.9-11.5-9.6V38.7z"/>
</g>
<g>
	<path fill="#FFFFFF" d="M162.1,38.3h0.1V27h6.3v10.8c0,4.4-0.7,7.8-1.7,9.2l3.3,7.2h-7.5l-0.7-1.6c-2,1.3-5.1,2-7.5,2
		c-8.6,0-10.5-5-10.5-13.8c0-6.4,0.4-13.1,6-15.9c-2.6-4.8-4-8.9-4-13.3c0-7.4,3.9-11.2,9.5-11.2c6.8,0,9.5,3.9,9.5,10.2
		c0,6.4-2.8,10.7-7.7,15.3L162.1,38.3z M152.3,30.6c-1,1.5-1.3,4-1.3,9.8c0,6.1,0.9,8.9,4,8.9c1.8,0,2.9-0.5,4.4-2.2L152.3,30.6z
		 M152.2,11.3c0,2.8,0.4,5.3,2.5,9.8c3.3-4.1,4-6.6,4-10.2c0-3.3-1-5.1-3.2-5.1C152.9,5.8,152.2,7.8,152.2,11.3z"/>
	<path fill="#FFFFFF" d="M178,0.4h7.5V25h0.1l11.8-24.5h7.4l-12.5,25.3l13.4,28.5h-8.3l-11.8-26.9h-0.1v26.9H178V0.4z"/>
	<path fill="#FFFFFF" d="M207.3,0.4h7.5v53.8h-7.5V0.4z"/>
	<path fill="#FFFFFF" d="M219.3,0.4h10.3l8.8,44.7h0.1V0.4h7v53.8h-10.7L226,8.3h-0.1v45.9h-6.6V0.4z"/>
	<path fill="#FFFFFF" d="M266.2,14.7v-2.8c0-3.8-1.9-6.1-4.8-6.1c-3.4,0-5.1,3.1-5.1,8.9v27.1c0,4.3,2.1,7.1,5.1,7.1
		c2.1,0,3.8-0.3,4.8-0.5V32.6h-4.9v-6.3h12.4v27c-2.9,0.7-8,1.3-12.3,1.3c-9.5,0-12.5-5-12.5-13.3V14.2c0-10.1,3.1-14.2,12.7-14.2
		c8,0,12.1,2.9,12.1,9.8v4.9H266.2z"/>
	<path fill="#FFFFFF" d="M277,0.4h12c12.1,0,13,4,13,19.7v16c0,13.8-2.5,18.1-14.2,18.1H277V0.4z M284.4,48h3.6
		c5.5,0,6.6-2.9,6.6-12.1V17.4c0-8-0.8-10.7-7.2-10.7h-3V48z"/>
	<path fill="#FFFFFF" d="M304.9,14.2c0-7.5,2.5-14.2,12.6-14.2c9.6,0,12.7,5,12.7,13.3v27.2c0,7.5-2.5,14.2-12.7,14.2
		c-9.5,0-12.6-5-12.6-13.3V14.2z M312.3,41.8c0,4.6,2.1,7.1,5.1,7.1c3.1,0,5.2-2.5,5.2-7.1V13.6c0-5.3-1.8-7.7-5.2-7.7
		c-3.4,0-5.1,2.5-5.1,7.7V41.8z"/>
	<path fill="#FFFFFF" d="M333.2,0.4H345l6.9,41h0.1l6.9-41h11.5v53.8h-7V5.8h-0.1l-7.6,48.4h-7.4l-8.3-48.4h-0.1v48.4h-6.6V0.4z"/>
	<path fill="#FFFFFF" d="M373,38.7h7.5v4.4c0,3.6,1.3,5.8,4.3,5.8c3.9,0,4.9-2.7,4.9-6.2c0-4.5-0.2-6-8-13.7
		c-4.8-4.8-8.7-9.1-8.7-16.4C373,3.8,377.1,0,385.2,0c4,0,6.9,1.3,8.7,3c1.3,1.2,2.2,3.1,2.2,6.9v5.1h-7v-4.2c0-3.1-1.3-4.8-4.2-4.8
		c-3.1,0-4.5,1.7-4.5,5.9c0,3.7,0.7,5.9,7.6,13c7.3,7.6,8.6,10.2,8.6,16.7c0,8.4-3.3,13.3-12.1,13.3c-6.9,0-11.5-2.9-11.5-9.6V38.7z
		"/>
</g>
</svg>
