<?xml version="1.0" encoding="utf-8"?>
<!-- Generator: Adobe Illustrator 18.1.1, SVG Export Plug-In . SVG Version: 6.00 Build 0)  -->
<svg version="1.1" id="Layer_1" xmlns="http://www.w3.org/2000/svg" xmlns:xlink="http://www.w3.org/1999/xlink" x="0px" y="0px"
	 viewBox="0 0 288.8 59.5" enable-background="new 0 0 288.8 59.5" xml:space="preserve">
<g>
	<path fill="#020303" d="M98.1,30.3v29.1c-5.2,0-10.5,0-15.6,0V0h5.5l29.9,29.2v-29c5.2,0,10.3,0,15.5,0v59.2h-5.4L98.1,30.3z"/>
	<path fill="#020303" d="M5.4,59.5H0l0.2-15.9c9.9-8.9,15.2-14.3,15.2-14.3L45.4,0h5.5v59.4c-5.2,0-10.4,0-15.6,0V30.3L5.4,59.5z"/>
	<path fill="#020303" d="M216.3,0.1h5.4v59.3c-5.2,0-10.3,0-15.5,0V33l-12.6,13.2H192L179.5,33v26.4c-5.2,0-10.3,0-15.5,0V0.1h5.6
		l23.1,25.7L216.3,0.1z"/>
	<path fill="#020303" d="M267.3,45.8h21.5c0,5.1,0,8.5,0,13.6c-12.2,0-24.7,0-36.7,0V0.3c5.1,0,10.1,0,15.2,0
		C267.3,30.8,267.3,20.6,267.3,45.8z"/>
</g>
</svg>
