<?xml version="1.0" encoding="utf-8"?>
<!-- Generator: Adobe Illustrator 18.1.1, SVG Export Plug-In . SVG Version: 6.00 Build 0)  -->
<svg version="1.1" id="Layer_1" xmlns="http://www.w3.org/2000/svg" xmlns:xlink="http://www.w3.org/1999/xlink" x="0px" y="0px"
	 width="34px" height="34px" viewBox="0 0 34 34" enable-background="new 0 0 34 34" xml:space="preserve">
<path fill="#2BBDB9" d="M17,33.9C7.7,33.9,0.1,26.3,0.1,17S7.7,0.1,17,0.1c9.3,0,16.9,7.6,16.9,16.9S26.3,33.9,17,33.9z M17,3.1
	C9.3,3.1,3.1,9.3,3.1,17c0,7.7,6.2,13.9,13.9,13.9c7.7,0,13.9-6.2,13.9-13.9C30.9,9.3,24.7,3.1,17,3.1z"/>
<polygon fill="#2BBDB9" points="15,25.5 12.9,23.4 19.3,17 12.9,10.6 15,8.5 23.5,17 "/>
</svg>
