<?xml version="1.0" encoding="utf-8"?>
<!-- Generator: Adobe Illustrator 18.1.1, SVG Export Plug-In . SVG Version: 6.00 Build 0)  -->
<svg version="1.1" id="Layer_1" xmlns="http://www.w3.org/2000/svg" xmlns:xlink="http://www.w3.org/1999/xlink" x="0px" y="0px"
	 width="405px" height="69px" viewBox="0 0 405 69" enable-background="new 0 0 405 69" xml:space="preserve">
<g>
	<g>
		<path fill-rule="evenodd" clip-rule="evenodd" fill="#FFFFFF" d="M245.3,51.5c0-13.1,0-26.3,0-40c9.1,0.5,18.4-1.8,26.9,3.5
			c7,4.4,10.3,12.4,8.7,21.1c-1.4,7.3-8.5,14.5-16,15.2C258.4,52,251.9,51.5,245.3,51.5z M252.6,17.9c0,9.5,0,18.4,0,27.4
			c3.6,0,7.1,0.4,10.4-0.1c6.8-1,11.4-6.9,11.3-13.6c-0.1-7-4.5-12.1-11.6-13.2C259.4,18,256.2,18.1,252.6,17.9z"/>
		<path fill-rule="evenodd" clip-rule="evenodd" fill="#FFFFFF" d="M195.2,31.5c0.4-11.6,10.1-20.9,21.2-20.5
			c11.5,0.4,21.1,10.2,20.5,21.3c-0.7,12.8-10.1,20.6-21.2,20.5C204,52.5,194.7,42.5,195.2,31.5z M202.2,31.4
			c-0.2,8,5.6,14.6,13.3,14.9c7.6,0.3,13.9-5.9,14.2-14c0.3-7.9-5.7-14.6-13.3-14.8C208.8,17.2,202.5,23.4,202.2,31.4z"/>
		<path fill-rule="evenodd" clip-rule="evenodd" fill="#FFFFFF" d="M317.4,45.3c0,2.4,0,4.3,0,6.4c-9.6,0-18.9,0-28.6,0
			c0-13.3,0-26.6,0-40.2c9.5,0,19,0,28.6,0c0,2,0,3.9,0,6.2c-7,0-14,0-21.3,0c0,3.6,0,6.8,0,10.5c4.5,0,8.9,0,13.5,0
			c0,2.3,0,4.1,0,6.3c-4.5,0-9,0-13.6,0c0,3.7,0,7.1,0,10.8C303.1,45.3,310.2,45.3,317.4,45.3z"/>
	</g>
</g>
<g>
	<path fill="#FFFFFF" d="M376.2,30.4c5.5-6,12-13,17.9-19.5h-9.2l-17.5,18.2c0-6.1,0-12.1,0-18.2c-2.4,0-4.5,0-6.9,0
		c0,13.6,0,26.9,0,40.2c2.4,0,4.5,0,7,0c0-6.6,0-13.1,0-20.2c0,0,12.6,12.8,19.1,20.2h9.5C389.7,44.5,381.7,36.2,376.2,30.4z"/>
</g>
<g>
	<path fill="#FFFFFF" d="M97.5,10.9L90.7,11L72.9,51.4h7.7l4-9.7h18.8l4.1,9.7h7.7L97.5,10.9z M87.3,35.4l6.6-16l6.8,16H87.3z"/>
</g>
<g>
	<polygon fill="#FFFFFF" points="161.1,17.1 173.9,17.1 173.9,51.3 180.6,51.3 180.6,17.2 191.2,17.2 193.9,10.9 161.1,10.9 	"/>
</g>
<g>
	<path fill="#FFFFFF" d="M339.4,28c-9.4-2.7-8.3-6.7-7.8-7.8c0.5-1.1,2.1-3.1,8.1-3.1c6,0,10.2,2.5,10.2,2.5l2.6-5.3
		c-0.2-0.3-5-3.2-13-3.3c-8-0.2-15.1,4.4-15.1,10.8c0,6.4,3.9,9.4,11.4,11.6c8.6,2.5,11.2,4.7,11.2,7.9c0,3.2-1.8,5.5-8,5.5
		c-5.3,0-11.8-4.2-13.4-5.4l-2.5,5.4c2.1,1.4,9.7,5.7,16.3,5.7c7.6,0,13.9-3.7,14.1-11.4C354,33.2,348,30.5,339.4,28z"/>
</g>
<g>
	<path fill="#FFFFFF" d="M145.8,34.9c0,5.6-4.5,10.1-10.1,10.1c-5.6,0-10.1-4.5-10.1-10.1v-24h-7.5v23.4c0,9.7,7.9,17.5,17.5,17.5
		c9.7,0,17.5-7.9,17.5-17.5V10.9h-7.5V34.9z"/>
</g>
<g>
	<path fill="#FFFFFF" d="M405,48.6c0,1.4-1.1,2.6-2.6,2.6c-1.5,0-2.6-1.1-2.6-2.6c0-1.4,1.2-2.5,2.6-2.5
		C403.8,46.1,405,47.2,405,48.6z M400.4,48.6c0,1.1,0.8,2,2,2c1.1,0,1.9-0.9,1.9-2c0-1.1-0.8-2-1.9-2
		C401.2,46.6,400.4,47.5,400.4,48.6z M402,50h-0.6v-2.5c0.2,0,0.6-0.1,1-0.1c0.5,0,0.7,0.1,0.9,0.2c0.1,0.1,0.2,0.3,0.2,0.6
		c0,0.3-0.2,0.5-0.5,0.6v0c0.2,0.1,0.4,0.3,0.5,0.6c0.1,0.4,0.1,0.5,0.2,0.6H403c-0.1-0.1-0.1-0.3-0.2-0.6c0-0.3-0.2-0.4-0.5-0.4
		H402V50z M402,48.5h0.3c0.3,0,0.6-0.1,0.6-0.4c0-0.2-0.2-0.4-0.5-0.4c-0.2,0-0.3,0-0.3,0V48.5z"/>
</g>
<g>
	<path fill="#FFFFFF" d="M21.6,0.2c-1.7,0.1-2.5,1.1-2.5,1.2c0,0,0,0,0,0l0,0L0.3,45.9c0,0,0,0.1-0.1,0.2c-0.4,1.1-0.3,2.1,0,2.8
		l0.2,0.4c0.8,1.3,2.4,1.9,3.3,1.9c0.7,0,6.5,0,13.5,0l14.2-33.4C28,9.3,25.3,3,24.9,2.2C24.1,0.5,22.6,0.2,21.6,0.2z"/>
	<path fill="#FFFFFF" d="M3.9,51.3c-0.9,0-2.5-0.7-3.3-1.9l5.3,9.8l4.3,7.9c0.9,1.7,3.3,1.9,3.3,1.9c2.5,0.2,7-2.1,7.9-2.6
		c0.9-0.5,21.6-13.3,24.3-15c-2.9,0-17.2,0-28.2,0C10.3,51.3,4.6,51.3,3.9,51.3z"/>
	<path fill="#FFFFFF" d="M0.5,49.3l-0.2-0.4C0.4,49.1,0.4,49.2,0.5,49.3z"/>
	<polygon fill="#FFFFFF" points="19,1.5 19,1.5 19,1.5 	"/>
	<polygon fill="#FFFFFF" points="19,1.5 19,1.5 19,1.5 	"/>
	<path fill="#FFFFFF" d="M19.1,1.5C19,1.5,19,1.5,19.1,1.5L19.1,1.5C19,1.5,19,1.5,19.1,1.5z"/>
	<path fill="#FFFFFF" d="M44.1,1.7c0,0-0.5-1.7-2.9-1.7c0,0-3.3,0-7.1,0C28.7,0,22,0,21.5,0c-1.2,0.1-2.1,0.9-2.5,1.4
		c0.1-0.1,0.8-1.1,2.5-1.2c1-0.1,2.5,0.3,3.3,1.9C25.3,3,28,9.3,31.6,17.9C39.4,36.4,51.5,65.2,53.1,69h19.4L44.1,1.7z"/>
</g>
</svg>
