<?xml version="1.0" encoding="utf-8"?>
<!-- Generator: Adobe Illustrator 18.1.1, SVG Export Plug-In . SVG Version: 6.00 Build 0)  -->
<svg version="1.1" id="Layer_1" xmlns="http://www.w3.org/2000/svg" xmlns:xlink="http://www.w3.org/1999/xlink" x="0px" y="0px"
	 width="488.2px" height="183.7px" viewBox="0 0 488.2 183.7" enable-background="new 0 0 488.2 183.7" xml:space="preserve">
<g>
	<g>
		<g>
			<path fill="#FFFFFF" d="M172.8,38.7c-2.1-3.4-6.8-4.4-12.1-3.9c-4.2,0.4-7.5,1.9-8.2,2.4c-0.9,0.6-1.2,1.5-1.1,2.2
				c0.2,1.9,1.7,3.4,0.4,10.9c-0.7,4.3-6.8,38.3-6.8,38.3c-3.7,2-7.7,3.5-10.6,3.5c-5,0-7.6-2.1-6.3-9.8c1.3-7.2,5.8-32.9,5.8-32.9
				c0.8-4.6,0.8-8.3-0.7-10.6c-2.1-3.4-6.8-4.4-12.1-3.9c-4.2,0.4-7.5,1.9-8.2,2.4c-0.9,0.6-1.2,1.5-1.1,2.2
				c0.2,1.9,1.7,3.4,0.4,10.8c-2.4,13.3-5.8,32.7-6.5,37c-2.6,14.9,2.2,25.8,16.8,25.8c3.4,0,12.2-2.2,20-6c0.2,1.2,0.5,2.2,1,3.1
				c4,6.5,17.3,3.7,20.5,1.5c0.9-0.6,1-1.5,1-2.2c-0.2-1.9-1.8-3.4-0.5-10.9c0.7-4.3,8.8-49.2,8.8-49.2
				C174.3,44.7,174.2,41,172.8,38.7z"/>
			<path fill="#FFFFFF" d="M396.1,4c-2.1-3.4-6.8-4.4-12.1-3.9c-4.2,0.4-7.5,1.9-8.2,2.4c-0.9,0.6-1.2,1.5-1.1,2.2
				c0.2,1.9,1.7,3.4,0.4,10.9c-0.5,3-15,83.9-15,83.9c-0.8,4.6-0.8,8.3,0.7,10.6c2.1,3.4,6.8,4.4,12.1,3.9c4.2-0.4,7.5-1.9,8.2-2.4
				c0.9-0.6,1.2-1.5,1.1-2.2c-0.2-1.9-1.7-3.4-0.4-10.9c0.7-4.3,15-83.9,15-83.9C397.6,10.1,397.5,6.4,396.1,4z"/>
			<path fill="#FFFFFF" d="M481.1,87.8c-3.5-2.3-7-3.1-7.9-3.2c-1-0.1-1.9,0.5-2.2,1c-0.7,1.1-3.9,10.6-16.7,20.6
				c0.7-4.5,9.8-56.9,9.8-56.9c0.8-4.6,0.8-8.3-0.7-10.6c-2.1-3.4-6.8-4.4-12.1-3.9c-4.2,0.4-7.5,1.9-8.2,2.4
				c-0.9,0.6-1.2,1.5-1.1,2.2c0.2,1.7,1.4,3.1,0.7,8.7l-7.1,40.4c-3.7,2-7.7,3.5-10.7,3.5c-5,0-7.6-2.1-6.3-9.8
				c1.1-5.9,5.9-32.9,5.9-32.9c0.8-4.6,0.8-8.3-0.7-10.6c-3.8-6.1-16.4-4.1-20.2-1.5c-0.9,0.6-1.2,1.5-1.1,2.2
				c0.2,1.8,1.5,3.2,0.6,9.5c-2.4,13.3-6,33.9-6.8,38.3c-2.6,14.9,2.2,25.8,16.8,25.8c3.3,0,11.7-2.1,19.5-5.7l-2,11.9
				c-0.9,0.3-21.8,7.6-30.6,11.6c-15.6,7.1-23.1,26.8-11.2,39.7c11.7,12.7,30.6,5.5,36.9,1c14.2-10,20.5-26.2,24.5-42.5
				c19.5-10.2,31.6-21.9,31.6-21.9c3.5-3.1,5.7-6,6.1-8.7C488.6,94.3,485.6,90.7,481.1,87.8z M418.3,154c-3.6,2.7-8.1,2-10,0.2
				c-2-2-2.4-7.2,6.2-10.4c6.1-2.3,12.6-5,12.6-5C425.7,144.7,422,151.3,418.3,154z"/>
		</g>
		<path fill="#FFFFFF" d="M355.1,57.8c1.5-8,0.7-13.2-1-16.7c-2.6-5.5-7.4-7.1-13.2-7.6c-6.9-0.4-17.9,4.5-23.8,8.1
			c-1.9-4.6-6.6-8.1-13.7-8.1c-7.9,0-19.5,5.5-23.6,8.2c-2.3-5.8-7.2-7.6-13.4-8.2c-8-0.4-18.3,4.5-23.9,8c-2.5-5.7-7.3-7.5-13.4-8
			c-7-0.4-15.2,3.2-21.6,6.5c-1.7-4.9-7.5-5.7-12.7-5.3c-4.2,0.4-7.5,1.9-8.2,2.4c-0.9,0.6-1.2,1.5-1.1,2.2c0.2,1.7,1.3,3.1,0.8,8.4
			l-9.1,51.7c-0.8,4.6-0.8,8.3,0.7,10.6c2.1,3.4,6.8,4.4,12.1,3.9c4.2-0.4,7.5-1.9,8.2-2.4c0.9-0.6,1.2-1.5,1.1-2.2
			c-0.2-1.7-1.5-4.2-0.8-8.3c0,0,7.4-42.4,7.4-42.4c2.8-2,7.4-4.1,9.8-4.1c4.8,0,6.1,3,5,9.5l-6.1,35.4c-0.8,4.6-0.8,8.3,0.7,10.6
			c2.1,3.4,6.8,4.4,12.1,3.9c4.2-0.4,7.5-1.9,8.2-2.4c0.9-0.6,1.2-1.5,1.1-2.2c-0.2-1.6-1.6-3.6-0.8-7.9c0.7-4.3,7.4-42.8,7.4-42.8
			c2.8-2,7.4-4.1,9.8-4.1c4.7,0,6.1,2.8,5.1,9.1c-2,11.4-0.4,2.5-6.2,35.8c-0.8,4.6-0.8,8.3,0.7,10.6c2.1,3.4,6.8,4.4,12.1,3.9
			c4.2-0.4,7.5-1.9,8.2-2.4c0.9-0.6,1.2-1.5,1.1-2.2c-0.2-1.7-1.4-3.1-0.7-8.7l7.3-42c1.7-1.2,6.6-4.1,10-4.1c4.8,0,5.9,3.3,4.7,9.8
			c-0.7,3.6-6.1,35.1-6.1,35.1c-0.8,4.6-0.8,8.2,0.7,10.6c1.8,2.9,5.4,4,9.7,4c0.8,0,1.6,0,2.5-0.1c4.2-0.4,7.5-1.9,8.2-2.4
			c0.9-0.6,1.2-1.5,1.1-2.2c-0.2-1.9-1.7-3.4-0.4-10.9c0.1-0.3,2.6-14.7,4.6-26.3l2.4-13.6c2.8-2,7.4-4,9.7-4c4.8,0,6.1,3,5,9.5
			l-6,35.4c-0.8,4.6-0.8,8.3,0.7,10.6c2.1,3.4,6.8,4.4,12.1,3.9c4.2-0.4,7.5-1.9,8.2-2.4c0.9-0.6,1.2-1.5,1.1-2.2
			c-0.2-1.9-1.7-3.4-0.4-10.9C348.1,98,355.1,57.8,355.1,57.8z"/>
	</g>
	<path fill="#FFFFFF" d="M144.3,135.6c-0.1-1-1-1.6-1.7-1.8c-1.6-0.4-3.3-0.1-8.1-2.2c-3.9-1.7-21.9-10.4-46.7-13.3l18-102.3
		c0.8-4.6,0.8-8.3-0.7-10.6C103,1.9,98.4,1,93.1,1.5c-4.2,0.4-7.5,1.9-8.2,2.4C84,4.4,83.7,5.4,83.8,6C84,8,85.5,9.5,84.3,16.9
		c-0.3,1.6-6.1,34.3-11.1,62C60,86.8,42.6,90.5,39,85.8c-1.7-2.4-1.3-6.8,0.3-13.4c0.4-1.5,8.1-30.7,10.3-39.1
		c4.1-16,1-30.7-15.6-32.2C19.6-0.3,5.9,8.1,1.8,12.5c-3,3.2-2,7,0.7,11.6c2.1,3.6,4.9,5.9,5.6,6.4c0.9,0.5,2,0.6,2.4,0.1
		c4.8-5.4,13.5-9.4,16.5-7c2.7,2.2,1.6,6.3,0.6,10.3c0,0-9.3,35.1-13.1,49.7c-2.8,10.8-0.1,20.6,7.8,25.3c5.9,3.6,14.6,3.3,21.4,2.4
		c15-1.8,23.7-8.1,25.1-9.2c-1.7,9.2-2.8,15.4-2.8,15.4s-16.9,1.5-30.7,9.8c-18.1,10.9-25.5,35.6-13.9,48.3
		c11.6,12.8,31.9,7.9,40.2,2.3c8-5.4,18.3-16.6,23-42.2c27.4,1.4,34.5,15.6,46.2,16.1C139.5,152.3,145.4,144.2,144.3,135.6z
		 M51.2,160.1c-3.9,2.2-7.9,2.6-10.3-0.2c-2.6-3-3.3-19,22.2-23.9C63.1,136,59,155.5,51.2,160.1z"/>
</g>
</svg>
