<?xml version="1.0" encoding="utf-8"?>
<!-- Generator: Adobe Illustrator 20.0.0, SVG Export Plug-In . SVG Version: 6.00 Build 0)  -->
<svg version="1.1" id="Layer_1" xmlns="http://www.w3.org/2000/svg" xmlns:xlink="http://www.w3.org/1999/xlink" x="0px" y="0px"
	 viewBox="0 0 171.6 86.5" style="enable-background:new 0 0 171.6 86.5;" xml:space="preserve">
<style type="text/css">
	.st0{fill:#FFFFFF;}
</style>
<g>
	<path class="st0" d="M73.7,5.8h-6c-8.9,0-16.1,7.2-16.1,16.1S58.8,38,67.7,38H79c2.8,0,5.1-2.3,5.1-5.1v-9.8l7.8,12.3
		C93,37,94.8,38,96.8,38c3.2,0,5.9-2.6,5.9-5.9v-9l7.8,12.3c1.1,1.6,2.9,2.6,4.9,2.6c3.2,0,5.9-2.6,5.9-5.9V5.9h-4V32
		c0,1-0.8,1.9-1.9,1.9c-0.6,0-1.2-0.3-1.6-0.8L100,11.2c-0.1-0.2-0.3-0.3-0.6-0.3c-0.4,0-0.7,0.3-0.7,0.7V32c0,1-0.8,1.9-1.9,1.9
		c-0.6,0-1.2-0.3-1.6-0.8L81.4,11.2c-0.1-0.2-0.3-0.3-0.6-0.3c-0.4,0-0.7,0.3-0.7,0.7v21.1c0,0.6-0.5,1.1-1.1,1.1H67.7
		c-6.7,0-12-5.4-12-12c0-6.7,5.4-12,12-12h6L73.7,5.8L73.7,5.8z"/>
	<path class="st0" d="M74.4,28.7c0.3,0,0.6-0.3,0.6-0.6V11.6c0-3.2,2.6-5.9,5.9-5.9c2.1,0,3.9,1.1,4.9,2.7l7.8,12.2v-8.9
		c0-3.2,2.6-5.9,5.9-5.9c2.1,0,3.9,1.1,4.9,2.7l7.8,12.2V5.8h4V32c0,0.4-0.3,0.7-0.7,0.7c-0.2,0-0.4-0.1-0.6-0.3L101,10.6
		c-0.3-0.5-0.9-0.8-1.6-0.8c-1,0-1.9,0.8-1.9,1.9v20.4c0,0.4-0.3,0.7-0.7,0.7c-0.2,0-0.4-0.1-0.6-0.3L82.4,10.6
		c-0.3-0.5-0.9-0.8-1.6-0.8c-1,0-1.9,0.8-1.9,1.9v20.5c0,0.3-0.3,0.6-0.6,0.6H67.6c-6,0-10.9-4.9-10.9-10.9S61.6,11,67.6,11h6v4h-6
		c-3.8,0-6.9,3.1-6.9,6.9s3.1,6.9,6.9,6.9L74.4,28.7L74.4,28.7z"/>
</g>
</svg>
