<?xml version="1.0" encoding="utf-8"?>
<!-- Generator: Adobe Illustrator 23.0.6, SVG Export Plug-In . SVG Version: 6.00 Build 0)  -->
<svg version="1.1" id="Layer_1" xmlns="http://www.w3.org/2000/svg" xmlns:xlink="http://www.w3.org/1999/xlink" x="0px" y="0px"
	 viewBox="0 0 160.4 24.7" style="enable-background:new 0 0 160.4 24.7;" xml:space="preserve">
<style type="text/css">
	.st0{fill-rule:evenodd;clip-rule:evenodd;fill:#231F20;}
</style>
<g>
	<path class="st0" d="M35.9,18.1l1.3-1.6c1.2,1,2.4,1.6,3.9,1.6c1.3,0,2.2-0.6,2.2-1.6v0c0-0.9-0.5-1.4-2.8-1.9
		c-2.6-0.6-4.1-1.4-4.1-3.8v0c0-2.2,1.8-3.7,4.2-3.7c1.8,0,3.2,0.6,4.5,1.6l-1.2,1.7c-1.1-0.8-2.2-1.3-3.3-1.3c-1.3,0-2,0.7-2,1.5v0
		c0,1,0.6,1.4,2.9,2c2.6,0.6,4,1.6,4,3.7v0c0,2.4-1.8,3.8-4.4,3.8C39.2,20.1,37.4,19.5,35.9,18.1z"/>
	<path class="st0" d="M46.9,16.5v-6.1H49v5.4c0,1.5,0.7,2.3,2,2.3c1.2,0,2.1-0.9,2.1-2.4v-5.4h2.1V20h-2.1v-1
		c-0.7,0.7-1.5,1.2-2.9,1.2C48.1,20.2,46.9,18.7,46.9,16.5z"/>
	<path class="st0" d="M57.5,10.4h2.1V12c0.6-1.4,1.7-1.8,3.3-1.8v1.9h-0.1c-1.9,0-3.2,1.3-3.2,4.1V20h-2.1V10.4z"/>
	<path class="st0" d="M63.7,10.4H66l2.5,6.6l2.5-6.6h2.2L69.4,20h-1.9L63.7,10.4z"/>
	<path class="st0" d="M80.1,14.5c-0.1-1.4-1-2.5-2.4-2.5c-1.3,0-2.2,1-2.4,2.5H80.1z M73.2,15.2L73.2,15.2c0-2.8,1.9-5,4.5-5
		c3,0,4.5,2.4,4.5,5.1c0,0.2,0,0.4,0,0.6h-6.8c0.2,1.6,1.3,2.4,2.7,2.4c1,0,1.8-0.4,2.5-1.1l1.3,1.1c-0.9,1.1-2.1,1.8-3.8,1.8
		C75.3,20.2,73.2,18.2,73.2,15.2z"/>
	<path class="st0" d="M93.5,7.3h2.3l3.8,6.4l3.8-6.4h2.3V20h-2.2v-9.1l-3.9,6.4h-0.1l-3.9-6.4v9h-2.1V7.3z"/>
	<path class="st0" d="M115,15.3L115,15.3c0-1.7-1.2-3.1-2.9-3.1c-1.7,0-2.8,1.4-2.8,3v0c0,1.7,1.2,3.1,2.8,3.1
		C113.9,18.3,115,16.9,115,15.3z M107.2,15.3L107.2,15.3c0-2.8,2.1-5,5-5c2.9,0,4.9,2.2,4.9,4.9v0c0,2.7-2.1,5-5,5
		C109.3,20.2,107.2,18,107.2,15.3z"/>
	<path class="st0" d="M129,6.8h2.1v7.9l3.9-4.2h2.6l-3.7,3.9l3.8,5.6h-2.5l-2.8-4.1l-1.3,1.4V20H129V6.8z"/>
	<path class="st0" d="M144.4,14.5c-0.1-1.4-1-2.5-2.4-2.5c-1.3,0-2.2,1-2.4,2.5H144.4z M137.5,15.2L137.5,15.2c0-2.8,1.9-5,4.5-5
		c3,0,4.5,2.4,4.5,5.1c0,0.2,0,0.4,0,0.6h-6.8c0.2,1.6,1.3,2.4,2.7,2.4c1,0,1.8-0.4,2.5-1.1l1.2,1.1c-0.9,1.1-2.1,1.8-3.8,1.8
		C139.6,20.2,137.5,18.2,137.5,15.2z"/>
	<path class="st0" d="M89.7,10.4l-2.6,6.5l-2.6-6.5h-2.2l3.7,9.3l-1.9,4.8h2.2l5.6-14.1H89.7z"/>
	<path class="st0" d="M158.6,10.4c0.3,0,0.5,0.1,0.7,0.2c0.2,0.1,0.4,0.3,0.6,0.6c0.1,0.2,0.2,0.5,0.2,0.8c0,0.3-0.1,0.5-0.2,0.8
		c-0.1,0.2-0.3,0.4-0.6,0.6c-0.2,0.1-0.5,0.2-0.8,0.2c-0.3,0-0.5-0.1-0.8-0.2c-0.2-0.1-0.4-0.3-0.6-0.6c-0.1-0.2-0.2-0.5-0.2-0.8
		c0-0.3,0.1-0.5,0.2-0.8c0.1-0.3,0.3-0.4,0.6-0.6C158.1,10.4,158.4,10.4,158.6,10.4z M158.6,10.6c-0.2,0-0.4,0.1-0.6,0.2
		c-0.2,0.1-0.4,0.3-0.5,0.5c-0.1,0.2-0.2,0.4-0.2,0.7c0,0.2,0.1,0.4,0.2,0.6c0.1,0.2,0.3,0.4,0.5,0.5c0.2,0.1,0.4,0.2,0.6,0.2
		c0.2,0,0.4-0.1,0.6-0.2c0.2-0.1,0.4-0.3,0.5-0.5c0.1-0.2,0.2-0.4,0.2-0.6c0-0.2-0.1-0.4-0.2-0.7c-0.1-0.2-0.3-0.4-0.5-0.5
		C159,10.7,158.8,10.6,158.6,10.6z"/>
	<path class="st0" d="M158.7,11.9c0.2,0,0.4-0.1,0.4-0.3v0c0-0.2-0.1-0.3-0.4-0.3h-0.4v0.6H158.7z M158,11h0.8
		c0.2,0,0.4,0.1,0.5,0.2c0.1,0.1,0.1,0.2,0.1,0.4v0c0,0.3-0.2,0.5-0.4,0.5l0.5,0.7h-0.4l-0.4-0.6h-0.4v0.6H158V11z"/>
	<path class="st0" d="M154,10.4l-2.6,6.5l-2.6-6.5h-2.2l3.7,9.3l-1.9,4.8h2.2l5.6-14.1H154z"/>
	<path class="st0" d="M126.8,13.9V20h-2.1v-5.4c0-1.5-0.7-2.3-2-2.3c-1.2,0-2.1,0.9-2.1,2.4V20h-2.1v-9.5h2.1v1
		c0.7-0.7,1.5-1.2,2.9-1.2C125.6,10.2,126.8,11.7,126.8,13.9z"/>
	<path class="st0" d="M27.7,17.7c-0.3,0-0.5-0.1-0.7-0.3c0.1-0.6,0.1-1.2,0.1-1.8c0.2-0.1,0.4-0.2,0.6-0.2c0.6,0,1.1,0.5,1.1,1.1
		C28.8,17.2,28.3,17.7,27.7,17.7z M3.6,17.7c-0.6,0-1.1-0.5-1.1-1.1c0-0.6,0.5-1.1,1.1-1.1c0.2,0,0.4,0.1,0.6,0.2
		c0,0.6,0.1,1.2,0.1,1.8C4.2,17.6,3.9,17.7,3.6,17.7z M27.6,12.8c-0.3,0-0.6,0-0.9,0.1c-1.1-4.4-4.6-7.8-9-8.6
		c-0.2,0-0.4-0.1-0.6-0.1c0-1.1,0.1-2.4,1.7-3.5L18.5,0c0,0-3.1,1-3.4,3.7C14.9,3,13.5,2,12.8,1.9l-0.4,0.6c0,0,0.9,0.5,1.2,1.8h0h0
		c-4.4,0.8-7.9,4.2-9,8.6c-0.3-0.1-0.6-0.1-0.9-0.1c-2,0-3.7,1.7-3.7,3.8c0,2.1,1.7,3.8,3.7,3.8c0.5,0,0.9-0.1,1.4-0.3
		c0.3,0.8,0.7,1.6,1.2,2.3l3.1-2.1l0,0C8.5,19.1,8,17.6,7.9,16c-0.1-1.7,0.3-3.4,1.4-4.4c2.2-1.9,4.6-1.1,6.1,0.8h0.4
		c1.5-1.9,3.9-2.7,6.1-0.8c1.1,1,1.5,2.7,1.4,4.4c-0.1,1.6-0.6,3.1-1.4,4.2l0,0l3.1,2.1c0.5-0.7,0.9-1.5,1.2-2.3
		c0.4,0.2,0.9,0.3,1.4,0.3c2,0,3.7-1.7,3.7-3.8C31.3,14.5,29.6,12.8,27.6,12.8z"/>
</g>
</svg>
