<?xml version="1.0" encoding="utf-8"?>
<!-- Generator: Adobe Illustrator 24.0.1, SVG Export Plug-In . SVG Version: 6.00 Build 0)  -->
<svg version="1.1" id="Layer_1" xmlns="http://www.w3.org/2000/svg" xmlns:xlink="http://www.w3.org/1999/xlink" x="0px" y="0px"
	 viewBox="0 0 68.09 68" style="enable-background:new 0 0 68.09 68;" xml:space="preserve">
<style type="text/css">
	.st0{fill:#FFFFFF;}
</style>
<rect x="-0.06" width="68" height="68"/>
<path class="st0" d="M-0.06,37.42c0,0,12.86,14.24,19.36,21.43c1.16-6.72,2.28-13.19,3.44-19.97c4.71,5.17,9.28,10.18,14.02,15.38
	c1.41-10.42,2.79-20.57,4.19-30.93c-2.49,0.77-4.81,1.45-7.09,2.25c-0.29,0.1-0.44,0.83-0.52,1.28c-0.59,3.19-1.15,6.38-1.73,9.57
	c-0.05,0.26-0.14,0.52-0.27,1.01c-4.36-4.66-8.64-9.23-13.11-14.01c-1.16,6.72-2.28,13.19-3.44,19.9c-1.8-1.98-3.42-3.77-5.05-5.57
	c-3.06-3.38-9.8-11.66-9.8-11.66L-0.06,37.42z"/>
<path class="st0" d="M43.51,27.99c2.43-0.73,4.67-1.41,6.91-2.06c0.62-0.18,1.29-0.35,1.92-0.29c2.09,0.19,3.74,1.8,3.97,3.76
	c0.22,1.84-1.03,3.82-2.88,4.59c-1.85,0.77-3.92,0.17-5.16-1.48c-0.18-0.24-0.36-0.48-0.55-0.73c-2.2,0.69-4.34,1.36-6.5,2.04
	c2.15,4.97,7.76,7.97,12.78,6.95c5.3-1.07,8.96-5.41,8.96-10.74c0-2.68-0.71-5.2-2.41-7.34c-2.18-2.73-5.21-3.69-8.7-3.88
	c0.54-2.99,1.06-5.86,1.61-8.89c-6.08,1.81-11.92,3.55-17.75,5.31c-0.26,0.08-0.65,0.29-0.68,0.49C34.66,18,34.35,20.28,34,22.71
	c3.76-1.14,7.3-2.22,10.96-3.34C44.46,22.35,44,25.07,43.51,27.99z"/>
</svg>
