<?xml version="1.0" encoding="utf-8"?>
<!-- Generator: Adobe Illustrator 18.1.1, SVG Export Plug-In . SVG Version: 6.00 Build 0)  -->
<svg version="1.1" id="Layer_1" xmlns="http://www.w3.org/2000/svg" xmlns:xlink="http://www.w3.org/1999/xlink" x="0px" y="0px"
	 width="458px" height="458px" viewBox="14 388.2 458 458" enable-background="new 14 388.2 458 458" xml:space="preserve">
	
	<g id="Layer_6">
		<g>
			<path fill="#fff" d="M243,410.7c113.8,0,206.4,92.6,206.4,206.4S356.8,823.5,243,823.5S36.6,731,36.6,617.2C36.6,503.3,129.2,410.7,243,410.7
				 M243,388.2c-126.5,0-229,102.5-229,229s102.5,229,229,229s229-102.5,229-229S369.5,388.2,243,388.2L243,388.2z"/>
			<g>
				<polygon fill="#fff" points="211.8,736.7 195.9,720.8 299.5,617.2 195.9,513.6 211.8,497.7 331.3,617.2"/>
			</g>
		</g>
	</g>
</svg>
