<?xml version="1.0" standalone="no"?>
<!-- Licensee: douglas hughmanick (#23871) - http://vllg.com -->
<!DOCTYPE svg PUBLIC "-//W3C//DTD SVG 1.1//EN" "http://www.w3.org/Graphics/SVG/1.1/DTD/svg11.dtd" ><svg version="1.1" xmlns="http://www.w3.org/2000/svg"><defs><font horiz-adv-x="0" id="font"><font-face ascent="750" bbox="-101 -275 1490.0741 1096" cap-height="730" descent="-250" font-family="Sharp Sans No1 Extrabold" font-stretch="normal" font-style="normal" font-weight="600" units-per-em="1000" x-height="500" /><missing-glyph d="M133 648V82L416 365ZM767 82V648L484 365ZM450 399 733 682H167ZM167 48H733L450 331ZM85 730H815V0H85Z" horiz-adv-x="900" /><glyph d="M267 266H407L337 479ZM253 730H421L671 0H494L459 107H214L179 0H3Z" glyph-name="A" horiz-adv-x="674" unicode="A" /><glyph d="M307 256H444L400 466ZM335 730H894V568H552L578 448H894V286H614L642 162H894V0H499L478 99H238L194 0H4Z" glyph-name="AE" horiz-adv-x="915" unicode="&#198;" /><glyph d="M307 256H444L400 466ZM580 941H748L593 764H468ZM335 730H894V568H552L578 448H894V286H614L642 162H894V0H499L478 99H238L194 0H4Z" glyph-name="AEacute" horiz-adv-x="914" unicode="&#508;" /><glyph d="M267 266H407L337 479ZM385 941H553L398 764H273ZM253 730H421L671 0H494L459 107H214L179 0H3Z" glyph-name="Aacute" horiz-adv-x="674" unicode="&#193;" /><glyph d="M267 266H407L337 479ZM337 758Q254 758 214 804.5Q174 851 174 936H281Q281 897 295 879.5Q309 862 337 861Q366 862 380 879.5Q394 897 394 936H502Q502 851 458.5 804.5Q415 758 337 758ZM253 730H421L671 0H494L459 107H214L179 0H3Z" glyph-name="Abreve" horiz-adv-x="674" unicode="&#258;" /><glyph d="M267 266H407L337 479ZM282 941H393L512 764H383L336 839L290 764H163ZM253 730H421L671 0H494L459 107H214L179 0H3Z" glyph-name="Acircumflex" horiz-adv-x="674" unicode="&#194;" /><glyph d="M267 266H407L337 479ZM151 932H318V764H151ZM352 932H519V764H352ZM253 730H421L671 0H494L459 107H214L179 0H3Z" glyph-name="Adieresis" horiz-adv-x="674" unicode="&#196;" /><glyph d="M267 266H407L337 479ZM121 941H289L401 764H276ZM253 730H421L671 0H494L459 107H214L179 0H3Z" glyph-name="Agrave" horiz-adv-x="674" unicode="&#192;" /><glyph d="M267 266H407L337 479ZM199 877H477V764H199ZM253 730H421L671 0H494L459 107H214L179 0H3Z" glyph-name="Amacron" horiz-adv-x="674" unicode="&#256;" /><glyph d="M253 730H421L671 0H493L337 477L180 0H3Z" glyph-name="Anocross" horiz-adv-x="674" unicode="&#59185;" /><glyph d="M267 266H407L337 479ZM567 -238Q497 -238 455.5 -205Q414 -172 414 -120Q414 -89 430 -59Q446 -29 493 3L459 107H214L179 0H3L253 730H421L670 1H671L670 0H669Q626 -30 600 -49Q574 -68 560 -79.5Q546 -91 541.5 -98.5Q537 -106 537 -113Q537 -126 546 -131Q555 -136 568 -136Q585 -136 597.5 -126.5Q610 -117 620 -108L723 -168Q695 -198 654 -218Q613 -238 567 -238Z" glyph-name="Aogonek" horiz-adv-x="674" unicode="&#260;" /><glyph d="M338 730Q352 730 362 739.5Q372 749 372 763Q372 777 362 786.5Q352 796 338 796Q325 796 315.5 786.5Q306 777 306 763Q306 750 314 741Q322 732 334 730ZM267 266H407L337 479ZM238 687Q213 720 213 762Q213 789 223 812Q233 835 250 852Q267 869 289.5 879Q312 889 338 889Q364 889 387 879Q410 869 427 852Q444 835 454 812Q464 789 464 762Q464 718 436 684L671 0H494L459 107H214L179 0H3Z" glyph-name="Aring" horiz-adv-x="674" unicode="&#197;" /><glyph d="M342 730Q354 732 363 741Q372 750 372 763Q372 777 362 786.5Q352 796 338 796Q325 796 315.5 786.5Q306 777 306 763Q306 749 315.5 739.5Q325 730 338 730ZM267 266H407L337 479ZM385 1096H553L398 919H273ZM238 687Q213 720 213 762Q213 789 223 812Q233 835 250 852Q267 869 289.5 879Q312 889 338 889Q364 889 387 879Q410 869 427 852Q444 835 454 812Q464 789 464 762Q464 718 436 684L671 0H494L459 107H214L179 0H3Z" glyph-name="Aringacute" horiz-adv-x="674" unicode="&#506;" /><glyph d="M267 266H407L337 479ZM166 764Q166 911 274 911Q298 911 316 904.5Q334 898 348 890Q362 882 373.5 876Q385 870 396 870Q417 870 417 907H513Q513 840 488 800Q463 760 405 760Q376 760 358 767.5Q340 775 326 783Q314 789 303.5 794.5Q293 800 282 800Q270 800 264.5 792Q259 784 259 764ZM253 730H421L671 0H494L459 107H214L179 0H3Z" glyph-name="Atilde" horiz-adv-x="674" unicode="&#195;" /><glyph d="M267 266H407L337 479ZM33 730H203L169 562H33ZM472 730H646V562H505ZM253 730H421L671 0H494L459 107H214L179 0H3Z" glyph-name="Aumlaut" horiz-adv-x="674" unicode="&#61814;" /><glyph d="M195 577V451H280Q327 451 346 469.5Q365 488 365 517Q365 547 345 562Q325 577 279 577ZM195 294V154H283Q334 154 357.5 172.5Q381 191 381 226Q381 261 360 277.5Q339 294 282 294ZM25 730H272Q538 730 538 523Q538 475 519.5 439.5Q501 404 467 381Q512 358 535.5 318.5Q559 279 559 222Q559 108 484.5 54Q410 0 279 0H25Z" glyph-name="B" horiz-adv-x="573" unicode="B" /><glyph d="M388 -10Q304 -10 235 19.5Q166 49 117 99.5Q68 150 41 218.5Q14 287 14 365Q14 445 42 513.5Q70 582 120 632.5Q170 683 238.5 711.5Q307 740 388 740Q441 740 489 727Q537 714 579 690.5Q621 667 655 633.5Q689 600 713 560L560 463Q535 512 492 540.5Q449 569 389 569Q345 569 309 553Q273 537 247 509.5Q221 482 206.5 444.5Q192 407 192 365Q192 323 206 286.5Q220 250 246 222.5Q272 195 307.5 179Q343 163 387 163Q453 163 497 196.5Q541 230 564 282L725 196Q702 151 668 113Q634 75 591.5 47.5Q549 20 497.5 5Q446 -10 388 -10Z" glyph-name="C" horiz-adv-x="737" unicode="C" /><glyph d="M388 -10Q304 -10 235 19.5Q166 49 117 99.5Q68 150 41 218.5Q14 287 14 365Q14 445 42 513.5Q70 582 120 632.5Q170 683 238.5 711.5Q307 740 388 740Q441 740 489 727Q537 714 579 690.5Q621 667 655 633.5Q689 600 713 560L560 463Q535 512 492 540.5Q449 569 389 569Q345 569 309 553Q273 537 247 509.5Q221 482 206.5 444.5Q192 407 192 365Q192 323 206 286.5Q220 250 246 222.5Q272 195 307.5 179Q343 163 387 163Q453 163 497 196.5Q541 230 564 282L725 196Q702 151 668 113Q634 75 591.5 47.5Q549 20 497.5 5Q446 -10 388 -10ZM434 944H602L447 767H322Z" glyph-name="Cacute" horiz-adv-x="737" unicode="&#262;" /><glyph d="M216 944H344L390 869L437 944H565L446 767H335ZM388 -10Q304 -10 235 19.5Q166 49 117 99.5Q68 150 41 218.5Q14 287 14 365Q14 445 42 513.5Q70 582 120 632.5Q170 683 238.5 711.5Q307 740 388 740Q441 740 489 727Q537 714 579 690.5Q621 667 655 633.5Q689 600 713 560L560 463Q535 512 492 540.5Q449 569 389 569Q345 569 309 553Q273 537 247 509.5Q221 482 206.5 444.5Q192 407 192 365Q192 323 206 286.5Q220 250 246 222.5Q272 195 307.5 179Q343 163 387 163Q453 163 497 196.5Q541 230 564 282L725 196Q702 151 668 113Q634 75 591.5 47.5Q549 20 497.5 5Q446 -10 388 -10Z" glyph-name="Ccaron" horiz-adv-x="737" unicode="&#268;" /><glyph d="M380 -262Q331 -262 292 -246.5Q253 -231 224 -205L317 -139Q332 -153 349 -160.5Q366 -168 391 -168Q411 -168 422 -161.5Q433 -155 433 -145Q433 -124 389 -124H330V-6Q258 4 199.5 36.5Q141 69 100 118Q59 167 36.5 230.5Q14 294 14 365Q14 445 42 513.5Q70 582 120 632.5Q170 683 238.5 711.5Q307 740 388 740Q441 740 489 727Q537 714 579 690.5Q621 667 655 633.5Q689 600 713 560L560 463Q535 512 492 540.5Q449 569 389 569Q345 569 309 553Q273 537 247 509.5Q221 482 206.5 444.5Q192 407 192 365Q192 323 206 286.5Q220 250 246 222.5Q272 195 307.5 179Q343 163 387 163Q453 163 497 196.5Q541 230 564 282L725 196Q683 115 609.5 59.5Q536 4 436 -7V-48Q486 -50 516.5 -74.5Q547 -99 547 -143Q547 -169 535 -191Q523 -213 501 -228.5Q479 -244 448 -253Q417 -262 380 -262Z" glyph-name="Ccedilla" horiz-adv-x="737" unicode="&#199;" /><glyph d="M335 943H446L565 766H436L389 841L343 766H216ZM388 -10Q304 -10 235 19.5Q166 49 117 99.5Q68 150 41 218.5Q14 287 14 365Q14 445 42 513.5Q70 582 120 632.5Q170 683 238.5 711.5Q307 740 388 740Q441 740 489 727Q537 714 579 690.5Q621 667 655 633.5Q689 600 713 560L560 463Q535 512 492 540.5Q449 569 389 569Q345 569 309 553Q273 537 247 509.5Q221 482 206.5 444.5Q192 407 192 365Q192 323 206 286.5Q220 250 246 222.5Q272 195 307.5 179Q343 163 387 163Q453 163 497 196.5Q541 230 564 282L725 196Q702 151 668 113Q634 75 591.5 47.5Q549 20 497.5 5Q446 -10 388 -10Z" glyph-name="Ccircumflex" horiz-adv-x="737" unicode="&#264;" /><glyph d="M305 939H477V767H305ZM388 -10Q304 -10 235 19.5Q166 49 117 99.5Q68 150 41 218.5Q14 287 14 365Q14 445 42 513.5Q70 582 120 632.5Q170 683 238.5 711.5Q307 740 388 740Q441 740 489 727Q537 714 579 690.5Q621 667 655 633.5Q689 600 713 560L560 463Q535 512 492 540.5Q449 569 389 569Q345 569 309 553Q273 537 247 509.5Q221 482 206.5 444.5Q192 407 192 365Q192 323 206 286.5Q220 250 246 222.5Q272 195 307.5 179Q343 163 387 163Q453 163 497 196.5Q541 230 564 282L725 196Q702 151 668 113Q634 75 591.5 47.5Q549 20 497.5 5Q446 -10 388 -10Z" glyph-name="Cdotaccent" horiz-adv-x="737" unicode="&#266;" /><glyph d="M199 568V163H239Q287 163 325.5 178.5Q364 194 391.5 221.5Q419 249 433.5 286Q448 323 448 365Q448 408 434 445Q420 482 393 509.5Q366 537 326.5 552.5Q287 568 236 568ZM25 730H244Q329 730 399 702Q469 674 519 625Q569 576 596.5 509.5Q624 443 624 365Q624 287 595.5 220Q567 153 517 104.5Q467 56 397.5 28Q328 0 247 0H25Z" glyph-name="D" horiz-adv-x="638" unicode="D" /><glyph d="M92 941H220L266 866L313 941H441L322 764H211ZM199 568V163H239Q287 163 325.5 178.5Q364 194 391.5 221.5Q419 249 433.5 286Q448 323 448 365Q448 408 434 445Q420 482 393 509.5Q366 537 326.5 552.5Q287 568 236 568ZM25 730H244Q329 730 399 702Q469 674 519 625Q569 576 596.5 509.5Q624 443 624 365Q624 287 595.5 220Q567 153 517 104.5Q467 56 397.5 28Q328 0 247 0H25Z" glyph-name="Dcaron" horiz-adv-x="638" unicode="&#270;" /><glyph d="M250 568V436H389V293H250V163H290Q338 163 376.5 178.5Q415 194 442.5 221.5Q470 249 484.5 286Q499 323 499 365Q499 408 485 445Q471 482 444 509.5Q417 537 377.5 552.5Q338 568 287 568ZM15 436H76V730H295Q380 730 450 702Q520 674 570 625Q620 576 647.5 509.5Q675 443 675 365Q675 287 646.5 220Q618 153 568 104.5Q518 56 448.5 28Q379 0 298 0H76V293H15Z" glyph-name="Dcroat" horiz-adv-x="689" unicode="&#272;" /><glyph d="M314 167H589L451 406ZM20 0 449 742 877 0Z" glyph-name="Delta" horiz-adv-x="897" unicode="&#8710;" /><glyph d="M25 730H458V568H199V448H458V286H199V162H458V0H25Z" glyph-name="E" horiz-adv-x="479" unicode="E" /><glyph d="M274 941H442L287 764H162ZM25 730H458V568H199V448H458V286H199V162H458V0H25Z" glyph-name="Eacute" horiz-adv-x="479" unicode="&#201;" /><glyph d="M244 758Q161 758 121 804.5Q81 851 81 936H188Q188 897 202 879.5Q216 862 244 861Q273 862 287 879.5Q301 897 301 936H409Q409 851 365.5 804.5Q322 758 244 758ZM25 730H458V568H199V448H458V286H199V162H458V0H25Z" glyph-name="Ebreve" horiz-adv-x="479" unicode="&#276;" /><glyph d="M67 941H195L241 866L288 941H416L297 764H186ZM25 730H458V568H199V448H458V286H199V162H458V0H25Z" glyph-name="Ecaron" horiz-adv-x="479" unicode="&#282;" /><glyph d="M185 941H296L415 764H286L239 839L193 764H66ZM25 730H458V568H199V448H458V286H199V162H458V0H25Z" glyph-name="Ecircumflex" horiz-adv-x="479" unicode="&#202;" /><glyph d="M260 932H427V764H260ZM59 932H226V764H59ZM25 730H458V568H199V448H458V286H199V162H458V0H25Z" glyph-name="Edieresis" horiz-adv-x="479" unicode="&#203;" /><glyph d="M165 936H337V764H165ZM25 730H458V568H199V448H458V286H199V162H458V0H25Z" glyph-name="Edotaccent" horiz-adv-x="479" unicode="&#278;" /><glyph d="M45 941H213L325 764H200ZM25 730H458V568H199V448H458V286H199V162H458V0H25Z" glyph-name="Egrave" horiz-adv-x="479" unicode="&#200;" /><glyph d="M104 877H382V764H104ZM25 730H458V568H199V448H458V286H199V162H458V0H25Z" glyph-name="Emacron" horiz-adv-x="479" unicode="&#274;" /><glyph d="M352 -59H417Q450 -59 462.5 -46Q475 -33 475 0V22L199 444V0H25V730H211L475 327V730H648V6Q648 -59 636 -103.5Q624 -148 597.5 -175.5Q571 -203 528 -215.5Q485 -228 423 -228H352Z" glyph-name="Eng" horiz-adv-x="673" unicode="&#330;" /><glyph d="M25 730H458V568H199V448H458V286H199V162H458V0H456Q413 -30 387 -49Q361 -68 347 -79.5Q333 -91 328.5 -98.5Q324 -106 324 -113Q324 -126 333 -131Q342 -136 355 -136Q372 -136 384.5 -126.5Q397 -117 407 -108L510 -168Q482 -198 441 -218Q400 -238 354 -238Q284 -238 242.5 -205Q201 -172 201 -120Q201 -90 216 -61Q231 -32 275 0H25Z" glyph-name="Eogonek" horiz-adv-x="479" unicode="&#280;" /><glyph d="M250 568V436H389V293H250V163H290Q338 163 376.5 178.5Q415 194 442.5 221.5Q470 249 484.5 286Q499 323 499 365Q499 408 485 445Q471 482 444 509.5Q417 537 377.5 552.5Q338 568 287 568ZM15 436H76V730H295Q380 730 450 702Q520 674 570 625Q620 576 647.5 509.5Q675 443 675 365Q675 287 646.5 220Q618 153 568 104.5Q518 56 448.5 28Q379 0 298 0H76V293H15Z" glyph-name="Eth" horiz-adv-x="689" unicode="&#208;" /><glyph d="M34 513H101Q104 563 124 604.5Q144 646 177 676Q210 706 256 723Q302 740 358 740Q427 740 480.5 713.5Q534 687 568 644L427 542Q417 557 400 566.5Q383 576 360 576Q326 576 305 558.5Q284 541 277 513H483L463 393H275V339H455L435 218H278Q284 192 304 175.5Q324 159 358 159Q382 159 397.5 170Q413 181 424 196L580 104Q548 50 494 20Q440 -10 358 -10Q299 -10 252.5 6Q206 22 173 52Q140 82 121.5 124Q103 166 101 218H33L34 339H101V393H34Z" glyph-name="Euro" horiz-adv-x="598" unicode="&#8364;" /><glyph d="M23 522H106Q127 571 161 611Q195 651 239.5 679.5Q284 708 337 724Q390 740 449 740Q506 740 556.5 725.5Q607 711 649.5 685Q692 659 726 622.5Q760 586 784 543L639 461Q616 516 566 548Q516 580 449 580Q400 580 362.5 564.5Q325 549 298 522H548L514 394H246Q245 386 244.5 379.5Q244 373 244 365Q244 358 244 351.5Q244 345 245 339H499L465 212H294Q320 183 358 167Q396 151 447 151Q522 151 569 187Q616 223 638 285L792 215Q770 165 737 124Q704 83 661.5 53Q619 23 566 6.5Q513 -10 450 -10Q389 -10 335.5 6.5Q282 23 237.5 52Q193 81 159 122Q125 163 104 212H23V339H74V365Q74 372 74 379Q74 386 75 394H23Z" glyph-name="Euro.LP" horiz-adv-x="792" unicode="&#58657;" /><glyph d="M34 513H101Q104 563 124 604.5Q144 646 177 676Q210 706 256 723Q302 740 358 740Q427 740 480.5 713.5Q534 687 568 644L427 542Q417 557 400 566.5Q383 576 360 576Q326 576 305 558.5Q284 541 277 513H483L463 393H275V339H455L435 218H278Q284 192 304 175.5Q324 159 358 159Q382 159 397.5 170Q413 181 424 196L580 104Q548 50 494 20Q440 -10 358 -10Q299 -10 252.5 6Q206 22 173 52Q140 82 121.5 124Q103 166 101 218H33L34 339H101V393H34Z" glyph-name="Euro.LT" horiz-adv-x="598" unicode="&#62567;" /><glyph d="M25 730H442V568H199V448H442V286H199V0H25Z" glyph-name="F" horiz-adv-x="465" unicode="F" /><glyph d="M397 -10Q308 -10 237 20Q166 50 116.5 101.5Q67 153 40.5 221Q14 289 14 365Q14 444 42 513Q70 582 119.5 632Q169 682 238 711Q307 740 390 740Q447 740 497.5 726.5Q548 713 590 689Q632 665 665 631.5Q698 598 722 558L568 473Q542 522 497 548.5Q452 575 391 575Q349 575 312 559Q275 543 247.5 515Q220 487 204 448.5Q188 410 188 365Q188 318 203 280Q218 242 245.5 214Q273 186 311 171Q349 156 394 156Q457 156 500 186Q543 216 562 270H359V432H751V349Q751 277 725.5 211.5Q700 146 653.5 97Q607 48 541.5 19Q476 -10 397 -10Z" glyph-name="G" horiz-adv-x="764" unicode="G" /><glyph d="M388 763Q305 763 265 809.5Q225 856 225 941H332Q332 902 346 884.5Q360 867 388 866Q417 867 431 884.5Q445 902 445 941H553Q553 856 509.5 809.5Q466 763 388 763ZM397 -10Q308 -10 237 20Q166 50 116.5 101.5Q67 153 40.5 221Q14 289 14 365Q14 444 42 513Q70 582 119.5 632Q169 682 238 711Q307 740 390 740Q447 740 497.5 726.5Q548 713 590 689Q632 665 665 631.5Q698 598 722 558L568 473Q542 522 497 548.5Q452 575 391 575Q349 575 312 559Q275 543 247.5 515Q220 487 204 448.5Q188 410 188 365Q188 318 203 280Q218 242 245.5 214Q273 186 311 171Q349 156 394 156Q457 156 500 186Q543 216 562 270H359V432H751V349Q751 277 725.5 211.5Q700 146 653.5 97Q607 48 541.5 19Q476 -10 397 -10Z" glyph-name="Gbreve" horiz-adv-x="764" unicode="&#286;" /><glyph d="M334 944H445L564 767H435L388 842L342 767H215ZM397 -10Q308 -10 237 20Q166 50 116.5 101.5Q67 153 40.5 221Q14 289 14 365Q14 444 42 513Q70 582 119.5 632Q169 682 238 711Q307 740 390 740Q447 740 497.5 726.5Q548 713 590 689Q632 665 665 631.5Q698 598 722 558L568 473Q542 522 497 548.5Q452 575 391 575Q349 575 312 559Q275 543 247.5 515Q220 487 204 448.5Q188 410 188 365Q188 318 203 280Q218 242 245.5 214Q273 186 311 171Q349 156 394 156Q457 156 500 186Q543 216 562 270H359V432H751V349Q751 277 725.5 211.5Q700 146 653.5 97Q607 48 541.5 19Q476 -10 397 -10Z" glyph-name="Gcircumflex" horiz-adv-x="764" unicode="&#284;" /><glyph d="M281 -259 321 -36H486L409 -259ZM397 -10Q308 -10 237 20Q166 50 116.5 101.5Q67 153 40.5 221Q14 289 14 365Q14 444 42 513Q70 582 119.5 632Q169 682 238 711Q307 740 390 740Q447 740 497.5 726.5Q548 713 590 689Q632 665 665 631.5Q698 598 722 558L568 473Q542 522 497 548.5Q452 575 391 575Q349 575 312 559Q275 543 247.5 515Q220 487 204 448.5Q188 410 188 365Q188 318 203 280Q218 242 245.5 214Q273 186 311 171Q349 156 394 156Q457 156 500 186Q543 216 562 270H359V432H751V349Q751 277 725.5 211.5Q700 146 653.5 97Q607 48 541.5 19Q476 -10 397 -10Z" glyph-name="Gcommaaccent" horiz-adv-x="764" unicode="&#290;" /><glyph d="M305 939H477V767H305ZM397 -10Q308 -10 237 20Q166 50 116.5 101.5Q67 153 40.5 221Q14 289 14 365Q14 444 42 513Q70 582 119.5 632Q169 682 238 711Q307 740 390 740Q447 740 497.5 726.5Q548 713 590 689Q632 665 665 631.5Q698 598 722 558L568 473Q542 522 497 548.5Q452 575 391 575Q349 575 312 559Q275 543 247.5 515Q220 487 204 448.5Q188 410 188 365Q188 318 203 280Q218 242 245.5 214Q273 186 311 171Q349 156 394 156Q457 156 500 186Q543 216 562 270H359V432H751V349Q751 277 725.5 211.5Q700 146 653.5 97Q607 48 541.5 19Q476 -10 397 -10Z" glyph-name="Gdotaccent" horiz-adv-x="764" unicode="&#288;" /><glyph d="M410 281H200V0H25V730H200V453H410V730H584V0H410Z" glyph-name="H" horiz-adv-x="609" unicode="H" /><glyph d="M241 453H451V524H241ZM12 654H66V730H241V654H451V730H625V654H681V524H625V0H451V281H241V0H66V524H12Z" glyph-name="Hbar" horiz-adv-x="693" unicode="&#294;" /><glyph d="M249 941H360L479 764H350L303 839L257 764H130ZM410 281H200V0H25V730H200V453H410V730H584V0H410Z" glyph-name="Hcircumflex" horiz-adv-x="609" unicode="&#292;" /><glyph d="M28 730H204V0H28Z" glyph-name="I" horiz-adv-x="231" unicode="I" /><glyph d="M25 730H201V0H25ZM239 169H246Q266 169 278.5 171.5Q291 174 298 181.5Q305 189 307.5 201Q310 213 310 233V730H483V227Q483 165 475 122Q467 79 443.5 52Q420 25 377.5 12.5Q335 0 265 0H239Z" glyph-name="IJ" horiz-adv-x="508" unicode="&#306;" /><glyph d="M164 941H332L177 764H52ZM28 730H204V0H28Z" glyph-name="Iacute" horiz-adv-x="231" unicode="&#205;" /><glyph d="M116 758Q33 758 -7 804.5Q-47 851 -47 936H60Q60 897 74 879.5Q88 862 116 861Q145 862 159 879.5Q173 897 173 936H281Q281 851 237.5 804.5Q194 758 116 758ZM28 730H204V0H28Z" glyph-name="Ibreve" horiz-adv-x="231" unicode="&#300;" /><glyph d="M61 941H172L291 764H162L115 839L69 764H-58ZM28 730H204V0H28Z" glyph-name="Icircumflex" horiz-adv-x="231" unicode="&#206;" /><glyph d="M28 730H204V0H28ZM-73 932H94V764H-73ZM138 932H305V764H138Z" glyph-name="Idieresis" horiz-adv-x="231" unicode="&#207;" /><glyph d="M29 936H201V764H29ZM28 730H204V0H28Z" glyph-name="Idotaccent" horiz-adv-x="231" unicode="&#304;" /><glyph d="M-99 941H69L181 764H56ZM28 730H204V0H28Z" glyph-name="Igrave" horiz-adv-x="231" unicode="&#204;" /><glyph d="M-23 877H255V764H-23ZM28 730H204V0H28Z" glyph-name="Imacron" horiz-adv-x="231" unicode="&#298;" /><glyph d="M121 -244Q86 -244 57.5 -235Q29 -226 9 -209.5Q-11 -193 -22.5 -170Q-34 -147 -34 -120Q-34 -86 -18 -56.5Q-2 -27 28 2V730H204V0H200Q140 -44 119 -70.5Q98 -97 98 -111Q98 -124 106.5 -130.5Q115 -137 126 -137Q141 -137 153 -127Q165 -117 173 -107L276 -168Q249 -200 210.5 -222Q172 -244 121 -244Z" glyph-name="Iogonek" horiz-adv-x="231" unicode="&#302;" /><glyph d="M-55 764Q-55 911 53 911Q77 911 95 904.5Q113 898 127 890Q141 882 152.5 876Q164 870 175 870Q196 870 196 907H292Q292 840 267 800Q242 760 184 760Q155 760 137 767.5Q119 775 105 783Q93 789 82.5 794.5Q72 800 61 800Q49 800 43.5 792Q38 784 38 764ZM28 730H204V0H28Z" glyph-name="Itilde" horiz-adv-x="231" unicode="&#296;" /><glyph d="M247 -10Q153 -10 92 34Q31 78 8 151L175 217Q183 186 199.5 168Q216 150 246 150Q276 150 290.5 170Q305 190 305 221V730H481V231Q481 120 424 55Q367 -10 247 -10Z" glyph-name="J" horiz-adv-x="506" unicode="J" /><glyph d="M336 941H447L566 764H437L390 839L344 764H217ZM247 -10Q153 -10 92 34Q31 78 8 151L175 217Q183 186 199.5 168Q216 150 246 150Q276 150 290.5 170Q305 190 305 221V730H481V231Q481 120 424 55Q367 -10 247 -10Z" glyph-name="Jcircumflex" horiz-adv-x="506" unicode="&#308;" /><glyph d="M259 313 200 234V0H25V730H200V467L396 730H602L384 443L619 0H424Z" glyph-name="K" horiz-adv-x="618" unicode="K" /><glyph d="M191 -255 231 -32H396L319 -255ZM259 313 200 234V0H25V730H200V467L396 730H602L384 443L619 0H424Z" glyph-name="Kcommaaccent" horiz-adv-x="618" unicode="&#310;" /><glyph d="M25 730H200V167H438V0H25Z" glyph-name="L" horiz-adv-x="459" unicode="L" /><glyph d="M161 941H329L174 764H49ZM25 730H200V167H438V0H25Z" glyph-name="Lacute" horiz-adv-x="460" unicode="&#313;" /><glyph d="M273 730H420L335 553H227ZM25 730H200V167H438V0H25Z" glyph-name="Lcaron" horiz-adv-x="460" unicode="&#317;" /><glyph d="M111 -255 151 -32H316L239 -255ZM25 730H200V167H438V0H25Z" glyph-name="Lcommaaccent" horiz-adv-x="460" unicode="&#315;" /><glyph d="M270 485H438V315H270ZM25 730H200V167H438V0H25Z" glyph-name="Ldot" horiz-adv-x="460" unicode="&#319;" /><glyph d="M14 393 74 411V730H249V466L404 514V393L249 345V167H487V0H74V291L14 273Z" glyph-name="Lslash" horiz-adv-x="508" unicode="&#321;" /><glyph d="M25 730H200L385 474L577 730H742V0H568V450L384 202L199 451V0H25Z" glyph-name="M" horiz-adv-x="767" unicode="M" /><glyph d="M25 730H211L475 314V730H648V0H475L199 437V0H25Z" glyph-name="N" horiz-adv-x="673" unicode="N" /><glyph d="M390 941H558L403 764H278ZM25 730H211L475 314V730H648V0H475L199 437V0H25Z" glyph-name="Nacute" horiz-adv-x="673" unicode="&#323;" /><glyph d="M165 941H293L339 866L386 941H514L395 764H284ZM25 730H211L475 314V730H648V0H475L199 437V0H25Z" glyph-name="Ncaron" horiz-adv-x="673" unicode="&#327;" /><glyph d="M219 -255 259 -32H424L347 -255ZM25 730H211L475 314V730H648V0H475L199 437V0H25Z" glyph-name="Ncommaaccent" horiz-adv-x="673" unicode="&#325;" /><glyph d="M169 764Q169 911 277 911Q301 911 319 904.5Q337 898 351 890Q365 882 376.5 876Q388 870 399 870Q420 870 420 907H516Q516 840 491 800Q466 760 408 760Q379 760 361 767.5Q343 775 329 783Q317 789 306.5 794.5Q296 800 285 800Q273 800 267.5 792Q262 784 262 764ZM25 730H211L475 314V730H648V0H475L199 437V0H25Z" glyph-name="Ntilde" horiz-adv-x="673" unicode="&#209;" /><glyph d="M387 162Q430 162 466.5 178Q503 194 529.5 222Q556 250 571 286.5Q586 323 586 365Q586 407 571 444Q556 481 529 509Q502 537 465.5 553Q429 569 387 569Q345 569 308.5 553Q272 537 246 509Q220 481 205 444Q190 407 190 365Q190 323 204.5 286.5Q219 250 245.5 222Q272 194 308 178Q344 162 387 162ZM387 -10Q309 -10 241 19.5Q173 49 122.5 99.5Q72 150 43 218.5Q14 287 14 365Q14 443 43 511Q72 579 122.5 630Q173 681 241 710.5Q309 740 387 740Q465 740 533 710.5Q601 681 652 630Q703 579 732 511Q761 443 761 365Q761 287 732 218.5Q703 150 652.5 99.5Q602 49 534 19.5Q466 -10 387 -10Z" glyph-name="O" horiz-adv-x="775" unicode="O" /><glyph d="M387 162Q430 162 466.5 178Q503 194 529.5 222Q556 250 571 286.5Q586 323 586 365Q586 407 571 444Q556 481 529 509Q502 537 465.5 553Q429 569 387 569Q345 569 308.5 553Q272 537 246 509Q220 481 205 444Q190 407 190 365Q190 323 204.5 286.5Q219 250 245.5 222Q272 194 308 178Q344 162 387 162ZM591 57Q550 25 499 7.5Q448 -10 387 -10Q309 -10 241 19.5Q173 49 122.5 99.5Q72 150 43 218.5Q14 287 14 365Q14 443 43 511Q72 579 122.5 630Q173 681 241 710.5Q309 740 387 740Q447 740 498 721.5Q549 703 591 671V730H1024V568H764V448H1024V286H764V162H1024V0H591Z" glyph-name="OE" horiz-adv-x="1045" unicode="&#338;" /><glyph d="M387 162Q430 162 466.5 178Q503 194 529.5 222Q556 250 571 286.5Q586 323 586 365Q586 407 571 444Q556 481 529 509Q502 537 465.5 553Q429 569 387 569Q345 569 308.5 553Q272 537 246 509Q220 481 205 444Q190 407 190 365Q190 323 204.5 286.5Q219 250 245.5 222Q272 194 308 178Q344 162 387 162ZM387 -10Q309 -10 241 19.5Q173 49 122.5 99.5Q72 150 43 218.5Q14 287 14 365Q14 443 43 511Q72 579 122.5 630Q173 681 241 710.5Q309 740 387 740Q465 740 533 710.5Q601 681 652 630Q703 579 732 511Q761 443 761 365Q761 287 732 218.5Q703 150 652.5 99.5Q602 49 534 19.5Q466 -10 387 -10ZM432 944H600L445 767H320Z" glyph-name="Oacute" horiz-adv-x="775" unicode="&#211;" /><glyph d="M384 763Q301 763 261 809.5Q221 856 221 941H328Q328 902 342 884.5Q356 867 384 866Q413 867 427 884.5Q441 902 441 941H549Q549 856 505.5 809.5Q462 763 384 763ZM387 162Q430 162 466.5 178Q503 194 529.5 222Q556 250 571 286.5Q586 323 586 365Q586 407 571 444Q556 481 529 509Q502 537 465.5 553Q429 569 387 569Q345 569 308.5 553Q272 537 246 509Q220 481 205 444Q190 407 190 365Q190 323 204.5 286.5Q219 250 245.5 222Q272 194 308 178Q344 162 387 162ZM387 -10Q309 -10 241 19.5Q173 49 122.5 99.5Q72 150 43 218.5Q14 287 14 365Q14 443 43 511Q72 579 122.5 630Q173 681 241 710.5Q309 740 387 740Q465 740 533 710.5Q601 681 652 630Q703 579 732 511Q761 443 761 365Q761 287 732 218.5Q703 150 652.5 99.5Q602 49 534 19.5Q466 -10 387 -10Z" glyph-name="Obreve" horiz-adv-x="775" unicode="&#334;" /><glyph d="M330 944H441L560 767H431L384 842L338 767H211ZM387 162Q430 162 466.5 178Q503 194 529.5 222Q556 250 571 286.5Q586 323 586 365Q586 407 571 444Q556 481 529 509Q502 537 465.5 553Q429 569 387 569Q345 569 308.5 553Q272 537 246 509Q220 481 205 444Q190 407 190 365Q190 323 204.5 286.5Q219 250 245.5 222Q272 194 308 178Q344 162 387 162ZM387 -10Q309 -10 241 19.5Q173 49 122.5 99.5Q72 150 43 218.5Q14 287 14 365Q14 443 43 511Q72 579 122.5 630Q173 681 241 710.5Q309 740 387 740Q465 740 533 710.5Q601 681 652 630Q703 579 732 511Q761 443 761 365Q761 287 732 218.5Q703 150 652.5 99.5Q602 49 534 19.5Q466 -10 387 -10Z" glyph-name="Ocircumflex" horiz-adv-x="775" unicode="&#212;" /><glyph d="M387 162Q430 162 466.5 178Q503 194 529.5 222Q556 250 571 286.5Q586 323 586 365Q586 407 571 444Q556 481 529 509Q502 537 465.5 553Q429 569 387 569Q345 569 308.5 553Q272 537 246 509Q220 481 205 444Q190 407 190 365Q190 323 204.5 286.5Q219 250 245.5 222Q272 194 308 178Q344 162 387 162ZM387 -10Q309 -10 241 19.5Q173 49 122.5 99.5Q72 150 43 218.5Q14 287 14 365Q14 443 43 511Q72 579 122.5 630Q173 681 241 710.5Q309 740 387 740Q465 740 533 710.5Q601 681 652 630Q703 579 732 511Q761 443 761 365Q761 287 732 218.5Q703 150 652.5 99.5Q602 49 534 19.5Q466 -10 387 -10ZM200 935H367V767H200ZM401 935H568V767H401Z" glyph-name="Odieresis" horiz-adv-x="775" unicode="&#214;" /><glyph d="M174 944H342L454 767H329ZM387 162Q430 162 466.5 178Q503 194 529.5 222Q556 250 571 286.5Q586 323 586 365Q586 407 571 444Q556 481 529 509Q502 537 465.5 553Q429 569 387 569Q345 569 308.5 553Q272 537 246 509Q220 481 205 444Q190 407 190 365Q190 323 204.5 286.5Q219 250 245.5 222Q272 194 308 178Q344 162 387 162ZM387 -10Q309 -10 241 19.5Q173 49 122.5 99.5Q72 150 43 218.5Q14 287 14 365Q14 443 43 511Q72 579 122.5 630Q173 681 241 710.5Q309 740 387 740Q465 740 533 710.5Q601 681 652 630Q703 579 732 511Q761 443 761 365Q761 287 732 218.5Q703 150 652.5 99.5Q602 49 534 19.5Q466 -10 387 -10Z" glyph-name="Ograve" horiz-adv-x="775" unicode="&#210;" /><glyph d="M387 162Q430 162 466.5 178Q503 194 529.5 222Q556 250 571 286.5Q586 323 586 365Q586 407 571 444Q556 481 529 509Q502 537 465.5 553Q429 569 387 569Q345 569 308.5 553Q272 537 246 509Q220 481 205 444Q190 407 190 365Q190 323 204.5 286.5Q219 250 245.5 222Q272 194 308 178Q344 162 387 162ZM387 -10Q309 -10 241 19.5Q173 49 122.5 99.5Q72 150 43 218.5Q14 287 14 365Q14 443 43 511Q72 579 122.5 630Q173 681 241 710.5Q309 740 387 740Q465 740 533 710.5Q601 681 652 630Q703 579 732 511Q761 443 761 365Q761 287 732 218.5Q703 150 652.5 99.5Q602 49 534 19.5Q466 -10 387 -10ZM511 944H660L525 767H419ZM325 944H475L340 767H234Z" glyph-name="Ohungarumlaut" horiz-adv-x="775" unicode="&#336;" /><glyph d="M387 162Q430 162 466.5 178Q503 194 529.5 222Q556 250 571 286.5Q586 323 586 365Q586 407 571 444Q556 481 529 509Q502 537 465.5 553Q429 569 387 569Q345 569 308.5 553Q272 537 246 509Q220 481 205 444Q190 407 190 365Q190 323 204.5 286.5Q219 250 245.5 222Q272 194 308 178Q344 162 387 162ZM387 -10Q309 -10 241 19.5Q173 49 122.5 99.5Q72 150 43 218.5Q14 287 14 365Q14 443 43 511Q72 579 122.5 630Q173 681 241 710.5Q309 740 387 740Q465 740 533 710.5Q601 681 652 630Q703 579 732 511Q761 443 761 365Q761 287 732 218.5Q703 150 652.5 99.5Q602 49 534 19.5Q466 -10 387 -10ZM245 880H523V767H245Z" glyph-name="Omacron" horiz-adv-x="775" unicode="&#332;" /><glyph d="M387 162Q430 162 466.5 178Q503 194 529.5 222Q556 250 571 286.5Q586 323 586 365Q586 414 564 458L325 171Q353 162 387 162ZM190 365Q190 314 212 270L452 558Q421 569 387 569Q345 569 308.5 553Q272 537 246 509Q220 481 205 444Q190 407 190 365ZM95 130Q57 178 35.5 238Q14 298 14 365Q14 443 43 511Q72 579 122.5 630Q173 681 241 710.5Q309 740 387 740Q436 740 481 728Q526 716 566 694L596 730H791L680 598Q718 550 739.5 490.5Q761 431 761 365Q761 287 732 218.5Q703 150 652.5 99.5Q602 49 534 19.5Q466 -10 387 -10Q339 -10 294.5 1.5Q250 13 210 34L182 0H-13Z" glyph-name="Oslash" horiz-adv-x="775" unicode="&#216;" /><glyph d="M425 944H593L438 767H313ZM387 162Q430 162 466.5 178Q503 194 529.5 222Q556 250 571 286.5Q586 323 586 365Q586 414 564 458L325 171Q353 162 387 162ZM190 365Q190 314 212 270L452 558Q421 569 387 569Q345 569 308.5 553Q272 537 246 509Q220 481 205 444Q190 407 190 365ZM95 130Q57 178 35.5 238Q14 298 14 365Q14 443 43 511Q72 579 122.5 630Q173 681 241 710.5Q309 740 387 740Q436 740 481 728Q526 716 566 694L596 730H791L680 598Q718 550 739.5 490.5Q761 431 761 365Q761 287 732 218.5Q703 150 652.5 99.5Q602 49 534 19.5Q466 -10 387 -10Q339 -10 294.5 1.5Q250 13 210 34L182 0H-13Z" glyph-name="Oslashacute" horiz-adv-x="775" unicode="&#510;" /><glyph d="M215 767Q215 914 323 914Q347 914 365 907.5Q383 901 397 893Q411 885 422.5 879Q434 873 445 873Q466 873 466 910H562Q562 843 537 803Q512 763 454 763Q425 763 407 770.5Q389 778 375 786Q363 792 352.5 797.5Q342 803 331 803Q319 803 313.5 795Q308 787 308 767ZM387 162Q430 162 466.5 178Q503 194 529.5 222Q556 250 571 286.5Q586 323 586 365Q586 407 571 444Q556 481 529 509Q502 537 465.5 553Q429 569 387 569Q345 569 308.5 553Q272 537 246 509Q220 481 205 444Q190 407 190 365Q190 323 204.5 286.5Q219 250 245.5 222Q272 194 308 178Q344 162 387 162ZM387 -10Q309 -10 241 19.5Q173 49 122.5 99.5Q72 150 43 218.5Q14 287 14 365Q14 443 43 511Q72 579 122.5 630Q173 681 241 710.5Q309 740 387 740Q465 740 533 710.5Q601 681 652 630Q703 579 732 511Q761 443 761 365Q761 287 732 218.5Q703 150 652.5 99.5Q602 49 534 19.5Q466 -10 387 -10Z" glyph-name="Otilde" horiz-adv-x="775" unicode="&#213;" /><glyph d="M387 162Q430 162 466.5 178Q503 194 529.5 222Q556 250 571 286.5Q586 323 586 365Q586 407 571 444Q556 481 529 509Q502 537 465.5 553Q429 569 387 569Q345 569 308.5 553Q272 537 246 509Q220 481 205 444Q190 407 190 365Q190 323 204.5 286.5Q219 250 245.5 222Q272 194 308 178Q344 162 387 162ZM387 -10Q309 -10 241 19.5Q173 49 122.5 99.5Q72 150 43 218.5Q14 287 14 365Q14 443 43 511Q72 579 122.5 630Q173 681 241 710.5Q309 740 387 740Q465 740 533 710.5Q601 681 652 630Q703 579 732 511Q761 443 761 365Q761 287 732 218.5Q703 150 652.5 99.5Q602 49 534 19.5Q466 -10 387 -10ZM730 562Q706 609 668.5 646.5Q631 684 584 710V730H753V562ZM23 730H191V710Q144 684 106.5 647Q69 610 45 562H23Z" glyph-name="Oumlaut" horiz-adv-x="775" unicode="&#61815;" /><glyph d="M200 571V354H267Q315 354 346 383.5Q377 413 377 462Q377 511 346 541Q315 571 267 571ZM25 730H274Q338 730 390 709Q442 688 478.5 651.5Q515 615 534.5 566.5Q554 518 554 463Q554 408 534.5 358.5Q515 309 478.5 272Q442 235 390 213.5Q338 192 273 192H200V0H25Z" glyph-name="P" horiz-adv-x="571" unicode="P" /><glyph d="M294 374H489L568 271Q590 315 590 365Q590 407 574.5 444.5Q559 482 531.5 510Q504 538 467 554.5Q430 571 387 571Q344 571 307.5 554.5Q271 538 244 510Q217 482 201.5 444.5Q186 407 186 365Q186 323 201.5 285.5Q217 248 244 220Q271 192 307.5 175.5Q344 159 387 159Q405 159 423 164L533 19Q500 5 463 -2.5Q426 -10 387 -10Q309 -10 241 19.5Q173 49 122.5 99.5Q72 150 43 218.5Q14 287 14 365Q14 443 43 511Q72 579 122.5 630Q173 681 241 710.5Q309 740 387 740Q465 740 533 710.5Q601 681 652 630Q703 579 732 511Q761 443 761 365Q761 297 739 237Q717 177 678 129L778 0H581Z" glyph-name="Q" horiz-adv-x="775" unicode="Q" /><glyph d="M199 570V378H259Q287 378 307.5 386.5Q328 395 342 408.5Q356 422 363 440Q370 458 370 477Q370 522 342 546Q314 570 259 570ZM25 730H272Q338 730 389 710Q440 690 475.5 656Q511 622 529 576.5Q547 531 547 479Q547 408 515 348Q483 288 416 257L568 0H371L199 314V0H25Z" glyph-name="R" horiz-adv-x="569" unicode="R" /><glyph d="M305 941H473L318 764H193ZM199 570V378H259Q287 378 307.5 386.5Q328 395 342 408.5Q356 422 363 440Q370 458 370 477Q370 522 342 546Q314 570 259 570ZM25 730H272Q338 730 389 710Q440 690 475.5 656Q511 622 529 576.5Q547 531 547 479Q547 408 515 348Q483 288 416 257L568 0H371L199 314V0H25Z" glyph-name="Racute" horiz-adv-x="569" unicode="&#340;" /><glyph d="M199 570V378H259Q287 378 307.5 386.5Q328 395 342 408.5Q356 422 363 440Q370 458 370 477Q370 522 342 546Q314 570 259 570ZM90 941H218L264 866L311 941H439L320 764H209ZM25 730H272Q338 730 389 710Q440 690 475.5 656Q511 622 529 576.5Q547 531 547 479Q547 408 515 348Q483 288 416 257L568 0H371L199 314V0H25Z" glyph-name="Rcaron" horiz-adv-x="569" unicode="&#344;" /><glyph d="M199 570V378H259Q287 378 307.5 386.5Q328 395 342 408.5Q356 422 363 440Q370 458 370 477Q370 522 342 546Q314 570 259 570ZM166 -255 206 -32H371L294 -255ZM25 730H272Q338 730 389 710Q440 690 475.5 656Q511 622 529 576.5Q547 531 547 479Q547 408 515 348Q483 288 416 257L568 0H371L199 314V0H25Z" glyph-name="Rcommaaccent" horiz-adv-x="569" unicode="&#342;" /><glyph d="M291 -11Q236 -11 192.5 0Q149 11 113.5 29Q78 47 50 71Q22 95 -2 122L151 242Q177 199 213.5 176Q250 153 291 153Q331 153 354 174.5Q377 196 377 223Q377 240 366 251.5Q355 263 336 272Q317 281 293 288Q269 295 242 303Q206 313 169 327.5Q132 342 101.5 366Q71 390 52 426.5Q33 463 33 517Q33 565 51.5 606Q70 647 103.5 677Q137 707 184 724Q231 741 287 741Q335 741 374 731.5Q413 722 444.5 706.5Q476 691 501 670Q526 649 547 625L407 518Q387 551 356 570Q325 589 288 589Q250 589 229.5 571.5Q209 554 209 528Q209 511 220 499.5Q231 488 249.5 479Q268 470 292.5 462.5Q317 455 344 447Q381 436 419 420.5Q457 405 488 380.5Q519 356 538.5 319Q558 282 558 228Q558 181 540 138Q522 95 488 62Q454 29 404.5 9Q355 -11 291 -11Z" glyph-name="S" horiz-adv-x="572" unicode="S" /><glyph d="M291 -11Q236 -11 192.5 0Q149 11 113.5 29Q78 47 50 71Q22 95 -2 122L151 242Q177 199 213.5 176Q250 153 291 153Q331 153 354 174.5Q377 196 377 223Q377 240 366 251.5Q355 263 336 272Q317 281 293 288Q269 295 242 303Q206 313 169 327.5Q132 342 101.5 366Q71 390 52 426.5Q33 463 33 517Q33 565 51.5 606Q70 647 103.5 677Q137 707 184 724Q231 741 287 741Q335 741 374 731.5Q413 722 444.5 706.5Q476 691 501 670Q526 649 547 625L407 518Q387 551 356 570Q325 589 288 589Q250 589 229.5 571.5Q209 554 209 528Q209 511 220 499.5Q231 488 249.5 479Q268 470 292.5 462.5Q317 455 344 447Q381 436 419 420.5Q457 405 488 380.5Q519 356 538.5 319Q558 282 558 228Q558 181 540 138Q522 95 488 62Q454 29 404.5 9Q355 -11 291 -11ZM326 944H494L339 767H214Z" glyph-name="Sacute" horiz-adv-x="572" unicode="&#346;" /><glyph d="M116 944H244L290 869L337 944H465L346 767H235ZM291 -11Q236 -11 192.5 0Q149 11 113.5 29Q78 47 50 71Q22 95 -2 122L151 242Q177 199 213.5 176Q250 153 291 153Q331 153 354 174.5Q377 196 377 223Q377 240 366 251.5Q355 263 336 272Q317 281 293 288Q269 295 242 303Q206 313 169 327.5Q132 342 101.5 366Q71 390 52 426.5Q33 463 33 517Q33 565 51.5 606Q70 647 103.5 677Q137 707 184 724Q231 741 287 741Q335 741 374 731.5Q413 722 444.5 706.5Q476 691 501 670Q526 649 547 625L407 518Q387 551 356 570Q325 589 288 589Q250 589 229.5 571.5Q209 554 209 528Q209 511 220 499.5Q231 488 249.5 479Q268 470 292.5 462.5Q317 455 344 447Q381 436 419 420.5Q457 405 488 380.5Q519 356 538.5 319Q558 282 558 228Q558 181 540 138Q522 95 488 62Q454 29 404.5 9Q355 -11 291 -11Z" glyph-name="Scaron" horiz-adv-x="572" unicode="&#352;" /><glyph d="M276 -264Q227 -264 188 -248.5Q149 -233 120 -207L213 -141Q228 -155 245 -162.5Q262 -170 287 -170Q307 -170 318 -163.5Q329 -157 329 -147Q329 -126 285 -126H226V-6Q146 5 92 41Q38 77 -2 122L151 242Q177 199 213.5 176Q250 153 291 153Q331 153 354 174.5Q377 196 377 223Q377 240 366 251.5Q355 263 336 272Q317 281 293 288Q269 295 242 303Q206 313 169 327.5Q132 342 101.5 366Q71 390 52 426.5Q33 463 33 517Q33 565 51.5 606Q70 647 103.5 677Q137 707 184 724Q231 741 287 741Q335 741 374 731.5Q413 722 444.5 706.5Q476 691 501 670Q526 649 547 625L407 518Q387 551 356 570Q325 589 288 589Q250 589 229.5 571.5Q209 554 209 528Q209 511 220 499.5Q231 488 249.5 479Q268 470 292.5 462.5Q317 455 344 447Q381 436 419 420.5Q457 405 488 380.5Q519 356 538.5 319Q558 282 558 228Q558 185 543 145Q528 105 499 73Q470 41 428 19.5Q386 -2 332 -8V-50Q382 -52 412.5 -76.5Q443 -101 443 -145Q443 -171 431 -193Q419 -215 397 -230.5Q375 -246 344 -255Q313 -264 276 -264Z" glyph-name="Scedilla" horiz-adv-x="572" unicode="&#350;" /><glyph d="M231 944H342L461 767H332L285 842L239 767H112ZM291 -11Q236 -11 192.5 0Q149 11 113.5 29Q78 47 50 71Q22 95 -2 122L151 242Q177 199 213.5 176Q250 153 291 153Q331 153 354 174.5Q377 196 377 223Q377 240 366 251.5Q355 263 336 272Q317 281 293 288Q269 295 242 303Q206 313 169 327.5Q132 342 101.5 366Q71 390 52 426.5Q33 463 33 517Q33 565 51.5 606Q70 647 103.5 677Q137 707 184 724Q231 741 287 741Q335 741 374 731.5Q413 722 444.5 706.5Q476 691 501 670Q526 649 547 625L407 518Q387 551 356 570Q325 589 288 589Q250 589 229.5 571.5Q209 554 209 528Q209 511 220 499.5Q231 488 249.5 479Q268 470 292.5 462.5Q317 455 344 447Q381 436 419 420.5Q457 405 488 380.5Q519 356 538.5 319Q558 282 558 228Q558 181 540 138Q522 95 488 62Q454 29 404.5 9Q355 -11 291 -11Z" glyph-name="Scircumflex" horiz-adv-x="572" unicode="&#348;" /><glyph d="M291 -11Q236 -11 192.5 0Q149 11 113.5 29Q78 47 50 71Q22 95 -2 122L151 242Q177 199 213.5 176Q250 153 291 153Q331 153 354 174.5Q377 196 377 223Q377 240 366 251.5Q355 263 336 272Q317 281 293 288Q269 295 242 303Q206 313 169 327.5Q132 342 101.5 366Q71 390 52 426.5Q33 463 33 517Q33 565 51.5 606Q70 647 103.5 677Q137 707 184 724Q231 741 287 741Q335 741 374 731.5Q413 722 444.5 706.5Q476 691 501 670Q526 649 547 625L407 518Q387 551 356 570Q325 589 288 589Q250 589 229.5 571.5Q209 554 209 528Q209 511 220 499.5Q231 488 249.5 479Q268 470 292.5 462.5Q317 455 344 447Q381 436 419 420.5Q457 405 488 380.5Q519 356 538.5 319Q558 282 558 228Q558 181 540 138Q522 95 488 62Q454 29 404.5 9Q355 -11 291 -11ZM167 -259 207 -36H372L295 -259Z" glyph-name="Scommaaccent" horiz-adv-x="572" unicode="&#536;" /><glyph d="M200 567H18V730H550V567H370V0H200Z" glyph-name="T" horiz-adv-x="567" unicode="T" /><glyph d="M83 412H206V567H24V730H556V567H376V412H495V249H376V0H206V249H83Z" glyph-name="Tbar" horiz-adv-x="577" unicode="&#358;" /><glyph d="M115 941H243L289 866L336 941H464L345 764H234ZM206 567H24V730H556V567H376V0H206Z" glyph-name="Tcaron" horiz-adv-x="577" unicode="&#356;" /><glyph d="M206 567H24V730H556V567H376V0H206ZM167 -255 207 -32H372L295 -255Z" glyph-name="Tcommaaccent" horiz-adv-x="577" unicode="&#354;" /><glyph d="M200 453V287H274Q310 287 333.5 310Q357 333 357 370Q357 407 333.5 430Q310 453 274 453ZM25 730H200V614H279Q337 614 384 594.5Q431 575 464 541.5Q497 508 514.5 464Q532 420 532 371Q532 321 514.5 276.5Q497 232 464 198.5Q431 165 384 145.5Q337 126 279 126H200V0H25Z" glyph-name="Thorn" horiz-adv-x="548" unicode="&#222;" /><glyph d="M298 -10Q236 -10 185.5 8Q135 26 99.5 61Q64 96 44.5 146.5Q25 197 25 263V730H200V258Q200 208 226.5 178.5Q253 149 298 149Q343 149 370 178.5Q397 208 397 258V730H571V263Q571 197 551.5 146.5Q532 96 496.5 61Q461 26 410.5 8Q360 -10 298 -10Z" glyph-name="U" horiz-adv-x="596" unicode="U" /><glyph d="M298 -10Q236 -10 185.5 8Q135 26 99.5 61Q64 96 44.5 146.5Q25 197 25 263V730H200V258Q200 208 226.5 178.5Q253 149 298 149Q343 149 370 178.5Q397 208 397 258V730H571V263Q571 197 551.5 146.5Q532 96 496.5 61Q461 26 410.5 8Q360 -10 298 -10ZM341 941H509L354 764H229Z" glyph-name="Uacute" horiz-adv-x="596" unicode="&#218;" /><glyph d="M299 758Q216 758 176 804.5Q136 851 136 936H243Q243 897 257 879.5Q271 862 299 861Q328 862 342 879.5Q356 897 356 936H464Q464 851 420.5 804.5Q377 758 299 758ZM298 -10Q236 -10 185.5 8Q135 26 99.5 61Q64 96 44.5 146.5Q25 197 25 263V730H200V258Q200 208 226.5 178.5Q253 149 298 149Q343 149 370 178.5Q397 208 397 258V730H571V263Q571 197 551.5 146.5Q532 96 496.5 61Q461 26 410.5 8Q360 -10 298 -10Z" glyph-name="Ubreve" horiz-adv-x="596" unicode="&#364;" /><glyph d="M243 941H354L473 764H344L297 839L251 764H124ZM298 -10Q236 -10 185.5 8Q135 26 99.5 61Q64 96 44.5 146.5Q25 197 25 263V730H200V258Q200 208 226.5 178.5Q253 149 298 149Q343 149 370 178.5Q397 208 397 258V730H571V263Q571 197 551.5 146.5Q532 96 496.5 61Q461 26 410.5 8Q360 -10 298 -10Z" glyph-name="Ucircumflex" horiz-adv-x="596" unicode="&#219;" /><glyph d="M298 -10Q236 -10 185.5 8Q135 26 99.5 61Q64 96 44.5 146.5Q25 197 25 263V730H200V258Q200 208 226.5 178.5Q253 149 298 149Q343 149 370 178.5Q397 208 397 258V730H571V263Q571 197 551.5 146.5Q532 96 496.5 61Q461 26 410.5 8Q360 -10 298 -10ZM116 932H283V764H116ZM317 932H484V764H317Z" glyph-name="Udieresis" horiz-adv-x="596" unicode="&#220;" /><glyph d="M86 941H254L366 764H241ZM298 -10Q236 -10 185.5 8Q135 26 99.5 61Q64 96 44.5 146.5Q25 197 25 263V730H200V258Q200 208 226.5 178.5Q253 149 298 149Q343 149 370 178.5Q397 208 397 258V730H571V263Q571 197 551.5 146.5Q532 96 496.5 61Q461 26 410.5 8Q360 -10 298 -10Z" glyph-name="Ugrave" horiz-adv-x="596" unicode="&#217;" /><glyph d="M419 941H568L433 764H327ZM233 941H383L248 764H142ZM298 -10Q236 -10 185.5 8Q135 26 99.5 61Q64 96 44.5 146.5Q25 197 25 263V730H200V258Q200 208 226.5 178.5Q253 149 298 149Q343 149 370 178.5Q397 208 397 258V730H571V263Q571 197 551.5 146.5Q532 96 496.5 61Q461 26 410.5 8Q360 -10 298 -10Z" glyph-name="Uhungarumlaut" horiz-adv-x="596" unicode="&#368;" /><glyph d="M158 877H436V764H158ZM298 -10Q236 -10 185.5 8Q135 26 99.5 61Q64 96 44.5 146.5Q25 197 25 263V730H200V258Q200 208 226.5 178.5Q253 149 298 149Q343 149 370 178.5Q397 208 397 258V730H571V263Q571 197 551.5 146.5Q532 96 496.5 61Q461 26 410.5 8Q360 -10 298 -10Z" glyph-name="Umacron" horiz-adv-x="596" unicode="&#362;" /><glyph d="M309 -229Q239 -229 197.5 -196Q156 -163 156 -111Q156 -83 169 -56.5Q182 -30 217 -1Q127 19 76 86.5Q25 154 25 263V730H200V258Q200 208 226.5 178.5Q253 149 298 149Q343 149 370 178.5Q397 208 397 258V730H571V263Q571 163 528 99Q485 35 410 8Q367 -22 341.5 -40.5Q316 -59 302 -70.5Q288 -82 283.5 -89.5Q279 -97 279 -104Q279 -117 288 -122Q297 -127 310 -127Q327 -127 339.5 -117.5Q352 -108 362 -99L465 -159Q437 -189 396 -209Q355 -229 309 -229Z" glyph-name="Uogonek" horiz-adv-x="596" unicode="&#370;" /><glyph d="M298 -10Q236 -10 185.5 8Q135 26 99.5 61Q64 96 44.5 146.5Q25 197 25 263V730H200V258Q200 208 226.5 178.5Q253 149 298 149Q343 149 370 178.5Q397 208 397 258V730H571V263Q571 197 551.5 146.5Q532 96 496.5 61Q461 26 410.5 8Q360 -10 298 -10ZM297 826Q311 826 321 835.5Q331 845 331 859Q331 873 321 882.5Q311 892 297 892Q284 892 274.5 882.5Q265 873 265 859Q265 845 274.5 835.5Q284 826 297 826ZM297 734Q271 734 248.5 744Q226 754 209 770.5Q192 787 182 809.5Q172 832 172 858Q172 885 182 908Q192 931 209 948Q226 965 248.5 975Q271 985 297 985Q323 985 346 975Q369 965 386 948Q403 931 413 908Q423 885 423 858Q423 832 413 809.5Q403 787 386 770.5Q369 754 346 744Q323 734 297 734Z" glyph-name="Uring" horiz-adv-x="596" unicode="&#366;" /><glyph d="M120 764Q120 911 228 911Q252 911 270 904.5Q288 898 302 890Q316 882 327.5 876Q339 870 350 870Q371 870 371 907H467Q467 840 442 800Q417 760 359 760Q330 760 312 767.5Q294 775 280 783Q268 789 257.5 794.5Q247 800 236 800Q224 800 218.5 792Q213 784 213 764ZM298 -10Q236 -10 185.5 8Q135 26 99.5 61Q64 96 44.5 146.5Q25 197 25 263V730H200V258Q200 208 226.5 178.5Q253 149 298 149Q343 149 370 178.5Q397 208 397 258V730H571V263Q571 197 551.5 146.5Q532 96 496.5 61Q461 26 410.5 8Q360 -10 298 -10Z" glyph-name="Utilde" horiz-adv-x="596" unicode="&#360;" /><glyph d="M338 -10Q267 -10 209 10.5Q151 31 110 71Q69 111 47 169.5Q25 228 25 303V730H200V306Q200 231 237.5 191Q275 151 338 151Q401 151 439 191Q477 231 477 306V730H652V303Q652 228 629.5 169.5Q607 111 566 71Q525 31 467 10.5Q409 -10 338 -10ZM230 730H325V557H230ZM354 730H447V557H354Z" glyph-name="Uumlaut" horiz-adv-x="677" unicode="&#61816;" /><glyph d="M2 730H183L328 274L469 730H648L418 0H238Z" glyph-name="V" horiz-adv-x="650" unicode="V" /><glyph d="M2 730H179L293 286L417 730H590L715 284L828 730H1002L801 0H629L503 452L379 0H203Z" glyph-name="W" horiz-adv-x="1004" unicode="W" /><glyph d="M551 941H719L564 764H439ZM2 730H179L293 286L417 730H590L715 284L828 730H1002L801 0H629L503 452L379 0H203Z" glyph-name="Wacute" horiz-adv-x="1004" unicode="&#7810;" /><glyph d="M447 941H558L677 764H548L501 839L455 764H328ZM2 730H179L293 286L417 730H590L715 284L828 730H1002L801 0H629L503 452L379 0H203Z" glyph-name="Wcircumflex" horiz-adv-x="1004" unicode="&#372;" /><glyph d="M519 932H686V764H519ZM318 932H485V764H318ZM2 730H179L293 286L417 730H590L715 284L828 730H1002L801 0H629L503 452L379 0H203Z" glyph-name="Wdieresis" horiz-adv-x="1004" unicode="&#7812;" /><glyph d="M283 941H451L563 764H438ZM2 730H179L293 286L417 730H590L715 284L828 730H1002L801 0H629L503 452L379 0H203Z" glyph-name="Wgrave" horiz-adv-x="1004" unicode="&#7808;" /><glyph d="M314 215 188 0H-3L216 373L7 730H195L315 527L435 730H623L413 372L631 0H441Z" glyph-name="X" horiz-adv-x="628" unicode="X" /><glyph d="M226 342 -2 730H187L314 510L440 730H628L401 340V0H226Z" glyph-name="Y" horiz-adv-x="622" unicode="Y" /><glyph d="M359 941H527L372 764H247ZM226 342 -2 730H187L314 510L440 730H628L401 340V0H226Z" glyph-name="Yacute" horiz-adv-x="622" unicode="&#221;" /><glyph d="M259 941H370L489 764H360L313 839L267 764H140ZM226 342 -2 730H187L314 510L440 730H628L401 340V0H226Z" glyph-name="Ycircumflex" horiz-adv-x="622" unicode="&#374;" /><glyph d="M330 932H497V764H330ZM129 932H296V764H129ZM226 342 -2 730H187L314 510L440 730H628L401 340V0H226Z" glyph-name="Ydieresis" horiz-adv-x="622" unicode="&#376;" /><glyph d="M94 941H262L374 764H249ZM226 342 -2 730H187L314 510L440 730H628L401 340V0H226Z" glyph-name="Ygrave" horiz-adv-x="622" unicode="&#7922;" /><glyph d="M23 161 304 570H28V730H506V574L224 162H506V0H23Z" glyph-name="Z" horiz-adv-x="528" unicode="Z" /><glyph d="M306 941H474L319 764H194ZM23 161 304 570H28V730H506V574L224 162H506V0H23Z" glyph-name="Zacute" horiz-adv-x="528" unicode="&#377;" /><glyph d="M91 941H219L265 866L312 941H440L321 764H210ZM23 161 304 570H28V730H506V574L224 162H506V0H23Z" glyph-name="Zcaron" horiz-adv-x="528" unicode="&#381;" /><glyph d="M182 936H354V764H182ZM23 161 304 570H28V730H506V574L224 162H506V0H23Z" glyph-name="Zdotaccent" horiz-adv-x="528" unicode="&#379;" /><glyph d="M282 147Q325 147 352.5 177Q380 207 380 251Q380 295 352.5 325Q325 355 282 355Q239 355 210.5 325.5Q182 296 182 251Q182 206 210.5 176.5Q239 147 282 147ZM238 -10Q195 -10 155 7.5Q115 25 83.5 58.5Q52 92 33 140.5Q14 189 14 250Q14 310 33 358.5Q52 407 83.5 440.5Q115 474 156 492Q197 510 241 510Q288 510 320.5 492.5Q353 475 374 444V500H544V0H374V59Q352 26 318 8Q284 -10 238 -10Z" glyph-name="a" horiz-adv-x="566" unicode="a" /><glyph d="M207 122Q231 122 253.5 132Q276 142 294 157Q312 172 324 190.5Q336 209 339 227L341 231Q331 218 310.5 209Q290 200 245 189Q203 180 188.5 169.5Q174 159 174 145Q174 132 183.5 127Q193 122 207 122ZM183 -10Q102 -10 57.5 27.5Q13 65 13 133Q13 168 25 194.5Q37 221 57 240.5Q77 260 104.5 273Q132 286 162 294Q189 301 218 306.5Q247 312 270.5 318Q294 324 309 331.5Q324 339 324 350Q324 363 311.5 372.5Q299 382 264 382Q219 382 199 362.5Q179 343 179 318V315H32V317Q32 413 92.5 461.5Q153 510 264 510Q304 510 344 502Q384 494 415.5 475Q447 456 467 424Q487 392 487 345V0H326V43Q302 21 266.5 5.5Q231 -10 183 -10Z" glyph-name="a.alt" horiz-adv-x="510" unicode="&#58560;" /><glyph d="M287 351 245 215H328ZM204 596H371L567 0H394L373 69H199L178 0H7Z" glyph-name="a.smcp" horiz-adv-x="574" unicode="&#57857;" /><glyph d="M314 715H482L327 538H202ZM282 147Q325 147 352.5 177Q380 207 380 251Q380 295 352.5 325Q325 355 282 355Q239 355 210.5 325.5Q182 296 182 251Q182 206 210.5 176.5Q239 147 282 147ZM238 -10Q195 -10 155 7.5Q115 25 83.5 58.5Q52 92 33 140.5Q14 189 14 250Q14 310 33 358.5Q52 407 83.5 440.5Q115 474 156 492Q197 510 241 510Q288 510 320.5 492.5Q353 475 374 444V500H544V0H374V59Q352 26 318 8Q284 -10 238 -10Z" glyph-name="aacute" horiz-adv-x="566" unicode="&#225;" /><glyph d="M207 122Q231 122 253.5 132Q276 142 294 157Q312 172 324 190.5Q336 209 339 227L341 231Q331 218 310.5 209Q290 200 245 189Q203 180 188.5 169.5Q174 159 174 145Q174 132 183.5 127Q193 122 207 122ZM318 715H486L331 538H206ZM183 -10Q102 -10 57.5 27.5Q13 65 13 133Q13 168 25 194.5Q37 221 57 240.5Q77 260 104.5 273Q132 286 162 294Q189 301 218 306.5Q247 312 270.5 318Q294 324 309 331.5Q324 339 324 350Q324 363 311.5 372.5Q299 382 264 382Q219 382 199 362.5Q179 343 179 318V315H32V317Q32 413 92.5 461.5Q153 510 264 510Q304 510 344 502Q384 494 415.5 475Q447 456 467 424Q487 392 487 345V0H326V43Q302 21 266.5 5.5Q231 -10 183 -10Z" glyph-name="aacute.alt" horiz-adv-x="510" unicode="&#59537;" /><glyph d="M287 351 245 215H328ZM337 807H505L350 630H225ZM204 596H371L567 0H394L373 69H199L178 0H7Z" glyph-name="aacute.smcp" horiz-adv-x="574" unicode="&#57889;" /><glyph d="M282 147Q325 147 352.5 177Q380 207 380 251Q380 295 352.5 325Q325 355 282 355Q239 355 210.5 325.5Q182 296 182 251Q182 206 210.5 176.5Q239 147 282 147ZM291 534Q208 534 168 580.5Q128 627 128 712H235Q235 673 249 655.5Q263 638 291 637Q320 638 334 655.5Q348 673 348 712H456Q456 627 412.5 580.5Q369 534 291 534ZM238 -10Q195 -10 155 7.5Q115 25 83.5 58.5Q52 92 33 140.5Q14 189 14 250Q14 310 33 358.5Q52 407 83.5 440.5Q115 474 156 492Q197 510 241 510Q288 510 320.5 492.5Q353 475 374 444V500H544V0H374V59Q352 26 318 8Q284 -10 238 -10Z" glyph-name="abreve" horiz-adv-x="566" unicode="&#259;" /><glyph d="M207 122Q231 122 253.5 132Q276 142 294 157Q312 172 324 190.5Q336 209 339 227L341 231Q331 218 310.5 209Q290 200 245 189Q203 180 188.5 169.5Q174 159 174 145Q174 132 183.5 127Q193 122 207 122ZM264 535Q181 535 141 581.5Q101 628 101 713H208Q208 674 222 656.5Q236 639 264 638Q293 639 307 656.5Q321 674 321 713H429Q429 628 385.5 581.5Q342 535 264 535ZM183 -10Q102 -10 57.5 27.5Q13 65 13 133Q13 168 25 194.5Q37 221 57 240.5Q77 260 104.5 273Q132 286 162 294Q189 301 218 306.5Q247 312 270.5 318Q294 324 309 331.5Q324 339 324 350Q324 363 311.5 372.5Q299 382 264 382Q219 382 199 362.5Q179 343 179 318V315H32V317Q32 413 92.5 461.5Q153 510 264 510Q304 510 344 502Q384 494 415.5 475Q447 456 467 424Q487 392 487 345V0H326V43Q302 21 266.5 5.5Q231 -10 183 -10Z" glyph-name="abreve.alt" horiz-adv-x="510" unicode="&#59542;" /><glyph d="M287 351 245 215H328ZM287 623Q204 623 164 669.5Q124 716 124 801H231Q231 762 245 744.5Q259 727 287 726Q316 727 330 744.5Q344 762 344 801H452Q452 716 408.5 669.5Q365 623 287 623ZM204 596H371L567 0H394L373 69H199L178 0H7Z" glyph-name="abreve.smcp" horiz-adv-x="574" unicode="&#57897;" /><glyph d="M282 147Q325 147 352.5 177Q380 207 380 251Q380 295 352.5 325Q325 355 282 355Q239 355 210.5 325.5Q182 296 182 251Q182 206 210.5 176.5Q239 147 282 147ZM246 715H357L476 538H347L300 613L254 538H127ZM238 -10Q195 -10 155 7.5Q115 25 83.5 58.5Q52 92 33 140.5Q14 189 14 250Q14 310 33 358.5Q52 407 83.5 440.5Q115 474 156 492Q197 510 241 510Q288 510 320.5 492.5Q353 475 374 444V500H544V0H374V59Q352 26 318 8Q284 -10 238 -10Z" glyph-name="acircumflex" horiz-adv-x="566" unicode="&#226;" /><glyph d="M207 122Q231 122 253.5 132Q276 142 294 157Q312 172 324 190.5Q336 209 339 227L341 231Q331 218 310.5 209Q290 200 245 189Q203 180 188.5 169.5Q174 159 174 145Q174 132 183.5 127Q193 122 207 122ZM208 714H319L438 537H309L262 612L216 537H89ZM183 -10Q102 -10 57.5 27.5Q13 65 13 133Q13 168 25 194.5Q37 221 57 240.5Q77 260 104.5 273Q132 286 162 294Q189 301 218 306.5Q247 312 270.5 318Q294 324 309 331.5Q324 339 324 350Q324 363 311.5 372.5Q299 382 264 382Q219 382 199 362.5Q179 343 179 318V315H32V317Q32 413 92.5 461.5Q153 510 264 510Q304 510 344 502Q384 494 415.5 475Q447 456 467 424Q487 392 487 345V0H326V43Q302 21 266.5 5.5Q231 -10 183 -10Z" glyph-name="acircumflex.alt" horiz-adv-x="510" unicode="&#59539;" /><glyph d="M287 351 245 215H328ZM233 807H344L463 630H334L287 705L241 630H114ZM204 596H371L567 0H394L373 69H199L178 0H7Z" glyph-name="acircumflex.smcp" horiz-adv-x="574" unicode="&#57891;" /><glyph d="M193 720H361L206 543H81Z" glyph-name="acute" horiz-adv-x="452" unicode="&#180;" /><glyph d="M114 706H281V538H114ZM315 706H482V538H315ZM282 147Q325 147 352.5 177Q380 207 380 251Q380 295 352.5 325Q325 355 282 355Q239 355 210.5 325.5Q182 296 182 251Q182 206 210.5 176.5Q239 147 282 147ZM238 -10Q195 -10 155 7.5Q115 25 83.5 58.5Q52 92 33 140.5Q14 189 14 250Q14 310 33 358.5Q52 407 83.5 440.5Q115 474 156 492Q197 510 241 510Q288 510 320.5 492.5Q353 475 374 444V500H544V0H374V59Q352 26 318 8Q284 -10 238 -10Z" glyph-name="adieresis" horiz-adv-x="566" unicode="&#228;" /><glyph d="M207 122Q231 122 253.5 132Q276 142 294 157Q312 172 324 190.5Q336 209 339 227L341 231Q331 218 310.5 209Q290 200 245 189Q203 180 188.5 169.5Q174 159 174 145Q174 132 183.5 127Q193 122 207 122ZM279 706H446V538H279ZM78 706H245V538H78ZM183 -10Q102 -10 57.5 27.5Q13 65 13 133Q13 168 25 194.5Q37 221 57 240.5Q77 260 104.5 273Q132 286 162 294Q189 301 218 306.5Q247 312 270.5 318Q294 324 309 331.5Q324 339 324 350Q324 363 311.5 372.5Q299 382 264 382Q219 382 199 362.5Q179 343 179 318V315H32V317Q32 413 92.5 461.5Q153 510 264 510Q304 510 344 502Q384 494 415.5 475Q447 456 467 424Q487 392 487 345V0H326V43Q302 21 266.5 5.5Q231 -10 183 -10Z" glyph-name="adieresis.alt" horiz-adv-x="510" unicode="&#59540;" /><glyph d="M287 351 245 215H328ZM305 798H472V630H305ZM104 798H271V630H104ZM204 596H371L567 0H394L373 69H199L178 0H7Z" glyph-name="adieresis.smcp" horiz-adv-x="574" unicode="&#57892;" /><glyph d="M212 121Q234 121 253.5 129Q273 137 288.5 150Q304 163 315 177.5Q326 192 331 206V218Q320 205 247 187Q206 178 191.5 168.5Q177 159 177 145Q177 134 185.5 127.5Q194 121 212 121ZM594 374Q561 374 536 359Q511 344 497 317H688Q661 374 594 374ZM595 -10Q529 -10 479 12.5Q429 35 395 73Q366 35 317.5 12.5Q269 -10 201 -10Q109 -10 61.5 28.5Q14 67 14 135Q14 170 26 196Q38 222 58 241Q78 260 105.5 273Q133 286 163 294Q190 301 219 306.5Q248 312 271.5 318Q295 324 310 331.5Q325 339 325 350Q325 362 312.5 372Q300 382 265 382Q220 382 200 362.5Q180 343 180 318V315H33V317Q33 413 93.5 461.5Q154 510 265 510Q312 510 356.5 497.5Q401 485 433 458Q465 482 505.5 496Q546 510 593 510Q650 510 698.5 490Q747 470 781.5 435.5Q816 401 835.5 353.5Q855 306 855 251V197H492Q504 163 531.5 145Q559 127 597 127Q632 127 658 144Q684 161 698 187L836 128Q820 99 796.5 73.5Q773 48 743 29.5Q713 11 676 0.5Q639 -10 595 -10Z" glyph-name="ae" horiz-adv-x="868" unicode="&#230;" /><glyph d="M293 218H370L347 343ZM277 596H767V438H504L515 377H767V221H543L554 158H767V0H409L397 65H227L199 0H6Z" glyph-name="ae.smcp" horiz-adv-x="787" unicode="&#57905;" /><glyph d="M212 121Q234 121 253.5 129Q273 137 288.5 150Q304 163 315 177.5Q326 192 331 206V218Q320 205 247 187Q206 178 191.5 168.5Q177 159 177 145Q177 134 185.5 127.5Q194 121 212 121ZM594 374Q561 374 536 359Q511 344 497 317H688Q661 374 594 374ZM481 715H649L494 538H369ZM595 -10Q529 -10 479 12.5Q429 35 395 73Q366 35 317.5 12.5Q269 -10 201 -10Q109 -10 61.5 28.5Q14 67 14 135Q14 170 26 196Q38 222 58 241Q78 260 105.5 273Q133 286 163 294Q190 301 219 306.5Q248 312 271.5 318Q295 324 310 331.5Q325 339 325 350Q325 362 312.5 372Q300 382 265 382Q220 382 200 362.5Q180 343 180 318V315H33V317Q33 413 93.5 461.5Q154 510 265 510Q312 510 356.5 497.5Q401 485 433 458Q465 482 505.5 496Q546 510 593 510Q650 510 698.5 490Q747 470 781.5 435.5Q816 401 835.5 353.5Q855 306 855 251V197H492Q504 163 531.5 145Q559 127 597 127Q632 127 658 144Q684 161 698 187L836 128Q820 99 796.5 73.5Q773 48 743 29.5Q713 11 676 0.5Q639 -10 595 -10Z" glyph-name="aeacute" horiz-adv-x="868" unicode="&#509;" /><glyph d="M293 218H370L347 343ZM510 807H678L523 630H398ZM277 596H767V438H504L515 377H767V221H543L554 158H767V0H409L397 65H227L199 0H6Z" glyph-name="aeacute.smcp" horiz-adv-x="787" unicode="&#57906;" /><glyph d="M75 715H243L355 538H230ZM282 147Q325 147 352.5 177Q380 207 380 251Q380 295 352.5 325Q325 355 282 355Q239 355 210.5 325.5Q182 296 182 251Q182 206 210.5 176.5Q239 147 282 147ZM238 -10Q195 -10 155 7.5Q115 25 83.5 58.5Q52 92 33 140.5Q14 189 14 250Q14 310 33 358.5Q52 407 83.5 440.5Q115 474 156 492Q197 510 241 510Q288 510 320.5 492.5Q353 475 374 444V500H544V0H374V59Q352 26 318 8Q284 -10 238 -10Z" glyph-name="agrave" horiz-adv-x="566" unicode="&#224;" /><glyph d="M207 122Q231 122 253.5 132Q276 142 294 157Q312 172 324 190.5Q336 209 339 227L341 231Q331 218 310.5 209Q290 200 245 189Q203 180 188.5 169.5Q174 159 174 145Q174 132 183.5 127Q193 122 207 122ZM54 715H222L334 538H209ZM183 -10Q102 -10 57.5 27.5Q13 65 13 133Q13 168 25 194.5Q37 221 57 240.5Q77 260 104.5 273Q132 286 162 294Q189 301 218 306.5Q247 312 270.5 318Q294 324 309 331.5Q324 339 324 350Q324 363 311.5 372.5Q299 382 264 382Q219 382 199 362.5Q179 343 179 318V315H32V317Q32 413 92.5 461.5Q153 510 264 510Q304 510 344 502Q384 494 415.5 475Q447 456 467 424Q487 392 487 345V0H326V43Q302 21 266.5 5.5Q231 -10 183 -10Z" glyph-name="agrave.alt" horiz-adv-x="510" unicode="&#59538;" /><glyph d="M287 351 245 215H328ZM71 807H239L351 630H226ZM204 596H371L567 0H394L373 69H199L178 0H7Z" glyph-name="agrave.smcp" horiz-adv-x="574" unicode="&#57890;" /><glyph d="M215 -264Q158 -264 119.5 -249.5Q81 -235 54 -208L146 -140Q172 -170 220 -170Q240 -170 251 -164Q262 -158 262 -147Q262 -126 218 -126H181V-50H232Q300 -50 338 -76Q376 -102 376 -148Q376 -174 364 -195.5Q352 -217 330.5 -232Q309 -247 279.5 -255.5Q250 -264 215 -264Z" glyph-name="altcedilla" horiz-adv-x="452" unicode="&#58390;" /><glyph d="M158 651H436V538H158ZM282 147Q325 147 352.5 177Q380 207 380 251Q380 295 352.5 325Q325 355 282 355Q239 355 210.5 325.5Q182 296 182 251Q182 206 210.5 176.5Q239 147 282 147ZM238 -10Q195 -10 155 7.5Q115 25 83.5 58.5Q52 92 33 140.5Q14 189 14 250Q14 310 33 358.5Q52 407 83.5 440.5Q115 474 156 492Q197 510 241 510Q288 510 320.5 492.5Q353 475 374 444V500H544V0H374V59Q352 26 318 8Q284 -10 238 -10Z" glyph-name="amacron" horiz-adv-x="566" unicode="&#257;" /><glyph d="M207 122Q231 122 253.5 132Q276 142 294 157Q312 172 324 190.5Q336 209 339 227L341 231Q331 218 310.5 209Q290 200 245 189Q203 180 188.5 169.5Q174 159 174 145Q174 132 183.5 127Q193 122 207 122ZM123 656H401V543H123ZM183 -10Q102 -10 57.5 27.5Q13 65 13 133Q13 168 25 194.5Q37 221 57 240.5Q77 260 104.5 273Q132 286 162 294Q189 301 218 306.5Q247 312 270.5 318Q294 324 309 331.5Q324 339 324 350Q324 363 311.5 372.5Q299 382 264 382Q219 382 199 362.5Q179 343 179 318V315H32V317Q32 413 92.5 461.5Q153 510 264 510Q304 510 344 502Q384 494 415.5 475Q447 456 467 424Q487 392 487 345V0H326V43Q302 21 266.5 5.5Q231 -10 183 -10Z" glyph-name="amacron.alt" horiz-adv-x="510" unicode="&#59541;" /><glyph d="M245 215H329L287 351ZM149 743H427V630H149ZM204 596H371L567 0H394L373 69H199L178 0H7Z" glyph-name="amacron.smcp" horiz-adv-x="574" unicode="&#57896;" /><glyph d="M304 137Q343 137 381 152L226 307Q205 292 194.5 273.5Q184 255 184 229Q184 190 216 163.5Q248 137 304 137ZM493 41Q450 16 402.5 2.5Q355 -11 304 -11Q224 -11 169 9.5Q114 30 79.5 63.5Q45 97 29.5 140Q14 183 14 228Q14 292 45.5 342Q77 392 126 425Q110 451 101.5 479Q93 507 93 539Q93 582 108.5 619Q124 656 153 683Q182 710 223 725Q264 740 315 740Q362 740 398.5 729.5Q435 719 462.5 701Q490 683 509.5 659Q529 635 543 608L375 533Q370 555 356 569.5Q342 584 319 584Q299 584 285 571.5Q271 559 271 539Q271 524 276 511Q281 498 295.5 480.5Q310 463 335 437Q360 411 399 371L511 258Q547 308 562 364H448V523H735V446Q735 371 704.5 293.5Q674 216 620 150L768 0H535Z" glyph-name="ampersand" horiz-adv-x="759" unicode="&amp;" /><glyph d="M269 134Q278 134 287 135.5Q296 137 306 139L242 203Q232 212 222.5 221.5Q213 231 204 240Q181 220 181 192Q181 168 204 151Q227 134 269 134ZM418 27Q383 10 346 1Q309 -8 270 -8Q200 -8 151.5 8Q103 24 72.5 50.5Q42 77 28 112.5Q14 148 14 187Q14 241 41 283.5Q68 326 111 352Q101 371 95.5 390Q90 409 90 430Q90 467 103 498.5Q116 530 141 553.5Q166 577 201 590.5Q236 604 281 604Q352 604 398 577Q444 550 473 506L324 425Q314 457 291 457Q279 457 271.5 450.5Q264 444 264 433Q264 425 268 417Q272 409 283.5 395Q295 381 316.5 359Q338 337 373 301L440 234Q464 266 474 297H399V446H655V374Q655 311 626.5 245.5Q598 180 548 126L671 0H446Z" glyph-name="ampersand.smcp" horiz-adv-x="677" unicode="&#58369;" /><glyph d="M2 250 230 730H409L181 250L409 -230H230Z" glyph-name="anglebracketleft" horiz-adv-x="408" unicode="&#12296;" /><glyph d="M2 360 230 840H409L181 360L409 -120H230Z" glyph-name="anglebracketleft.cap" horiz-adv-x="408" unicode="&#58519;" /><glyph d="M187 -98 2 293 189 686H365L178 293L364 -98Z" glyph-name="anglebracketleft.smcp" horiz-adv-x="366" unicode="&#58527;" /><glyph d="M1 -230 229 250 1 730H180L408 250L180 -230Z" glyph-name="anglebracketright" horiz-adv-x="408" unicode="&#12297;" /><glyph d="M1 -120 229 360 1 840H180L408 360L180 -120Z" glyph-name="anglebracketright.cap" horiz-adv-x="408" unicode="&#58520;" /><glyph d="M3 -98 189 293 2 686H178L365 293L180 -98Z" glyph-name="anglebracketright.smcp" horiz-adv-x="366" unicode="&#58512;" /><glyph d="M204 596H371L567 0H394L287 350L179 0H7Z" glyph-name="anocross.smcp" horiz-adv-x="574" unicode="&#57888;" /><glyph d="M282 147Q325 147 352.5 177Q380 207 380 251Q380 295 352.5 325Q325 355 282 355Q239 355 210.5 325.5Q182 296 182 251Q182 206 210.5 176.5Q239 147 282 147ZM238 -10Q195 -10 155 7.5Q115 25 83.5 58.5Q52 92 33 140.5Q14 189 14 250Q14 310 33 358.5Q52 407 83.5 440.5Q115 474 156 492Q197 510 241 510Q288 510 320.5 492.5Q353 475 374 444V500H544V0H539Q479 -44 458 -70.5Q437 -97 437 -111Q437 -124 445.5 -130.5Q454 -137 465 -137Q480 -137 492 -127Q504 -117 512 -107L615 -168Q588 -200 549.5 -222Q511 -244 460 -244Q425 -244 396.5 -235Q368 -226 348 -209.5Q328 -193 316.5 -170Q305 -147 305 -120Q304 -84 322 -53.5Q340 -23 374 8V59Q352 26 318 8Q284 -10 238 -10Z" glyph-name="aogonek" horiz-adv-x="566" unicode="&#261;" /><glyph d="M207 122Q231 122 253.5 132Q276 142 294 157Q312 172 324 190.5Q336 209 339 227L341 231Q331 218 310.5 209Q290 200 245 189Q203 180 188.5 169.5Q174 159 174 145Q174 132 183.5 127Q193 122 207 122ZM408 -244Q373 -244 344.5 -235Q316 -226 296 -209.5Q276 -193 264.5 -170Q253 -147 253 -120Q252 -83 271 -51.5Q290 -20 326 12V43Q302 21 266.5 5.5Q231 -10 183 -10Q102 -10 57.5 27.5Q13 65 13 133Q13 168 25 194.5Q37 221 57 240.5Q77 260 104.5 273Q132 286 162 294Q189 301 218 306.5Q247 312 270.5 318Q294 324 309 331.5Q324 339 324 350Q324 363 311.5 372.5Q299 382 264 382Q219 382 199 362.5Q179 343 179 318V315H32V317Q32 413 92.5 461.5Q153 510 264 510Q304 510 344 502Q384 494 415.5 475Q447 456 467 424Q487 392 487 345V2L489 1Q428 -43 406.5 -70Q385 -97 385 -111Q385 -124 393.5 -130.5Q402 -137 413 -137Q428 -137 440 -127Q452 -117 460 -107L563 -168Q536 -200 497.5 -222Q459 -244 408 -244Z" glyph-name="aogonek.alt" horiz-adv-x="510" unicode="&#59545;" /><glyph d="M287 351 245 215H328ZM204 596H371L566 1H567L566 0H565Q522 -30 496 -49Q470 -68 456 -79.5Q442 -91 437.5 -98.5Q433 -106 433 -113Q433 -126 442 -131Q451 -136 464 -136Q481 -136 493.5 -126.5Q506 -117 516 -108L619 -168Q591 -198 550 -218Q509 -238 463 -238Q393 -238 351.5 -205Q310 -172 310 -120Q310 -88 327 -58Q344 -28 392 6L373 69H199L178 0H7Z" glyph-name="aogonek.smcp" horiz-adv-x="574" unicode="&#57903;" /><glyph d="M23 335Q45 346 65.5 354Q86 362 117 362Q139 362 163 356Q187 350 211 343.5Q235 337 257 331Q279 325 299 325Q314 325 325.5 326.5Q337 328 348 331Q359 334 369.5 338Q380 342 393 348V211Q372 199 352 193.5Q332 188 299 188Q278 188 254 194Q230 200 206 206.5Q182 213 159 219Q136 225 117 225Q87 225 66.5 217Q46 209 23 198ZM23 507Q45 518 67 525.5Q89 533 120 533Q142 533 165.5 527Q189 521 211.5 514Q234 507 255.5 501Q277 495 297 495Q326 495 346.5 502Q367 509 393 520V383Q372 371 351 364.5Q330 358 297 358Q276 358 253 364Q230 370 206.5 377Q183 384 161 390Q139 396 120 396Q90 396 68 388.5Q46 381 23 370Z" glyph-name="approxequal" horiz-adv-x="415" unicode="&#8776;" /><glyph d="M284 622Q298 622 308 631.5Q318 641 318 655Q318 669 308 678.5Q298 688 284 688Q271 688 261.5 678.5Q252 669 252 655Q252 641 261.5 631.5Q271 622 284 622ZM282 147Q325 147 352.5 177Q380 207 380 251Q380 295 352.5 325Q325 355 282 355Q239 355 210.5 325.5Q182 296 182 251Q182 206 210.5 176.5Q239 147 282 147ZM284 530Q258 530 235.5 540Q213 550 196 566.5Q179 583 169 605.5Q159 628 159 654Q159 681 169 704Q179 727 196 744Q213 761 235.5 771Q258 781 284 781Q310 781 333 771Q356 761 373 744Q390 727 400 704Q410 681 410 654Q410 628 400 605.5Q390 583 373 566.5Q356 550 333 540Q310 530 284 530ZM238 -10Q195 -10 155 7.5Q115 25 83.5 58.5Q52 92 33 140.5Q14 189 14 250Q14 310 33 358.5Q52 407 83.5 440.5Q115 474 156 492Q197 510 241 510Q288 510 320.5 492.5Q353 475 374 444V500H544V0H374V59Q352 26 318 8Q284 -10 238 -10Z" glyph-name="aring" horiz-adv-x="566" unicode="&#229;" /><glyph d="M263 626Q277 626 287 635.5Q297 645 297 659Q297 673 287 682.5Q277 692 263 692Q250 692 240.5 682.5Q231 673 231 659Q231 645 240.5 635.5Q250 626 263 626ZM207 122Q231 122 253.5 132Q276 142 294 157Q312 172 324 190.5Q336 209 339 227L341 231Q331 218 310.5 209Q290 200 245 189Q203 180 188.5 169.5Q174 159 174 145Q174 132 183.5 127Q193 122 207 122ZM263 534Q237 534 214.5 544Q192 554 175 570.5Q158 587 148 609.5Q138 632 138 658Q138 685 148 708Q158 731 175 748Q192 765 214.5 775Q237 785 263 785Q289 785 312 775Q335 765 352 748Q369 731 379 708Q389 685 389 658Q389 632 379 609.5Q369 587 352 570.5Q335 554 312 544Q289 534 263 534ZM183 -10Q102 -10 57.5 27.5Q13 65 13 133Q13 168 25 194.5Q37 221 57 240.5Q77 260 104.5 273Q132 286 162 294Q189 301 218 306.5Q247 312 270.5 318Q294 324 309 331.5Q324 339 324 350Q324 363 311.5 372.5Q299 382 264 382Q219 382 199 362.5Q179 343 179 318V315H32V317Q32 413 92.5 461.5Q153 510 264 510Q304 510 344 502Q384 494 415.5 475Q447 456 467 424Q487 392 487 345V0H326V43Q302 21 266.5 5.5Q231 -10 183 -10Z" glyph-name="aring.alt" horiz-adv-x="510" unicode="&#59543;" /><glyph d="M287 608Q301 608 311 617.5Q321 627 321 641Q321 655 311 664.5Q301 674 287 674Q274 674 264.5 664.5Q255 655 255 641Q255 627 264.5 617.5Q274 608 287 608ZM287 351 245 215H328ZM192 559Q162 594 162 640Q162 667 172 690Q182 713 199 730Q216 747 238.5 757Q261 767 287 767Q313 767 336 757Q359 747 376 730Q393 713 403 690Q413 667 413 640Q413 594 383 559L567 0H394L373 69H199L178 0H7Z" glyph-name="aring.smcp" horiz-adv-x="574" unicode="&#57894;" /><glyph d="M292 623Q306 623 316 632.5Q326 642 326 656Q326 670 316 679.5Q306 689 292 689Q279 689 269.5 679.5Q260 670 260 656Q260 642 269.5 632.5Q279 623 292 623ZM336 985H504L349 808H224ZM282 147Q325 147 352.5 177Q380 207 380 251Q380 295 352.5 325Q325 355 282 355Q239 355 210.5 325.5Q182 296 182 251Q182 206 210.5 176.5Q239 147 282 147ZM292 531Q266 531 243.5 541Q221 551 204 567.5Q187 584 177 606.5Q167 629 167 655Q167 682 177 705Q187 728 204 745Q221 762 243.5 772Q266 782 292 782Q318 782 341 772Q364 762 381 745Q398 728 408 705Q418 682 418 655Q418 629 408 606.5Q398 584 381 567.5Q364 551 341 541Q318 531 292 531ZM238 -10Q195 -10 155 7.5Q115 25 83.5 58.5Q52 92 33 140.5Q14 189 14 250Q14 310 33 358.5Q52 407 83.5 440.5Q115 474 156 492Q197 510 241 510Q288 510 320.5 492.5Q353 475 374 444V500H544V0H374V59Q352 26 318 8Q284 -10 238 -10Z" glyph-name="aringacute" horiz-adv-x="565" unicode="&#507;" /><glyph d="M263 626Q277 626 287 635.5Q297 645 297 659Q297 673 287 682.5Q277 692 263 692Q250 692 240.5 682.5Q231 673 231 659Q231 645 240.5 635.5Q250 626 263 626ZM207 122Q231 122 253.5 132Q276 142 294 157Q312 172 324 190.5Q336 209 339 227L341 231Q331 218 310.5 209Q290 200 245 189Q203 180 188.5 169.5Q174 159 174 145Q174 132 183.5 127Q193 122 207 122ZM311 989H479L324 812H199ZM263 534Q237 534 214.5 544Q192 554 175 570.5Q158 587 148 609.5Q138 632 138 658Q138 685 148 708Q158 731 175 748Q192 765 214.5 775Q237 785 263 785Q289 785 312 775Q335 765 352 748Q369 731 379 708Q389 685 389 658Q389 632 379 609.5Q369 587 352 570.5Q335 554 312 544Q289 534 263 534ZM183 -10Q102 -10 57.5 27.5Q13 65 13 133Q13 168 25 194.5Q37 221 57 240.5Q77 260 104.5 273Q132 286 162 294Q189 301 218 306.5Q247 312 270.5 318Q294 324 309 331.5Q324 339 324 350Q324 363 311.5 372.5Q299 382 264 382Q219 382 199 362.5Q179 343 179 318V315H32V317Q32 413 92.5 461.5Q153 510 264 510Q304 510 344 502Q384 494 415.5 475Q447 456 467 424Q487 392 487 345V0H326V43Q302 21 266.5 5.5Q231 -10 183 -10Z" glyph-name="aringacute.alt" horiz-adv-x="510" unicode="&#62552;" /><glyph d="M287 608Q301 608 311 617.5Q321 627 321 641Q321 655 311 664.5Q301 674 287 674Q274 674 264.5 664.5Q255 655 255 641Q255 627 264.5 617.5Q274 608 287 608ZM287 351 245 215H328ZM335 973H503L348 796H223ZM192 559Q162 594 162 640Q162 667 172 690Q182 713 199 730Q216 747 238.5 757Q261 767 287 767Q313 767 336 757Q359 747 376 730Q393 713 403 690Q413 667 413 640Q413 594 383 559L567 0H394L373 69H199L178 0H7Z" glyph-name="aringacute.smcp" horiz-adv-x="574" unicode="&#57901;" /><glyph d="M386 -30Q360 9 323 47.5Q286 86 246 118Q206 150 168 173Q130 196 101 204L175 349Q220 332 262.5 298.5Q305 265 340 227V730H513V227Q545 267 587 302Q629 337 674 357L754 218Q718 204 679.5 178Q641 152 603.5 119Q566 86 532 47.5Q498 9 473 -30Z" glyph-name="arrowdown" horiz-adv-x="866" unicode="&#8595;" /><glyph d="M294 653V752L461 661V575ZM294 528V628L461 540V455ZM678 575V660L847 753V654ZM678 454V540L847 629V529ZM294 779V882L461 786V697ZM678 696V786L847 883V780ZM896 95Q855 75 814.5 47.5Q774 20 738 -13.5Q702 -47 671.5 -84.5Q641 -122 619 -161H529Q504 -122 468 -85Q432 -48 392.5 -17Q353 14 315 36Q277 58 248 66L318 211Q364 194 407 161.5Q450 129 485 92L484 785H655V99Q686 137 727.5 171.5Q769 206 811 228Z" glyph-name="arrowdown.alt" horiz-adv-x="1129" unicode="&#62553;" /><glyph d="M300 37Q280 78 252 117.5Q224 157 190 192.5Q156 228 118 259Q80 290 41 314V404Q80 431 118.5 468Q157 505 189 544.5Q221 584 244 622Q267 660 275 689L420 616Q403 570 369 527Q335 484 297 449H815V278H299Q338 247 373.5 205.5Q409 164 432 122Z" glyph-name="arrowleft" horiz-adv-x="866" unicode="&#8592;" /><glyph d="M886 640H986L894 473H809ZM762 640H861L774 473H688ZM688 256H773L862 87H763ZM808 256H894L987 87H887ZM1012 640H1116L1020 473H930ZM930 256H1019L1117 87H1013ZM282 38Q262 79 234.5 119.5Q207 160 173.5 196Q140 232 102.5 262.5Q65 293 26 315V405Q65 430 102 466Q139 502 170 541.5Q201 581 223 619Q245 657 253 686L398 616Q381 569 348.5 526Q316 483 279 449L1019 450V279H285Q323 248 357.5 206.5Q392 165 414 123Z" glyph-name="arrowleft.alt" horiz-adv-x="1129" unicode="&#62560;" /><glyph d="M425 122Q447 164 482.5 205.5Q518 247 558 278H42V449H560Q522 484 488 527Q454 570 437 616L582 689Q590 660 613 622Q636 584 668 544.5Q700 505 738.5 468Q777 431 816 404V314Q777 290 739 259Q701 228 667 192.5Q633 157 604.5 117.5Q576 78 557 37Z" glyph-name="arrowright" horiz-adv-x="866" unicode="&#8594;" /><glyph d="M244 86H144L236 253H321ZM368 86H269L356 253H442ZM442 470H357L268 639H367ZM322 470H236L143 639H243ZM118 86H14L110 253H200ZM200 470H111L13 639H117ZM848 688Q867 647 895 606.5Q923 566 956.5 530Q990 494 1027.5 463.5Q1065 433 1104 411V321Q1065 296 1027.5 260Q990 224 959.5 184.5Q929 145 907 107Q885 69 877 40L732 110Q749 156 781 199Q813 242 851 277L111 276V447H845Q807 478 772.5 519.5Q738 561 716 603Z" glyph-name="arrowright.alt" horiz-adv-x="1129" unicode="&#62561;" /><glyph d="M342 502Q310 463 268 428Q226 393 181 373L102 512Q137 526 176 552Q215 578 252.5 611Q290 644 323.5 682Q357 720 382 759H469Q496 720 533 682Q570 644 609.5 612Q649 580 687 557Q725 534 754 526L681 381Q636 398 593 430.5Q550 463 516 501V0H342Z" glyph-name="arrowup" horiz-adv-x="866" unicode="&#8593;" /><glyph d="M849 78V-22L683 70V155ZM849 202V103L683 190V276ZM465 276V191L296 102V201ZM465 156V70L296 -23V77ZM849 -49V-152L683 -56V34ZM465 34V-56L296 -153V-50ZM247 646Q289 665 329 693Q369 721 405 754.5Q441 788 471.5 825.5Q502 863 525 902H614Q639 863 675 825.5Q711 788 750.5 757.5Q790 727 828.5 705Q867 683 896 675L826 530Q780 547 737 579Q694 611 659 648V-55H489L488 642Q457 604 416 570Q375 536 333 514Z" glyph-name="arrowup.alt" horiz-adv-x="1129" unicode="&#62562;" /><glyph d="M174 738H279L394 567H271L226 639L181 567H57Z" glyph-name="asciicircum" horiz-adv-x="452" unicode="^" /><glyph d="M58 563Q56 632 85.5 673.5Q115 715 170 715Q194 715 212.5 707.5Q231 700 245 692Q259 683 269.5 676.5Q280 670 291 670Q311 670 308 711H403Q405 642 377 601Q349 560 292 560Q262 560 241.5 569.5Q221 579 205 589Q194 595 186 599Q178 603 170 603Q159 603 154.5 594Q150 585 152 563Z" glyph-name="asciitilde" horiz-adv-x="475" unicode="~" /><glyph d="M232 484 264 377H120L152 484L74 403L4 528L112 553L4 580L78 704L153 623L120 731H264L230 618L311 704L382 578L268 552L382 525L309 402Z" glyph-name="asterisk" horiz-adv-x="384" unicode="*" /><glyph d="M382 195Q408 195 426.5 212.5Q445 230 447 259Q450 285 435 303Q420 321 394 321Q368 321 349 303.5Q330 286 328 258Q324 230 340.5 212.5Q357 195 382 195ZM396 -125Q311 -125 241 -97Q171 -69 120.5 -19.5Q70 30 42 97Q14 164 14 243Q14 321 44 390Q74 459 126.5 511.5Q179 564 251 594.5Q323 625 406 625Q496 625 565 596.5Q634 568 681.5 521Q729 474 753 414.5Q777 355 777 294Q777 249 764.5 209Q752 169 728 139.5Q704 110 669.5 92.5Q635 75 590 75Q545 75 515 89.5Q485 104 468 126Q431 78 353 78Q320 78 290.5 90Q261 102 239.5 125.5Q218 149 206.5 182.5Q195 216 200 258Q204 304 222 337Q240 370 264.5 391.5Q289 413 318 423Q347 433 373 433Q400 433 422 424.5Q444 416 459 402Q460 407 460.5 412Q461 417 462 420Q463 424 463 427H590L571 248Q569 228 576 215.5Q583 203 600 203Q617 203 632.5 227Q648 251 648 292Q648 330 633 368Q618 406 588 436Q558 466 512 485Q466 504 405 504Q349 504 302 483.5Q255 463 220.5 427.5Q186 392 167 344.5Q148 297 148 243Q148 190 167 145.5Q186 101 219 69Q252 37 297 19Q342 1 395 1Q449 1 488.5 20.5Q528 40 560 74Q566 68 583 53.5Q600 39 618 24Q639 6 664 -14Q614 -65 546 -95Q478 -125 396 -125Z" glyph-name="at" horiz-adv-x="791" unicode="@" /><glyph d="M382 310Q408 310 426.5 327.5Q445 345 447 374Q450 400 435 418Q420 436 394 436Q368 436 349 418.5Q330 401 328 373Q324 345 340.5 327.5Q357 310 382 310ZM396 -10Q311 -10 241 18Q171 46 120.5 95.5Q70 145 42 212Q14 279 14 358Q14 436 44 505Q74 574 126.5 626.5Q179 679 251 709.5Q323 740 406 740Q496 740 565 711.5Q634 683 681.5 636Q729 589 753 529.5Q777 470 777 409Q777 364 764.5 324Q752 284 728 254.5Q704 225 669.5 207.5Q635 190 590 190Q545 190 515 204.5Q485 219 468 241Q431 193 353 193Q320 193 290.5 205Q261 217 239.5 240.5Q218 264 206.5 297.5Q195 331 200 373Q204 419 222 452Q240 485 264.5 506.5Q289 528 318 538Q347 548 373 548Q400 548 422 539.5Q444 531 459 517Q460 522 460.5 527Q461 532 462 535Q463 539 463 542H590L571 363Q569 343 576 330.5Q583 318 600 318Q617 318 632.5 342Q648 366 648 407Q648 445 633 483Q618 521 588 551Q558 581 512 600Q466 619 405 619Q349 619 302 598.5Q255 578 220.5 542.5Q186 507 167 459.5Q148 412 148 358Q148 305 167 260.5Q186 216 219 184Q252 152 297 134Q342 116 395 116Q449 116 488.5 135.5Q528 155 560 189Q566 183 583 169Q600 155 618 140Q639 122 664 102Q614 50 546 20Q478 -10 396 -10Z" glyph-name="at.cap" horiz-adv-x="791" unicode="&#58643;" /><glyph d="M382 245Q408 245 426.5 262.5Q445 280 447 309Q450 335 435 353Q420 371 394 371Q368 371 349 353.5Q330 336 328 308Q324 280 340.5 262.5Q357 245 382 245ZM396 -75Q311 -75 241 -47Q171 -19 120.5 30.5Q70 80 42 147Q14 214 14 293Q14 371 44 440Q74 509 126.5 561.5Q179 614 251 644.5Q323 675 406 675Q496 675 565 646.5Q634 618 681.5 571Q729 524 753 464.5Q777 405 777 344Q777 299 764.5 259Q752 219 728 189.5Q704 160 669.5 142.5Q635 125 590 125Q545 125 515 139.5Q485 154 468 176Q431 128 353 128Q320 128 290.5 140Q261 152 239.5 175.5Q218 199 206.5 232.5Q195 266 200 308Q204 354 222 387Q240 420 264.5 441.5Q289 463 318 473Q347 483 373 483Q400 483 422 474.5Q444 466 459 452Q460 457 460.5 462Q461 467 462 470Q463 474 463 477H590L571 298Q569 278 576 265.5Q583 253 600 253Q617 253 632.5 277Q648 301 648 342Q648 380 633 418Q618 456 588 486Q558 516 512 535Q466 554 405 554Q349 554 302 533.5Q255 513 220.5 477.5Q186 442 167 394.5Q148 347 148 293Q148 240 167 195.5Q186 151 219 119Q252 87 297 69Q342 51 395 51Q449 51 488.5 70.5Q528 90 560 124Q566 118 583 104Q600 90 618 75Q639 57 664 37Q614 -15 546 -45Q478 -75 396 -75Z" glyph-name="at.smcp" horiz-adv-x="791" unicode="&#62987;" /><glyph d="M282 147Q325 147 352.5 177Q380 207 380 251Q380 295 352.5 325Q325 355 282 355Q239 355 210.5 325.5Q182 296 182 251Q182 206 210.5 176.5Q239 147 282 147ZM116 538Q116 685 224 685Q248 685 266 678.5Q284 672 298 664Q312 656 323.5 650Q335 644 346 644Q367 644 367 681H463Q463 614 438 574Q413 534 355 534Q326 534 308 541.5Q290 549 276 557Q264 563 253.5 568.5Q243 574 232 574Q220 574 214.5 566Q209 558 209 538ZM238 -10Q195 -10 155 7.5Q115 25 83.5 58.5Q52 92 33 140.5Q14 189 14 250Q14 310 33 358.5Q52 407 83.5 440.5Q115 474 156 492Q197 510 241 510Q288 510 320.5 492.5Q353 475 374 444V500H544V0H374V59Q352 26 318 8Q284 -10 238 -10Z" glyph-name="atilde" horiz-adv-x="566" unicode="&#227;" /><glyph d="M207 122Q231 122 253.5 132Q276 142 294 157Q312 172 324 190.5Q336 209 339 227L341 231Q331 218 310.5 209Q290 200 245 189Q203 180 188.5 169.5Q174 159 174 145Q174 132 183.5 127Q193 122 207 122ZM98 538Q98 685 206 685Q230 685 248 678.5Q266 672 280 664Q294 656 305.5 650Q317 644 328 644Q349 644 349 681H445Q445 614 420 574Q395 534 337 534Q308 534 290 541.5Q272 549 258 557Q246 563 235.5 568.5Q225 574 214 574Q202 574 196.5 566Q191 558 191 538ZM183 -10Q102 -10 57.5 27.5Q13 65 13 133Q13 168 25 194.5Q37 221 57 240.5Q77 260 104.5 273Q132 286 162 294Q189 301 218 306.5Q247 312 270.5 318Q294 324 309 331.5Q324 339 324 350Q324 363 311.5 372.5Q299 382 264 382Q219 382 199 362.5Q179 343 179 318V315H32V317Q32 413 92.5 461.5Q153 510 264 510Q304 510 344 502Q384 494 415.5 475Q447 456 467 424Q487 392 487 345V0H326V43Q302 21 266.5 5.5Q231 -10 183 -10Z" glyph-name="atilde.alt" horiz-adv-x="510" unicode="&#59544;" /><glyph d="M287 351 245 215H328ZM120 630Q120 777 228 777Q252 777 270 770.5Q288 764 302 756Q316 748 327.5 742Q339 736 350 736Q371 736 371 773H467Q467 706 442 666Q417 626 359 626Q330 626 312 633.5Q294 641 280 649Q268 655 257.5 660.5Q247 666 236 666Q224 666 218.5 658Q213 650 213 630ZM204 596H371L567 0H394L373 69H199L178 0H7Z" glyph-name="atilde.smcp" horiz-adv-x="574" unicode="&#57893;" /><glyph d="M287 351 245 215H328ZM414 596H551V431H445ZM23 596H160L129 431H23ZM204 596H371L567 0H394L373 69H199L178 0H7Z" glyph-name="aumlaut.smcp" horiz-adv-x="574" unicode="&#61817;" /><glyph d="M284 147Q327 147 355.5 176.5Q384 206 384 251Q384 296 355.5 325.5Q327 355 284 355Q241 355 213.5 325Q186 295 186 251Q186 207 213.5 177Q241 147 284 147ZM329 -10Q281 -10 246 8.5Q211 27 190 61V0H23V730H191V441Q211 473 244.5 491.5Q278 510 326 510Q370 510 411 492Q452 474 483.5 440.5Q515 407 533.5 358.5Q552 310 552 250Q552 189 533 140.5Q514 92 483 58.5Q452 25 412 7.5Q372 -10 329 -10Z" glyph-name="b" horiz-adv-x="564" unicode="b" /><glyph d="M189 448V378H253Q279 378 290 387.5Q301 397 301 414Q301 448 253 448ZM189 226V149H250Q306 149 306 189Q306 209 294 217.5Q282 226 249 226ZM23 596H245Q363 596 417 554.5Q471 513 471 425Q471 385 457.5 356.5Q444 328 420 309Q452 290 468.5 260Q485 230 484 186Q485 137 468.5 101.5Q452 66 421 43.5Q390 21 344.5 10.5Q299 0 241 0H23Z" glyph-name="b.smcp" horiz-adv-x="497" unicode="&#57858;" /><glyph d="M0 730H179L525 0H346Z" glyph-name="backslash" horiz-adv-x="524" unicode="\" /><glyph d="M0 730H179L525 0H346Z" glyph-name="backslash.cap" horiz-adv-x="524" unicode="&#58466;" /><glyph d="M6 596H185L463 0H284Z" glyph-name="backslash.smcp" horiz-adv-x="468" unicode="&#58472;" /><glyph d="M350 315 404 370 470 304 416 249 469 196 403 130 350 182 298 129 232 195 284 248 231 302 297 368ZM220 119H480V381H220ZM100 500H600V0H100Z" glyph-name="ballotboxwithx" horiz-adv-x="700" unicode="&#9746;" /><glyph d="M23 730H192V-230H23Z" glyph-name="bar" horiz-adv-x="215" unicode="|" /><glyph d="M23 840H192V-120H23Z" glyph-name="bar.cap" horiz-adv-x="215" unicode="&#58467;" /><glyph d="M23 686H187V-98H23Z" glyph-name="bar.smcp" horiz-adv-x="210" unicode="&#58473;" /><glyph d="M463 -10Q385 -10 317 19.5Q249 49 198.5 99.5Q148 150 119 218.5Q90 287 90 365Q90 443 119 511Q148 579 198.5 630Q249 681 317 710.5Q385 740 463 740Q541 740 609 710.5Q677 681 728 630Q779 579 808 511Q837 443 837 365Q837 287 808 218.5Q779 150 728 99.5Q677 49 609 19.5Q541 -10 463 -10Z" glyph-name="blackcircle" horiz-adv-x="927" unicode="&#9679;" /><glyph d="M100 500H600V0H100Z" glyph-name="blacksmallsquare" horiz-adv-x="700" unicode="&#9642;" /><glyph d="M100 730H826V0H100Z" glyph-name="blacksquare" horiz-adv-x="926" unicode="&#9632;" /><glyph d="M324 -230Q259 -230 216 -219.5Q173 -209 147 -184.5Q121 -160 110 -118Q99 -76 99 -13V71Q99 101 96.5 120.5Q94 140 85.5 150.5Q77 161 60.5 165Q44 169 15 169V324Q44 324 60.5 328Q77 332 85.5 342.5Q94 353 96.5 372.5Q99 392 99 422V513Q99 575 110 617Q121 659 147 684Q173 709 216 719.5Q259 730 324 730H339V574Q316 574 301.5 571Q287 568 279 560.5Q271 553 268.5 540Q266 527 266 507V421Q266 353 253 311Q240 269 202 246Q240 223 253 181Q266 139 266 72V-7Q266 -27 268.5 -40Q271 -53 279 -60.5Q287 -68 301.5 -71Q316 -74 339 -74V-230Z" glyph-name="braceleft" horiz-adv-x="356" unicode="{" /><glyph d="M324 -120Q259 -120 216 -109.5Q173 -99 147 -74.5Q121 -50 110 -8Q99 34 99 97V181Q99 211 96.5 230.5Q94 250 85.5 260.5Q77 271 60.5 275Q44 279 15 279V434Q44 434 60.5 438Q77 442 85.5 452.5Q94 463 96.5 482.5Q99 502 99 532V623Q99 685 110 727Q121 769 147 794Q173 819 216 829.5Q259 840 324 840H339V684Q316 684 301.5 681Q287 678 279 670.5Q271 663 268.5 650Q266 637 266 617V531Q266 463 253 421Q240 379 202 356Q240 333 253 291Q266 249 266 182V103Q266 83 268.5 70Q271 57 279 49.5Q287 42 301.5 39.5Q316 37 339 37V-120Z" glyph-name="braceleft.cap" horiz-adv-x="356" unicode="&#58517;" /><glyph d="M280 -98Q225 -98 188.5 -90Q152 -82 130.5 -62Q109 -42 100 -8Q91 26 91 79V137Q91 163 88 178.5Q85 194 77.5 202Q70 210 57 212.5Q44 215 23 215V366Q44 366 57 368.5Q70 371 77.5 379Q85 387 88 402.5Q91 418 91 444V509Q91 561 100 595Q109 629 130.5 649Q152 669 188.5 677.5Q225 686 280 686H296V533Q269 533 261 525Q253 517 253 493V415Q253 325 198 289Q253 252 253 163V94Q253 70 261.5 62.5Q270 55 296 55V-98Z" glyph-name="braceleft.smcp" horiz-adv-x="319" unicode="&#58525;" /><glyph d="M18 -74Q39 -74 53 -72Q67 -70 75 -63Q83 -56 86.5 -44Q90 -32 90 -12V72Q90 139 103 181Q116 223 154 246Q116 269 103 311Q90 353 90 421V512Q90 532 86.5 544Q83 556 75 563Q67 570 53 572Q39 574 18 574V730H32Q97 730 140 719.5Q183 709 209 684Q235 659 246 617Q257 575 257 513V422Q257 392 259.5 372.5Q262 353 270.5 342.5Q279 332 295.5 328Q312 324 341 324V169Q312 169 295.5 165Q279 161 270.5 150.5Q262 140 259.5 120.5Q257 101 257 71V-13Q257 -76 246 -118Q235 -160 209 -184.5Q183 -209 140 -219.5Q97 -230 32 -230H18Z" glyph-name="braceright" horiz-adv-x="356" unicode="}" /><glyph d="M18 37Q60 37 75 48Q90 59 90 98V182Q90 249 103 291Q116 333 154 356Q116 379 103 421Q90 463 90 531V622Q90 642 86.5 654Q83 666 75 673Q67 680 53 682Q39 684 18 684V840H32Q97 840 140 829.5Q183 819 209 794Q235 769 246 727Q257 685 257 623V532Q257 502 259.5 482.5Q262 463 270.5 452.5Q279 442 295.5 438Q312 434 341 434V279Q312 279 295.5 275Q279 271 270.5 260.5Q262 250 259.5 230.5Q257 211 257 181V97Q257 34 246 -8Q235 -50 209 -74.5Q183 -99 140 -109.5Q97 -120 32 -120H18Z" glyph-name="braceright.cap" horiz-adv-x="356" unicode="&#58518;" /><glyph d="M23 55Q47 55 56.5 61.5Q66 68 66 92V163Q66 207 79 238.5Q92 270 120 289Q66 325 66 415V495Q66 518 57.5 525.5Q49 533 23 533V686H39Q94 686 130 677.5Q166 669 188 649Q210 629 219 595Q228 561 228 509V444Q228 418 231 402.5Q234 387 241.5 379Q249 371 262.5 368.5Q276 366 297 366V215Q276 215 262.5 212.5Q249 210 241.5 202Q234 194 231 178.5Q228 163 228 137V79Q228 26 219 -8Q210 -42 188 -62Q166 -82 130 -90Q94 -98 39 -98H23Z" glyph-name="braceright.smcp" horiz-adv-x="319" unicode="&#58526;" /><glyph d="M23 730H321V568H192V-68H321V-230H23Z" glyph-name="bracketleft" horiz-adv-x="343" unicode="[" /><glyph d="M23 840H321V678H192V43H321V-120H23Z" glyph-name="bracketleft.cap" horiz-adv-x="343" unicode="&#58515;" /><glyph d="M23 686H287V528H187V61H287V-98H23Z" glyph-name="bracketleft.smcp" horiz-adv-x="310" unicode="&#58523;" /><glyph d="M23 -68H151V568H23V730H321V-230H23Z" glyph-name="bracketright" horiz-adv-x="343" unicode="]" /><glyph d="M23 43H151V678H23V840H321V-120H23Z" glyph-name="bracketright.cap" horiz-adv-x="343" unicode="&#58516;" /><glyph d="M23 61H122V528H23V686H287V-98H23Z" glyph-name="bracketright.smcp" horiz-adv-x="310" unicode="&#58524;" /><glyph d="M224 537Q141 537 101 583.5Q61 630 61 715H168Q168 676 182 658.5Q196 641 224 640Q253 641 267 658.5Q281 676 281 715H389Q389 630 345.5 583.5Q302 537 224 537Z" glyph-name="breve" horiz-adv-x="452" unicode="&#728;" /><glyph d="M23 215H192V-230H23ZM23 730H192V285H23Z" glyph-name="brokenbar" horiz-adv-x="215" unicode="&#166;" /><glyph d="M23 325H192V-120H23ZM23 840H192V395H23Z" glyph-name="brokenbar.cap" horiz-adv-x="215" unicode="&#58469;" /><glyph d="M180 123Q153 123 128.5 133.5Q104 144 86 162Q68 180 57.5 204.5Q47 229 47 256Q47 283 57.5 307.5Q68 332 86 350Q104 368 128.5 378.5Q153 389 180 389Q207 389 231.5 378.5Q256 368 274 350Q292 332 302.5 307.5Q313 283 313 256Q313 229 302.5 204.5Q292 180 274 162Q256 144 231.5 133.5Q207 123 180 123Z" glyph-name="bullet" horiz-adv-x="360" unicode="&#8226;" /><glyph d="M180 233Q153 233 128.5 243.5Q104 254 86 272Q68 290 57.5 314.5Q47 339 47 366Q47 393 57.5 417.5Q68 442 86 460Q104 478 128.5 488.5Q153 499 180 499Q207 499 231.5 488.5Q256 478 274 460Q292 442 302.5 417.5Q313 393 313 366Q313 339 302.5 314.5Q292 290 274 272Q256 254 231.5 243.5Q207 233 180 233Z" glyph-name="bullet.cap" horiz-adv-x="360" unicode="&#58470;" /><glyph d="M463 250Q439 250 418.5 259Q398 268 382.5 284Q367 300 358 320.5Q349 341 349 365Q349 389 358 409.5Q367 430 382.5 446Q398 462 418.5 471Q439 480 463 480Q487 480 507.5 471Q528 462 543.5 446Q559 430 568 409.5Q577 389 577 365Q577 341 568 320.5Q559 300 543.5 284Q528 268 507.5 259Q487 250 463 250ZM463 127Q512 127 555 146Q598 165 630 197Q662 229 680.5 272.5Q699 316 699 365Q699 414 680.5 457.5Q662 501 630 533Q598 565 555 584Q512 603 463 603Q414 603 371 584Q328 565 296.5 533Q265 501 246.5 457.5Q228 414 228 365Q228 316 246.5 272.5Q265 229 296.5 197Q328 165 371 146Q414 127 463 127ZM463 -10Q385 -10 317 19.5Q249 49 198.5 99.5Q148 150 119 218.5Q90 287 90 365Q90 443 119 511Q148 579 198.5 630Q249 681 317 710.5Q385 740 463 740Q541 740 609 710.5Q677 681 728 630Q779 579 808 511Q837 443 837 365Q837 287 808 218.5Q779 150 728 99.5Q677 49 609 19.5Q541 -10 463 -10Z" glyph-name="bullseye" horiz-adv-x="927" unicode="&#9678;" /><glyph d="M276 -10Q218 -10 170 10.5Q122 31 87 66Q52 101 32.5 148.5Q13 196 13 250Q13 304 32.5 351.5Q52 399 87 434.5Q122 470 170.5 490.5Q219 511 276 511Q322 511 362 498.5Q402 486 434 463Q466 440 489.5 408Q513 376 526 338L371 285Q362 317 336.5 335Q311 353 279 353Q237 353 209 324Q181 295 181 250Q181 206 209 177Q237 148 279 148Q311 148 335 166.5Q359 185 370 216L527 158Q513 122 490 91Q467 60 434.5 37.5Q402 15 362 2.5Q322 -10 276 -10Z" glyph-name="c" horiz-adv-x="533" unicode="c" /><glyph d="M322 -8Q254 -8 197.5 16Q141 40 101 81.5Q61 123 39 178.5Q17 234 17 298Q17 361 40 417Q63 473 103.5 514.5Q144 556 200.5 580Q257 604 323 604Q415 604 482 563.5Q549 523 590 457L439 363Q424 395 394.5 414.5Q365 434 323 434Q294 434 271 423Q248 412 231.5 393.5Q215 375 206 350.5Q197 326 197 298Q197 270 205.5 245.5Q214 221 230.5 202.5Q247 184 270 173.5Q293 163 323 163Q367 163 396 185Q425 207 440 243L600 159Q562 86 493 39Q424 -8 322 -8Z" glyph-name="c.smcp" horiz-adv-x="606" unicode="&#57859;" /><glyph d="M276 -10Q218 -10 170 10.5Q122 31 87 66Q52 101 32.5 148.5Q13 196 13 250Q13 304 32.5 351.5Q52 399 87 434.5Q122 470 170.5 490.5Q219 511 276 511Q322 511 362 498.5Q402 486 434 463Q466 440 489.5 408Q513 376 526 338L371 285Q362 317 336.5 335Q311 353 279 353Q237 353 209 324Q181 295 181 250Q181 206 209 177Q237 148 279 148Q311 148 335 166.5Q359 185 370 216L527 158Q513 122 490 91Q467 60 434.5 37.5Q402 15 362 2.5Q322 -10 276 -10ZM321 715H489L334 538H209Z" glyph-name="cacute" horiz-adv-x="533" unicode="&#263;" /><glyph d="M322 -8Q254 -8 197.5 16Q141 40 101 81.5Q61 123 39 178.5Q17 234 17 298Q17 361 40 417Q63 473 103.5 514.5Q144 556 200.5 580Q257 604 323 604Q415 604 482 563.5Q549 523 590 457L439 363Q424 395 394.5 414.5Q365 434 323 434Q294 434 271 423Q248 412 231.5 393.5Q215 375 206 350.5Q197 326 197 298Q197 270 205.5 245.5Q214 221 230.5 202.5Q247 184 270 173.5Q293 163 323 163Q367 163 396 185Q425 207 440 243L600 159Q562 86 493 39Q424 -8 322 -8ZM369 810H537L382 633H257Z" glyph-name="cacute.smcp" horiz-adv-x="606" unicode="&#57908;" /><glyph d="M51 720H179L225 645L272 720H400L281 543H170Z" glyph-name="caron" horiz-adv-x="452" unicode="&#711;" /><glyph d="M190 720H337L252 543H144Z" glyph-name="caronSlovak" horiz-adv-x="452" unicode="&#58387;" /><glyph d="M106 715H234L280 640L327 715H455L336 538H225ZM276 -10Q218 -10 170 10.5Q122 31 87 66Q52 101 32.5 148.5Q13 196 13 250Q13 304 32.5 351.5Q52 399 87 434.5Q122 470 170.5 490.5Q219 511 276 511Q322 511 362 498.5Q402 486 434 463Q466 440 489.5 408Q513 376 526 338L371 285Q362 317 336.5 335Q311 353 279 353Q237 353 209 324Q181 295 181 250Q181 206 209 177Q237 148 279 148Q311 148 335 166.5Q359 185 370 216L527 158Q513 122 490 91Q467 60 434.5 37.5Q402 15 362 2.5Q322 -10 276 -10Z" glyph-name="ccaron" horiz-adv-x="533" unicode="&#269;" /><glyph d="M151 810H279L325 735L372 810H500L381 633H270ZM322 -8Q254 -8 197.5 16Q141 40 101 81.5Q61 123 39 178.5Q17 234 17 298Q17 361 40 417Q63 473 103.5 514.5Q144 556 200.5 580Q257 604 323 604Q415 604 482 563.5Q549 523 590 457L439 363Q424 395 394.5 414.5Q365 434 323 434Q294 434 271 423Q248 412 231.5 393.5Q215 375 206 350.5Q197 326 197 298Q197 270 205.5 245.5Q214 221 230.5 202.5Q247 184 270 173.5Q293 163 323 163Q367 163 396 185Q425 207 440 243L600 159Q562 86 493 39Q424 -8 322 -8Z" glyph-name="ccaron.smcp" horiz-adv-x="606" unicode="&#57910;" /><glyph d="M274 -256Q225 -256 186 -240.5Q147 -225 118 -199L211 -133Q226 -147 243 -154.5Q260 -162 285 -162Q305 -162 316 -155.5Q327 -149 327 -139Q327 -118 283 -118H224V-5Q177 4 138 27Q99 50 71 83.5Q43 117 28 159.5Q13 202 13 250Q13 304 32.5 351.5Q52 399 87 434.5Q122 470 170.5 490.5Q219 511 276 511Q322 511 362 498.5Q402 486 434 463Q466 440 489.5 408Q513 376 526 338L371 285Q362 317 336.5 335Q311 353 279 353Q237 353 209 324Q181 295 181 250Q181 206 209 177Q237 148 279 148Q311 148 335 166.5Q359 185 370 216L527 158Q504 95 453 51.5Q402 8 330 -5V-42Q380 -44 410.5 -68.5Q441 -93 441 -137Q441 -163 429 -185Q417 -207 395 -222.5Q373 -238 342 -247Q311 -256 274 -256Z" glyph-name="ccedilla" horiz-adv-x="533" unicode="&#231;" /><glyph d="M312 -256Q263 -256 224 -240.5Q185 -225 156 -199L249 -133Q264 -147 281 -154.5Q298 -162 323 -162Q343 -162 354 -155.5Q365 -149 365 -139Q365 -118 321 -118H262V-3Q206 7 161 34Q116 61 84 100.5Q52 140 34.5 190.5Q17 241 17 298Q17 361 40 417Q63 473 103.5 514.5Q144 556 200.5 580Q257 604 323 604Q415 604 482 563.5Q549 523 590 457L439 363Q424 395 394.5 414.5Q365 434 323 434Q294 434 271 423Q248 412 231.5 393.5Q215 375 206 350.5Q197 326 197 298Q197 270 205.5 245.5Q214 221 230.5 202.5Q247 184 270 173.5Q293 163 323 163Q367 163 396 185Q425 207 440 243L600 159Q567 94 509.5 49.5Q452 5 368 -5V-42Q418 -44 448.5 -68.5Q479 -93 479 -137Q479 -163 467 -185Q455 -207 433 -222.5Q411 -238 380 -247Q349 -256 312 -256Z" glyph-name="ccedilla.smcp" horiz-adv-x="606" unicode="&#57912;" /><glyph d="M225 715H336L455 538H326L279 613L233 538H106ZM276 -10Q218 -10 170 10.5Q122 31 87 66Q52 101 32.5 148.5Q13 196 13 250Q13 304 32.5 351.5Q52 399 87 434.5Q122 470 170.5 490.5Q219 511 276 511Q322 511 362 498.5Q402 486 434 463Q466 440 489.5 408Q513 376 526 338L371 285Q362 317 336.5 335Q311 353 279 353Q237 353 209 324Q181 295 181 250Q181 206 209 177Q237 148 279 148Q311 148 335 166.5Q359 185 370 216L527 158Q513 122 490 91Q467 60 434.5 37.5Q402 15 362 2.5Q322 -10 276 -10Z" glyph-name="ccircumflex" horiz-adv-x="533" unicode="&#265;" /><glyph d="M269 810H380L499 633H370L323 708L277 633H150ZM322 -8Q254 -8 197.5 16Q141 40 101 81.5Q61 123 39 178.5Q17 234 17 298Q17 361 40 417Q63 473 103.5 514.5Q144 556 200.5 580Q257 604 323 604Q415 604 482 563.5Q549 523 590 457L439 363Q424 395 394.5 414.5Q365 434 323 434Q294 434 271 423Q248 412 231.5 393.5Q215 375 206 350.5Q197 326 197 298Q197 270 205.5 245.5Q214 221 230.5 202.5Q247 184 270 173.5Q293 163 323 163Q367 163 396 185Q425 207 440 243L600 159Q562 86 493 39Q424 -8 322 -8Z" glyph-name="ccircumflex.smcp" horiz-adv-x="606" unicode="&#57909;" /><glyph d="M193 709H365V537H193ZM276 -10Q218 -10 170 10.5Q122 31 87 66Q52 101 32.5 148.5Q13 196 13 250Q13 304 32.5 351.5Q52 399 87 434.5Q122 470 170.5 490.5Q219 511 276 511Q322 511 362 498.5Q402 486 434 463Q466 440 489.5 408Q513 376 526 338L371 285Q362 317 336.5 335Q311 353 279 353Q237 353 209 324Q181 295 181 250Q181 206 209 177Q237 148 279 148Q311 148 335 166.5Q359 185 370 216L527 158Q513 122 490 91Q467 60 434.5 37.5Q402 15 362 2.5Q322 -10 276 -10Z" glyph-name="cdotaccent" horiz-adv-x="533" unicode="&#267;" /><glyph d="M240 805H412V633H240ZM322 -8Q254 -8 197.5 16Q141 40 101 81.5Q61 123 39 178.5Q17 234 17 298Q17 361 40 417Q63 473 103.5 514.5Q144 556 200.5 580Q257 604 323 604Q415 604 482 563.5Q549 523 590 457L439 363Q424 395 394.5 414.5Q365 434 323 434Q294 434 271 423Q248 412 231.5 393.5Q215 375 206 350.5Q197 326 197 298Q197 270 205.5 245.5Q214 221 230.5 202.5Q247 184 270 173.5Q293 163 323 163Q367 163 396 185Q425 207 440 243L600 159Q562 86 493 39Q424 -8 322 -8Z" glyph-name="cdotaccent.smcp" horiz-adv-x="606" unicode="&#57911;" /><glyph d="M209 -264Q160 -264 121 -248.5Q82 -233 53 -207L146 -141Q161 -155 178 -162.5Q195 -170 220 -170Q240 -170 251 -163.5Q262 -157 262 -147Q262 -126 218 -126H159V0H265V-50Q315 -52 345.5 -76.5Q376 -101 376 -145Q376 -171 364 -193Q352 -215 330 -230.5Q308 -246 277 -255Q246 -264 209 -264Z" glyph-name="cedilla" horiz-adv-x="452" unicode="&#184;" /><glyph d="M220 2Q178 15 143 40Q108 65 83 98.5Q58 132 44.5 173Q31 214 31 259Q31 304 44.5 344.5Q58 385 83 418.5Q108 452 143 477Q178 502 220 515V647H389V517Q455 499 502 455Q549 411 570 350L414 297Q403 330 373.5 350Q344 370 309 370Q286 370 266.5 361.5Q247 353 232 338Q217 323 208.5 303Q200 283 200 259Q200 235 208.5 215Q217 195 232 180Q247 165 266.5 156.5Q286 148 309 148Q344 148 373 168.5Q402 189 413 221L571 163Q548 104 501.5 61Q455 18 389 0V-130H220Z" glyph-name="cent" horiz-adv-x="598" unicode="&#162;" /><glyph d="M191 2Q150 15 117.5 39Q85 63 61.5 95.5Q38 128 25.5 167Q13 206 13 250Q13 293 26 332.5Q39 372 62 404Q85 436 118 460.5Q151 485 191 498V630H359V499Q420 481 463 438.5Q506 396 526 338L371 285Q361 316 336 334.5Q311 353 279 353Q237 353 209.5 323.5Q182 294 182 250Q182 206 209.5 177Q237 148 279 148Q311 148 335 167Q359 186 370 216L527 158Q506 102 463 60.5Q420 19 359 1V-130H191Z" glyph-name="cent.LP" horiz-adv-x="534" unicode="&#58659;" /><glyph d="M220 2Q178 15 143 40Q108 65 83 98.5Q58 132 44.5 173Q31 214 31 259Q31 304 44.5 344.5Q58 385 83 418.5Q108 452 143 477Q178 502 220 515V647H389V517Q455 499 502 455Q549 411 570 350L414 297Q403 330 373.5 350Q344 370 309 370Q286 370 266.5 361.5Q247 353 232 338Q217 323 208.5 303Q200 283 200 259Q200 235 208.5 215Q217 195 232 180Q247 165 266.5 156.5Q286 148 309 148Q344 148 373 168.5Q402 189 413 221L571 163Q548 104 501.5 61Q455 18 389 0V-130H220Z" glyph-name="cent.LT" horiz-adv-x="598" unicode="&#62564;" /><glyph d="M171 720H282L401 543H272L225 618L179 543H52Z" glyph-name="circumflex" horiz-adv-x="452" unicode="&#710;" /><glyph d="M336 0Q345 17 358.5 43Q372 69 386 101Q400 133 411 170.5Q422 208 427 248Q406 196 362 163Q318 130 260 130Q223 130 191 144Q159 158 135 182Q111 206 97 238Q83 270 83 307Q83 344 97 376Q111 408 135 432Q159 456 191 470Q223 484 260 484Q271 484 281.5 482Q292 480 302 477Q283 518 283 564Q283 600 296.5 632Q310 664 334 688Q358 712 390 726Q422 740 458 740Q494 740 526 726Q558 712 582 688Q606 664 620 632Q634 600 634 564Q634 519 615 476Q637 484 661 484Q698 484 730 470Q762 456 786 432Q810 408 823.5 376Q837 344 837 307Q837 270 823 238Q809 206 785 182Q761 158 729 144Q697 130 660 130Q602 130 559.5 163Q517 196 497 247Q502 208 514.5 170.5Q527 133 542 101Q557 69 571.5 43Q586 17 595 0Z" glyph-name="club" horiz-adv-x="920" unicode="&#9827;" /><glyph d="M23 500H196V326H23ZM23 175H196V0H23Z" glyph-name="colon" horiz-adv-x="219" unicode=":" /><glyph d="M52 500H226V326H52ZM52 175H226V0H52Z" glyph-name="colon.T" horiz-adv-x="283" unicode="&#61828;" /><glyph d="M51 135H215L139 -89H10Z" glyph-name="comma" horiz-adv-x="231" unicode="," /><glyph d="M82 135H247L170 -89H42Z" glyph-name="comma.T" horiz-adv-x="283" unicode="&#61827;" /><glyph d="M112 -268 152 -45H317L240 -268Z" glyph-name="commaaccent" horiz-adv-x="452" unicode="&#58388;" /><glyph d="M396 109Q353 109 316.5 125Q280 141 253.5 168Q227 195 212 231Q197 267 197 308Q197 349 212 385Q227 421 254 448Q281 475 317.5 490.5Q354 506 396 506Q426 506 454 497.5Q482 489 506 473.5Q530 458 548 437Q566 416 577 391Q557 382 535 373Q513 364 494 356Q472 347 451 339Q446 354 432.5 364Q419 374 396 374Q367 374 348 355Q329 336 329 308Q329 279 348 260Q367 241 396 241Q418 241 432.5 252Q447 263 452 278L580 233Q570 206 552 183Q534 160 510 143.5Q486 127 457 118Q428 109 396 109ZM393 67Q444 67 487.5 86Q531 105 563.5 138Q596 171 614.5 214.5Q633 258 633 308Q633 357 614 400.5Q595 444 562.5 477Q530 510 486.5 529Q443 548 393 548Q342 548 298.5 529Q255 510 223 477Q191 444 173 400.5Q155 357 155 308Q155 258 173 214.5Q191 171 222.5 138Q254 105 298 86Q342 67 393 67ZM393 -68Q313 -68 244 -39Q175 -10 124 41Q73 92 43.5 160.5Q14 229 14 308Q14 386 43.5 454.5Q73 523 124 573.5Q175 624 244 653.5Q313 683 393 683Q472 683 541 654Q610 625 661.5 574.5Q713 524 742.5 455.5Q772 387 772 308Q772 229 742.5 160.5Q713 92 662 41Q611 -10 541.5 -39Q472 -68 393 -68Z" glyph-name="copyright" horiz-adv-x="786" unicode="&#169;" /><glyph d="M282 122Q225 122 193 153.5Q161 185 161 237V490Q161 544 193.5 576Q226 608 283 608Q340 608 371 576.5Q402 545 402 490V393H298V485Q298 502 282 502Q265 502 265 485V242Q265 226 282 226Q298 226 298 242V354H402V237Q402 184 370.5 153Q339 122 282 122ZM282 95Q352 95 391 134Q430 173 430 236V490Q430 556 391 595.5Q352 635 283 635Q214 635 173.5 595.5Q133 556 133 490V237Q133 174 172.5 134.5Q212 95 282 95ZM281 -10Q221 -10 173 8.5Q125 27 91.5 60Q58 93 40.5 138Q23 183 23 237V490Q23 544 41.5 590Q60 636 94 669Q128 702 176 721Q224 740 282 740Q340 740 388 721Q436 702 470 668Q504 634 522.5 588.5Q541 543 541 491V237Q541 182 523 136.5Q505 91 471 58.5Q437 26 389 8Q341 -10 281 -10Z" glyph-name="copyright.LT" horiz-adv-x="563" unicode="&#62565;" /><glyph d="M163 435Q131 435 104 447Q77 459 56.5 479Q36 499 24.5 526.5Q13 554 13 585Q13 616 24.5 644Q36 672 56.5 692Q77 712 104 724Q131 736 163 736Q213 736 250 711Q287 686 304 644L196 600Q192 610 183.5 616.5Q175 623 164 623Q148 623 137.5 612Q127 601 127 585Q127 570 137.5 559Q148 548 164 548Q175 548 183.5 555Q192 562 196 571L305 528Q288 486 250.5 460.5Q213 435 163 435Z" glyph-name="cordinal" horiz-adv-x="317" unicode="&#57729;" /><glyph d="M163 435Q131 435 104 447Q77 459 56.5 479Q36 499 24.5 526.5Q13 554 13 585Q13 616 24.5 644Q36 672 56.5 692Q77 712 104 724Q131 736 163 736Q213 736 250 711Q287 686 304 644L196 600Q192 610 183.5 616.5Q175 623 164 623Q148 623 137.5 612Q127 601 127 585Q127 570 137.5 559Q148 548 164 548Q175 548 183.5 555Q192 562 196 571L305 528Q288 486 250.5 460.5Q213 435 163 435Z" glyph-name="cordinal.smcp" horiz-adv-x="317" unicode="&#58195;" /><glyph d="M390 260Q432 260 459.5 289Q487 318 487 362Q487 406 459.5 435.5Q432 465 390 465Q348 465 321 435.5Q294 406 294 362Q294 318 321 289Q348 260 390 260ZM390 102Q323 102 267 130L138 -2L27 107L156 239Q127 295 127 362Q127 431 157 485L26 623L138 729L267 594Q323 622 390 622Q422 622 452 615Q482 608 508 595L635 725L746 617L621 489Q636 460 644.5 428.5Q653 397 653 362Q653 327 644.5 295Q636 263 621 234L746 105L635 -2L509 128Q455 102 390 102Z" glyph-name="currency" horiz-adv-x="773" unicode="&#164;" /><glyph d="M282 147Q325 147 352.5 177Q380 207 380 251Q380 295 352.5 325Q325 355 282 355Q239 355 210.5 325.5Q182 296 182 251Q182 206 210.5 176.5Q239 147 282 147ZM238 -10Q195 -10 155 7.5Q115 25 83.5 58.5Q52 92 33 140.5Q14 189 14 250Q14 310 33 358.5Q52 407 83.5 440.5Q115 474 156 492Q197 510 241 510Q286 510 318.5 494Q351 478 372 449V730H540V0H373V57Q351 25 317 7.5Q283 -10 238 -10Z" glyph-name="d" horiz-adv-x="563" unicode="d" /><glyph d="M194 434V162H218Q279 162 314.5 201Q350 240 350 301Q350 361 315.5 397.5Q281 434 218 434ZM23 596H218Q286 596 343 573.5Q400 551 440.5 511.5Q481 472 503.5 418Q526 364 526 301Q526 237 504 182Q482 127 441.5 86.5Q401 46 344 23Q287 0 218 0H23Z" glyph-name="d.smcp" horiz-adv-x="543" unicode="&#57860;" /><glyph d="M23 500H162V730H338V500H476V339H338V0H162V339H23Z" glyph-name="dagger" horiz-adv-x="498" unicode="&#8224;" /><glyph d="M23 585H162V730H338V585H476V424H338V316H476V155H338V0H162V155H23V316H162V424H23Z" glyph-name="daggerdbl" horiz-adv-x="498" unicode="&#8225;" /><glyph d="M610 730H757L672 553H564ZM282 147Q325 147 352.5 177Q380 207 380 251Q380 295 352.5 325Q325 355 282 355Q239 355 210.5 325.5Q182 296 182 251Q182 206 210.5 176.5Q239 147 282 147ZM238 -10Q195 -10 155 7.5Q115 25 83.5 58.5Q52 92 33 140.5Q14 189 14 250Q14 310 33 358.5Q52 407 83.5 440.5Q115 474 156 492Q197 510 241 510Q286 510 318.5 494Q351 478 372 449V730H540V0H373V57Q351 25 317 7.5Q283 -10 238 -10Z" glyph-name="dcaron" horiz-adv-x="723" unicode="&#271;" /><glyph d="M194 434V162H218Q279 162 314.5 201Q350 240 350 301Q350 361 315.5 397.5Q281 434 218 434ZM62 807H190L236 732L283 807H411L292 630H181ZM23 596H218Q286 596 343 573.5Q400 551 440.5 511.5Q481 472 503.5 418Q526 364 526 301Q526 237 504 182Q482 127 441.5 86.5Q401 46 344 23Q287 0 218 0H23Z" glyph-name="dcaron.smcp" horiz-adv-x="543" unicode="&#57913;" /><glyph d="M282 147Q325 147 352.5 177Q380 207 380 251Q380 295 352.5 325Q325 355 282 355Q239 355 210.5 325.5Q182 296 182 251Q182 206 210.5 176.5Q239 147 282 147ZM308 644H372V730H540V644H602V540H540V0H373V57Q351 25 317 7.5Q283 -10 238 -10Q195 -10 155 7.5Q115 25 83.5 58.5Q52 92 33 140.5Q14 189 14 250Q14 310 33 358.5Q52 407 83.5 440.5Q115 474 156 492Q197 510 241 510Q286 510 318.5 494Q351 478 372 449V540H308Z" glyph-name="dcroat" horiz-adv-x="563" unicode="&#273;" /><glyph d="M227 229V162H251Q312 162 347.5 201Q383 240 383 301Q383 361 348.5 397.5Q314 434 251 434H227V368H306V229ZM15 368H55V596H251Q319 596 376 573.5Q433 551 473.5 511.5Q514 472 536.5 418Q559 364 559 301Q559 237 537 182Q515 127 474.5 86.5Q434 46 377 23Q320 0 251 0H55V229H15Z" glyph-name="dcroat.smcp" horiz-adv-x="577" unicode="&#57916;" /><glyph d="M198 513Q216 513 229 525.5Q242 538 242 556Q242 574 229 587Q216 600 198 600Q180 600 167 587Q154 574 154 556Q154 538 167 525.5Q180 513 198 513ZM198 373Q160 373 126.5 387.5Q93 402 68 426.5Q43 451 28.5 484.5Q14 518 14 556Q14 594 28.5 627.5Q43 661 68 686Q93 711 126.5 725.5Q160 740 198 740Q236 740 269.5 725.5Q303 711 328 686Q353 661 367.5 627.5Q382 594 382 556Q382 518 367.5 484.5Q353 451 328 426.5Q303 402 269.5 387.5Q236 373 198 373Z" glyph-name="degree" horiz-adv-x="396" unicode="&#176;" /><glyph d="M460 791 787 390 460 -10 133 390Z" glyph-name="diamond" horiz-adv-x="920" unicode="&#9830;" /><glyph d="M42 709H209V541H42ZM243 709H410V541H243Z" glyph-name="dieresis" horiz-adv-x="452" unicode="&#168;" /><glyph d="M141 259H282V125H141ZM141 604H282V470H141ZM25 436H395V293H25Z" glyph-name="divide" horiz-adv-x="421" unicode="&#247;" /><glyph d="M571 228Q571 190 560 154Q549 118 527 88Q505 58 472 35Q439 12 396 0V-120H227V-4Q153 10 103.5 44.5Q54 79 16 122L169 242Q195 199 232.5 176Q270 153 309 153Q350 153 371 174.5Q392 196 392 223Q392 240 381 251.5Q370 263 351 271.5Q332 280 308 286.5Q284 293 258 301Q223 311 185.5 325.5Q148 340 117 364.5Q86 389 66 426Q46 463 46 518Q46 557 58.5 591.5Q71 626 93.5 654Q116 682 148.5 702Q181 722 222 732V840H392V730Q448 716 487 688Q526 660 557 625L417 518Q396 551 367 570Q338 589 300 589Q263 589 241.5 571.5Q220 554 220 528Q220 511 231 499.5Q242 488 260.5 480Q279 472 304 465Q329 458 357 449Q393 438 430.5 422.5Q468 407 499.5 382Q531 357 551 319.5Q571 282 571 228Z" glyph-name="dollar" horiz-adv-x="598" unicode="$" /><glyph d="M563 228Q563 189 550.5 152.5Q538 116 514.5 85.5Q491 55 456.5 32.5Q422 10 377 -1V-120H207V-2Q135 12 85.5 46Q36 80 -2 122L151 242Q177 199 215.5 176Q254 153 295 153Q336 153 360 174.5Q384 196 384 223Q384 240 372.5 251.5Q361 263 341.5 271.5Q322 280 297.5 286.5Q273 293 246 301Q210 311 171 325.5Q132 340 100.5 364.5Q69 389 48.5 426Q28 463 28 517Q28 555 40.5 589.5Q53 624 76 652Q99 680 131 700Q163 720 203 731V840H372V731Q431 717 473 688.5Q515 660 547 625L407 518Q387 551 354.5 570Q322 589 285 589Q247 589 224.5 571.5Q202 554 202 528Q202 511 213 499.5Q224 488 243.5 480Q263 472 288 465Q313 458 342 449Q379 438 418 422.5Q457 407 489 382Q521 357 542 319.5Q563 282 563 228Z" glyph-name="dollar.LP" horiz-adv-x="572" unicode="&#58658;" /><glyph d="M571 228Q571 190 560 154Q549 118 527 88Q505 58 472 35Q439 12 396 0V-120H227V-4Q153 10 103.5 44.5Q54 79 16 122L169 242Q195 199 232.5 176Q270 153 309 153Q350 153 371 174.5Q392 196 392 223Q392 240 381 251.5Q370 263 351 271.5Q332 280 308 286.5Q284 293 258 301Q223 311 185.5 325.5Q148 340 117 364.5Q86 389 66 426Q46 463 46 518Q46 557 58.5 591.5Q71 626 93.5 654Q116 682 148.5 702Q181 722 222 732V840H392V730Q448 716 487 688Q526 660 557 625L417 518Q396 551 367 570Q338 589 300 589Q263 589 241.5 571.5Q220 554 220 528Q220 511 231 499.5Q242 488 260.5 480Q279 472 304 465Q329 458 357 449Q393 438 430.5 422.5Q468 407 499.5 382Q531 357 551 319.5Q571 282 571 228Z" glyph-name="dollar.LT" horiz-adv-x="598" unicode="&#62566;" /><glyph d="M134 709H306V537H134Z" glyph-name="dotaccent" horiz-adv-x="452" unicode="&#729;" /><glyph d="M134 -34H306V-206H134Z" glyph-name="dotbelow" horiz-adv-x="452" unicode="&#58389;" /><glyph d="M23 500H196V0H23Z" glyph-name="dotlessi" horiz-adv-x="219" unicode="&#305;" /><glyph d="M-56 -76Q-27 -76 -11 -73.5Q5 -71 12.5 -62.5Q20 -54 21.5 -39Q23 -24 23 1V500H197V-1Q197 -66 186 -110Q175 -154 148 -181Q121 -208 76.5 -219.5Q32 -231 -35 -231H-56Z" glyph-name="dotlessj" horiz-adv-x="219" unicode="&#567;" /><glyph d="M232 730H402V-230H232ZM23 730H192V-230H23Z" glyph-name="doublebar" horiz-adv-x="424" unicode="&#8214;" /><glyph d="M232 840H402V-120H232ZM23 840H192V-120H23Z" glyph-name="doublebar.cap" horiz-adv-x="424" unicode="&#58468;" /><glyph d="M227 686H392V-98H227ZM23 686H187V-98H23Z" glyph-name="doublebar.smcp" horiz-adv-x="414" unicode="&#58474;" /><glyph d="M198 720H346L443 543H338ZM14 720H162L274 543H169Z" glyph-name="doublegrave" horiz-adv-x="452" unicode="&#58386;" /><glyph d="M277 374Q243 374 218 358.5Q193 343 179 315H372Q360 344 335.5 359Q311 374 277 374ZM277 -10Q216 -10 167 10Q118 30 84 65.5Q50 101 31.5 148.5Q13 196 13 250Q13 304 32.5 351Q52 398 87.5 433.5Q123 469 171 489.5Q219 510 276 510Q334 510 382 490.5Q430 471 464.5 436.5Q499 402 518 354.5Q537 307 537 252V194H175Q188 162 215 144.5Q242 127 280 127Q314 127 339.5 142.5Q365 158 379 184L515 116Q498 89 475 66Q452 43 423 26Q394 9 357.5 -0.5Q321 -10 277 -10Z" glyph-name="e" horiz-adv-x="551" unicode="e" /><glyph d="M23 596H386V438H194V377H386V221H194V158H386V0H23Z" glyph-name="e.smcp" horiz-adv-x="407" unicode="&#57861;" /><glyph d="M277 374Q243 374 218 358.5Q193 343 179 315H372Q360 344 335.5 359Q311 374 277 374ZM318 715H486L331 538H206ZM277 -10Q216 -10 167 10Q118 30 84 65.5Q50 101 31.5 148.5Q13 196 13 250Q13 304 32.5 351Q52 398 87.5 433.5Q123 469 171 489.5Q219 510 276 510Q334 510 382 490.5Q430 471 464.5 436.5Q499 402 518 354.5Q537 307 537 252V194H175Q188 162 215 144.5Q242 127 280 127Q314 127 339.5 142.5Q365 158 379 184L515 116Q498 89 475 66Q452 43 423 26Q394 9 357.5 -0.5Q321 -10 277 -10Z" glyph-name="eacute" horiz-adv-x="551" unicode="&#233;" /><glyph d="M245 807H413L258 630H133ZM23 596H386V438H194V377H386V221H194V158H386V0H23Z" glyph-name="eacute.smcp" horiz-adv-x="406" unicode="&#57917;" /><glyph d="M277 374Q243 374 218 358.5Q193 343 179 315H372Q360 344 335.5 359Q311 374 277 374ZM276 534Q193 534 153 580.5Q113 627 113 712H220Q220 673 234 655.5Q248 638 276 637Q305 638 319 655.5Q333 673 333 712H441Q441 627 397.5 580.5Q354 534 276 534ZM277 -10Q216 -10 167 10Q118 30 84 65.5Q50 101 31.5 148.5Q13 196 13 250Q13 304 32.5 351Q52 398 87.5 433.5Q123 469 171 489.5Q219 510 276 510Q334 510 382 490.5Q430 471 464.5 436.5Q499 402 518 354.5Q537 307 537 252V194H175Q188 162 215 144.5Q242 127 280 127Q314 127 339.5 142.5Q365 158 379 184L515 116Q498 89 475 66Q452 43 423 26Q394 9 357.5 -0.5Q321 -10 277 -10Z" glyph-name="ebreve" horiz-adv-x="551" unicode="&#277;" /><glyph d="M211 624Q128 624 88 670.5Q48 717 48 802H155Q155 763 169 745.5Q183 728 211 727Q240 728 254 745.5Q268 763 268 802H376Q376 717 332.5 670.5Q289 624 211 624ZM23 596H386V438H194V377H386V221H194V158H386V0H23Z" glyph-name="ebreve.smcp" horiz-adv-x="406" unicode="&#57923;" /><glyph d="M277 374Q243 374 218 358.5Q193 343 179 315H372Q360 344 335.5 359Q311 374 277 374ZM102 715H230L276 640L323 715H451L332 538H221ZM277 -10Q216 -10 167 10Q118 30 84 65.5Q50 101 31.5 148.5Q13 196 13 250Q13 304 32.5 351Q52 398 87.5 433.5Q123 469 171 489.5Q219 510 276 510Q334 510 382 490.5Q430 471 464.5 436.5Q499 402 518 354.5Q537 307 537 252V194H175Q188 162 215 144.5Q242 127 280 127Q314 127 339.5 142.5Q365 158 379 184L515 116Q498 89 475 66Q452 43 423 26Q394 9 357.5 -0.5Q321 -10 277 -10Z" glyph-name="ecaron" horiz-adv-x="551" unicode="&#283;" /><glyph d="M35 807H163L209 732L256 807H384L265 630H154ZM23 596H386V438H194V377H386V221H194V158H386V0H23Z" glyph-name="ecaron.smcp" horiz-adv-x="406" unicode="&#57921;" /><glyph d="M277 374Q243 374 218 358.5Q193 343 179 315H372Q360 344 335.5 359Q311 374 277 374ZM218 715H329L448 538H319L272 613L226 538H99ZM277 -10Q216 -10 167 10Q118 30 84 65.5Q50 101 31.5 148.5Q13 196 13 250Q13 304 32.5 351Q52 398 87.5 433.5Q123 469 171 489.5Q219 510 276 510Q334 510 382 490.5Q430 471 464.5 436.5Q499 402 518 354.5Q537 307 537 252V194H175Q188 162 215 144.5Q242 127 280 127Q314 127 339.5 142.5Q365 158 379 184L515 116Q498 89 475 66Q452 43 423 26Q394 9 357.5 -0.5Q321 -10 277 -10Z" glyph-name="ecircumflex" horiz-adv-x="551" unicode="&#234;" /><glyph d="M151 807H262L381 630H252L205 705L159 630H32ZM23 596H386V438H194V377H386V221H194V158H386V0H23Z" glyph-name="ecircumflex.smcp" horiz-adv-x="406" unicode="&#57919;" /><glyph d="M277 374Q243 374 218 358.5Q193 343 179 315H372Q360 344 335.5 359Q311 374 277 374ZM292 706H459V538H292ZM91 706H258V538H91ZM277 -10Q216 -10 167 10Q118 30 84 65.5Q50 101 31.5 148.5Q13 196 13 250Q13 304 32.5 351Q52 398 87.5 433.5Q123 469 171 489.5Q219 510 276 510Q334 510 382 490.5Q430 471 464.5 436.5Q499 402 518 354.5Q537 307 537 252V194H175Q188 162 215 144.5Q242 127 280 127Q314 127 339.5 142.5Q365 158 379 184L515 116Q498 89 475 66Q452 43 423 26Q394 9 357.5 -0.5Q321 -10 277 -10Z" glyph-name="edieresis" horiz-adv-x="551" unicode="&#235;" /><glyph d="M222 798H389V630H222ZM21 798H188V630H21ZM23 596H386V438H194V377H386V221H194V158H386V0H23Z" glyph-name="edieresis.smcp" horiz-adv-x="406" unicode="&#57904;" /><glyph d="M277 374Q243 374 218 358.5Q193 343 179 315H372Q360 344 335.5 359Q311 374 277 374ZM196 709H368V537H196ZM277 -10Q216 -10 167 10Q118 30 84 65.5Q50 101 31.5 148.5Q13 196 13 250Q13 304 32.5 351Q52 398 87.5 433.5Q123 469 171 489.5Q219 510 276 510Q334 510 382 490.5Q430 471 464.5 436.5Q499 402 518 354.5Q537 307 537 252V194H175Q188 162 215 144.5Q242 127 280 127Q314 127 339.5 142.5Q365 158 379 184L515 116Q498 89 475 66Q452 43 423 26Q394 9 357.5 -0.5Q321 -10 277 -10Z" glyph-name="edotaccent" horiz-adv-x="551" unicode="&#279;" /><glyph d="M122 802H294V630H122ZM23 596H386V438H194V377H386V221H194V158H386V0H23Z" glyph-name="edotaccent.smcp" horiz-adv-x="406" unicode="&#57926;" /><glyph d="M277 374Q243 374 218 358.5Q193 343 179 315H372Q360 344 335.5 359Q311 374 277 374ZM70 715H238L350 538H225ZM277 -10Q216 -10 167 10Q118 30 84 65.5Q50 101 31.5 148.5Q13 196 13 250Q13 304 32.5 351Q52 398 87.5 433.5Q123 469 171 489.5Q219 510 276 510Q334 510 382 490.5Q430 471 464.5 436.5Q499 402 518 354.5Q537 307 537 252V194H175Q188 162 215 144.5Q242 127 280 127Q314 127 339.5 142.5Q365 158 379 184L515 116Q498 89 475 66Q452 43 423 26Q394 9 357.5 -0.5Q321 -10 277 -10Z" glyph-name="egrave" horiz-adv-x="551" unicode="&#232;" /><glyph d="M9 807H177L289 630H164ZM23 596H386V438H194V377H386V221H194V158H386V0H23Z" glyph-name="egrave.smcp" horiz-adv-x="406" unicode="&#57918;" /><glyph d="M302 450Q345 450 367.5 471.5Q390 493 390 523Q390 553 368 575Q346 597 304 597Q262 597 238.5 575Q215 553 215 523Q215 493 237.5 471.5Q260 450 302 450ZM301 140Q352 140 377 165.5Q402 191 402 227Q402 263 377 288.5Q352 314 303 314Q253 314 227 288.5Q201 263 201 227Q201 191 225.5 165.5Q250 140 301 140ZM301 -10Q175 -10 104.5 52.5Q34 115 34 227Q34 278 56 319.5Q78 361 116 392Q90 418 74.5 451Q59 484 59 524Q59 575 77 615Q95 655 127.5 682.5Q160 710 205 725Q250 740 304 740Q356 740 400 725Q444 710 476 682.5Q508 655 526 615Q544 575 544 524Q544 483 530 450Q516 417 492 391Q526 361 545.5 319.5Q565 278 565 227Q565 115 495 52.5Q425 -10 301 -10Z" glyph-name="eight" horiz-adv-x="598" unicode="8" /><glyph d="M268 453Q301 453 322.5 474Q344 495 344 525Q344 554 323.5 575.5Q303 597 270 597Q236 597 215.5 575.5Q195 554 195 525Q195 494 215.5 473.5Q236 453 268 453ZM267 141Q305 141 330.5 166Q356 191 356 227Q356 262 331.5 287Q307 312 269 312Q231 312 205.5 287Q180 262 180 227Q180 191 204.5 166Q229 141 267 141ZM268 -10Q214 -10 168 6Q122 22 88 53Q54 84 35 127.5Q16 171 16 227Q16 276 36 317.5Q56 359 90 390Q67 416 53 449.5Q39 483 39 525Q39 576 56 615.5Q73 655 104 683Q135 711 177 725.5Q219 740 270 740Q320 740 362 725.5Q404 711 434.5 683Q465 655 482 615.5Q499 576 499 525Q499 484 485.5 450.5Q472 417 449 391Q482 362 501 320Q520 278 520 227Q520 171 500.5 127.5Q481 84 447.5 53Q414 22 368 6Q322 -10 268 -10Z" glyph-name="eight.LP" horiz-adv-x="535" unicode="&#58685;" /><glyph d="M302 450Q345 450 367.5 471.5Q390 493 390 523Q390 553 368 575Q346 597 304 597Q262 597 238.5 575Q215 553 215 523Q215 493 237.5 471.5Q260 450 302 450ZM301 140Q352 140 377 165.5Q402 191 402 227Q402 263 377 288.5Q352 314 303 314Q253 314 227 288.5Q201 263 201 227Q201 191 225.5 165.5Q250 140 301 140ZM301 -10Q175 -10 104.5 52.5Q34 115 34 227Q34 278 56 319.5Q78 361 116 392Q90 418 74.5 451Q59 484 59 524Q59 575 77 615Q95 655 127.5 682.5Q160 710 205 725Q250 740 304 740Q356 740 400 725Q444 710 476 682.5Q508 655 526 615Q544 575 544 524Q544 483 530 450Q516 417 492 391Q526 361 545.5 319.5Q565 278 565 227Q565 115 495 52.5Q425 -10 301 -10Z" glyph-name="eight.LT" horiz-adv-x="598" unicode="&#58696;" /><glyph d="M160 270Q175 270 183 278Q191 286 191 298Q191 309 183.5 317.5Q176 326 160 326Q143 326 136 317.5Q129 309 129 298Q129 286 137 278Q145 270 160 270ZM160 102Q177 102 187 112Q197 122 197 136Q197 150 187 160Q177 170 160 170Q143 170 133 160Q123 150 123 136Q123 122 133 112Q143 102 160 102ZM160 -6Q127 -6 99 3.5Q71 13 50 31.5Q29 50 17 76.5Q5 103 5 137Q5 162 15 184.5Q25 207 42 225Q31 240 24 258Q17 276 17 298Q17 361 56.5 394.5Q96 428 160 428Q223 428 263 394.5Q303 361 303 298Q303 258 281 228Q297 211 306 188Q315 165 315 137Q315 103 303 76.5Q291 50 270 31.5Q249 13 221 3.5Q193 -6 160 -6Z" glyph-name="eight.inf" horiz-adv-x="320" unicode="&#58745;" /><glyph d="M1310 112Q1330 112 1343.5 125Q1357 138 1357 157Q1357 176 1343.5 189Q1330 202 1310 202Q1291 202 1278.5 189Q1266 176 1266 157Q1266 138 1278.5 125Q1291 112 1310 112ZM848 117H929V257Q919 243 903 238Q887 233 867 233H861V350H864Q885 350 898.5 357Q912 364 919.5 374.5Q927 385 930 398Q933 411 933 422H1056V117H1133V0H848ZM306 425H387V565Q377 551 361 546Q345 541 325 541H319V658H322Q343 658 356.5 665Q370 672 377.5 682.5Q385 693 388 706Q391 719 391 730H514V425H591V308H306ZM10 425H91V565Q81 551 65 546Q49 541 29 541H23V658H26Q47 658 60.5 665Q74 672 81.5 682.5Q89 693 92 706Q95 719 95 730H218V425H295V308H10ZM1310 -6Q1272 -6 1240.5 6.5Q1209 19 1186.5 40.5Q1164 62 1151.5 91.5Q1139 121 1139 156Q1139 188 1153 222Q1167 256 1184 284L1271 422H1415L1346 311Q1404 306 1443 265.5Q1482 225 1482 156Q1482 121 1470 91.5Q1458 62 1435 40.5Q1412 19 1380.5 6.5Q1349 -6 1310 -6ZM910 730H1105L578 0H383Z" glyph-name="elevensixteenths" horiz-adv-x="1489" unicode="&#61984;" /><glyph d="M440 175H613V0H440ZM231 175H405V0H231ZM23 175H196V0H23Z" glyph-name="ellipsis" horiz-adv-x="636" unicode="&#8230;" /><glyph d="M277 374Q243 374 218 358.5Q193 343 179 315H372Q360 344 335.5 359Q311 374 277 374ZM136 651H414V538H136ZM277 -10Q216 -10 167 10Q118 30 84 65.5Q50 101 31.5 148.5Q13 196 13 250Q13 304 32.5 351Q52 398 87.5 433.5Q123 469 171 489.5Q219 510 276 510Q334 510 382 490.5Q430 471 464.5 436.5Q499 402 518 354.5Q537 307 537 252V194H175Q188 162 215 144.5Q242 127 280 127Q314 127 339.5 142.5Q365 158 379 184L515 116Q498 89 475 66Q452 43 423 26Q394 9 357.5 -0.5Q321 -10 277 -10Z" glyph-name="emacron" horiz-adv-x="551" unicode="&#275;" /><glyph d="M67 743H345V630H67ZM23 596H386V438H194V377H386V221H194V158H386V0H23Z" glyph-name="emacron.smcp" horiz-adv-x="406" unicode="&#57922;" /><glyph d="M23 326H620V182H23Z" glyph-name="emdash" horiz-adv-x="643" unicode="&#8212;" /><glyph d="M23 436H620V292H23Z" glyph-name="emdash.cap" horiz-adv-x="643" unicode="&#58502;" /><glyph d="M23 326H420V182H23Z" glyph-name="endash" horiz-adv-x="443" unicode="&#8211;" /><glyph d="M23 436H420V292H23Z" glyph-name="endash.cap" horiz-adv-x="443" unicode="&#58500;" /><glyph d="M247 -76Q275 -76 291 -73.5Q307 -71 314.5 -62.5Q322 -54 323.5 -39Q325 -24 325 1V282Q325 321 309 342Q293 363 260 363Q231 363 212 341.5Q193 320 193 275V0H23V500H192V444Q215 475 247.5 492.5Q280 510 321 510Q402 510 450 460Q498 410 498 319V-1Q498 -66 487 -110Q476 -154 449.5 -181Q423 -208 379 -219.5Q335 -231 268 -231H247Z" glyph-name="eng" horiz-adv-x="521" unicode="&#331;" /><glyph d="M295 -76Q323 -76 339 -73.5Q355 -71 362.5 -62.5Q370 -54 371.5 -39Q373 -24 373 1V19L194 303V0H23V596H199L373 319V596H545V-1Q545 -66 534 -110Q523 -154 497 -181Q471 -208 426.5 -219.5Q382 -231 316 -231H295Z" glyph-name="eng.smcp" horiz-adv-x="567" unicode="&#58155;" /><glyph d="M277 374Q243 374 218 358.5Q193 343 179 315H372Q360 344 335.5 359Q311 374 277 374ZM282 -228Q212 -228 170.5 -195Q129 -162 129 -110Q129 -81 142 -54.5Q155 -28 192 1Q107 26 60 93.5Q13 161 13 250Q13 304 32.5 351Q52 398 87.5 433.5Q123 469 171 489.5Q219 510 276 510Q334 510 382 490.5Q430 471 464.5 436.5Q499 402 518 354.5Q537 307 537 252V194H175Q188 162 215 144.5Q242 127 280 127Q314 127 339.5 142.5Q365 158 379 184L515 116Q492 80 458.5 51Q425 22 379 6Q338 -23 313 -41Q288 -59 274.5 -70Q261 -81 256.5 -88.5Q252 -96 252 -103Q252 -116 261 -121Q270 -126 283 -126Q300 -126 312.5 -116.5Q325 -107 335 -98L438 -158Q410 -188 369 -208Q328 -228 282 -228Z" glyph-name="eogonek" horiz-adv-x="551" unicode="&#281;" /><glyph d="M23 596H386V438H194V377H386V221H194V158H386V0H384Q341 -30 315 -49Q289 -68 275 -79.5Q261 -91 256.5 -98.5Q252 -106 252 -113Q252 -126 261 -131Q270 -136 283 -136Q300 -136 312.5 -126.5Q325 -117 335 -108L438 -168Q410 -198 369 -218Q328 -238 282 -238Q212 -238 170.5 -205Q129 -172 129 -120Q129 -90 144 -61Q159 -32 203 0H23Z" glyph-name="eogonek.smcp" horiz-adv-x="406" unicode="&#57929;" /><glyph d="M23 346H393V207H23ZM23 519H393V381H23Z" glyph-name="equal" horiz-adv-x="415" unicode="=" /><glyph d="M9 206H223V109H9ZM9 317H223V222H9Z" glyph-name="equal.inf" horiz-adv-x="232" unicode="&#58749;" /><glyph d="M23 605H393V467H23ZM23 259H393V121H23ZM23 432H393V294H23Z" glyph-name="equivalence" horiz-adv-x="415" unicode="&#8801;" /><glyph d="M278 143Q299 143 317.5 151.5Q336 160 349.5 174Q363 188 371 207Q379 226 379 247Q379 269 371.5 288Q364 307 350.5 321Q337 335 318.5 343.5Q300 352 279 352Q258 352 239 344Q220 336 206.5 322Q193 308 185 288.5Q177 269 177 247Q177 202 206.5 172.5Q236 143 278 143ZM197 612Q130 668 39 730H265Q276 722 286 713Q296 704 306 696L350 730H513L377 627Q466 532 504 438.5Q542 345 542 267Q542 205 522 154.5Q502 104 466.5 67Q431 30 382 10Q333 -10 276 -10Q222 -10 174 8.5Q126 27 90.5 60.5Q55 94 34 141.5Q13 189 13 247Q13 303 32 347.5Q51 392 83.5 423.5Q116 455 160 472Q204 489 254 489Q276 489 295.5 483.5Q315 478 332 470Q318 489 303 507.5Q288 526 269 546L222 510H64Z" glyph-name="eth" horiz-adv-x="557" unicode="&#240;" /><glyph d="M227 229V162H251Q312 162 347.5 201Q383 240 383 301Q383 361 348.5 397.5Q314 434 251 434H227V368H306V229ZM15 368H55V596H251Q319 596 376 573.5Q433 551 473.5 511.5Q514 472 536.5 418Q559 364 559 301Q559 237 537 182Q515 127 474.5 86.5Q434 46 377 23Q320 0 251 0H55V229H15Z" glyph-name="eth.smcp" horiz-adv-x="577" unicode="&#58156;" /><glyph d="M23 175H196V0H23ZM61 210Q44 311 33.5 411.5Q23 512 23 613V730H196V613Q196 512 186 411.5Q176 311 159 210Z" glyph-name="exclam" horiz-adv-x="219" unicode="!" /><glyph d="M23 500H196V326H23ZM23 -113Q23 -12 33 88.5Q43 189 60 290H158Q175 189 185.5 88.5Q196 -12 196 -113V-230H23Z" glyph-name="exclamdown" horiz-adv-x="219" unicode="&#161;" /><glyph d="M23 730H196V556H23ZM23 117Q23 218 33 318.5Q43 419 60 520H158Q175 419 185.5 318.5Q196 218 196 117V0H23Z" glyph-name="exclamdown.cap" horiz-adv-x="219" unicode="&#58433;" /><glyph d="M18 500H92Q92 564 104 608Q116 652 143.5 679Q171 706 216 718Q261 730 327 730H345V566Q315 566 298 564Q281 562 272.5 556Q264 550 261.5 538.5Q259 527 259 508V500H345V350H259V0H92V350H18Z" glyph-name="f" horiz-adv-x="363" unicode="f" /><glyph d="M23 596H371V436H194V374H371V216H194V0H23Z" glyph-name="f.smcp" horiz-adv-x="391" unicode="&#57862;" /><glyph d="M380 709H554V534H380ZM380 500H554V0H380ZM18 500H92Q92 564 104 608Q116 652 143.5 679Q171 706 216 718Q261 730 327 730H345V566Q315 566 298 564Q281 562 272.5 556Q264 550 261.5 538.5Q259 527 259 508V500H345V350H259V0H92V350H18Z" glyph-name="fi" horiz-adv-x="576" unicode="&#64257;" /><glyph d="M1300 112Q1320 112 1333.5 125Q1347 138 1347 157Q1347 176 1333.5 189Q1320 202 1300 202Q1281 202 1268.5 189Q1256 176 1256 157Q1256 138 1268.5 125Q1281 112 1300 112ZM9 425H90V565Q80 551 64 546Q48 541 28 541H22V658H25Q46 658 59.5 665Q73 672 80.5 682.5Q88 693 91 706Q94 719 94 730H217V425H294V308H9ZM838 117H919V257Q909 243 893 238Q877 233 857 233H851V350H854Q875 350 888.5 357Q902 364 909.5 374.5Q917 385 920 398Q923 411 923 422H1046V117H1123V0H838ZM456 302Q405 302 363.5 322Q322 342 300 376L423 442Q434 422 456 422Q470 422 478.5 430Q487 438 487 452Q487 466 478 473Q469 480 455 480Q444 480 434.5 473.5Q425 467 423 459L306 495L338 730H583V614H435L430 582Q439 585 449.5 587Q460 589 473 589Q538 589 575.5 554.5Q613 520 613 453Q613 418 601 390Q589 362 568 342.5Q547 323 518 312.5Q489 302 456 302ZM1300 -6Q1262 -6 1230.5 6.5Q1199 19 1176.5 40.5Q1154 62 1141.5 91.5Q1129 121 1129 156Q1129 188 1143 222Q1157 256 1174 284L1261 422H1405L1336 311Q1394 306 1433 265.5Q1472 225 1472 156Q1472 121 1460 91.5Q1448 62 1425 40.5Q1402 19 1370.5 6.5Q1339 -6 1300 -6ZM900 730H1095L568 0H373Z" glyph-name="fifteensixteenths" horiz-adv-x="1478" unicode="&#61986;" /><glyph d="M23 326H565V182H23Z" glyph-name="figuredash" horiz-adv-x="588" unicode="&#8210;" /><glyph d="M23 436H565V292H23Z" glyph-name="figuredash.cap" horiz-adv-x="588" unicode="&#58503;" /><glyph d="M296 -10Q199 -10 129 27.5Q59 65 24 128L192 219Q204 187 230 170Q256 153 297 153Q339 153 366.5 180Q394 207 394 249Q394 291 368.5 319Q343 347 292 347Q255 347 230.5 331Q206 315 192 292L35 353L84 730H532V569H225L213 479Q235 489 261 494.5Q287 500 319 500Q374 500 420 483.5Q466 467 498.5 435Q531 403 549 355.5Q567 308 567 246Q567 190 548 143.5Q529 97 493.5 62.5Q458 28 408 9Q358 -10 296 -10Z" glyph-name="five" horiz-adv-x="598" unicode="5" /><glyph d="M265 -10Q171 -10 105.5 28.5Q40 67 8 127L173 216Q185 188 207.5 170.5Q230 153 266 153Q301 153 326 177Q351 201 351 239Q351 277 327 302Q303 327 262 327Q230 327 208 310.5Q186 294 173 270L16 333L70 730H484V569H206L190 464Q210 473 233.5 478.5Q257 484 286 484Q337 484 381 467.5Q425 451 456.5 420Q488 389 506 343Q524 297 524 239Q524 183 504.5 137Q485 91 450.5 58.5Q416 26 368.5 8Q321 -10 265 -10Z" glyph-name="five.LP" horiz-adv-x="537" unicode="&#58682;" /><glyph d="M296 -10Q199 -10 129 27.5Q59 65 24 128L192 219Q204 187 230 170Q256 153 297 153Q339 153 366.5 180Q394 207 394 249Q394 291 368.5 319Q343 347 292 347Q255 347 230.5 331Q206 315 192 292L35 353L84 730H532V569H225L213 479Q235 489 261 494.5Q287 500 319 500Q374 500 420 483.5Q466 467 498.5 435Q531 403 549 355.5Q567 308 567 246Q567 190 548 143.5Q529 97 493.5 62.5Q458 28 408 9Q358 -10 296 -10Z" glyph-name="five.LT" horiz-adv-x="598" unicode="&#58693;" /><glyph d="M154 -6Q103 -6 61 14Q19 34 -3 68L121 134Q132 114 154 114Q168 114 176.5 122Q185 130 185 144Q185 158 175.5 165Q166 172 152 172Q141 172 132 165.5Q123 159 120 151L3 187L36 422H280V306H133L127 274Q136 277 147 279Q158 281 171 281Q235 281 273 246.5Q311 212 311 145Q311 110 299 82Q287 54 266 34.5Q245 15 216 4.5Q187 -6 154 -6Z" glyph-name="five.inf" horiz-adv-x="316" unicode="&#58742;" /><glyph d="M998 112Q1018 112 1031.5 125Q1045 138 1045 157Q1045 176 1031.5 189Q1018 202 998 202Q979 202 966.5 189Q954 176 954 157Q954 138 966.5 125Q979 112 998 112ZM536 117H617V257Q607 243 591 238Q575 233 555 233H549V350H552Q573 350 586.5 357Q600 364 607.5 374.5Q615 385 618 398Q621 411 621 422H744V117H821V0H536ZM154 302Q103 302 61 322Q19 342 -3 376L121 442Q132 422 154 422Q168 422 176.5 430Q185 438 185 452Q185 466 175.5 473Q166 480 152 480Q141 480 132 473.5Q123 467 120 459L3 495L36 730H280V614H133L127 582Q136 585 147 587Q158 589 171 589Q235 589 273 554.5Q311 520 311 453Q311 418 299 390Q287 362 266 342.5Q245 323 216 312.5Q187 302 154 302ZM998 -6Q960 -6 928.5 6.5Q897 19 874.5 40.5Q852 62 839.5 91.5Q827 121 827 156Q827 188 841 222Q855 256 872 284L959 422H1103L1034 311Q1092 306 1131 265.5Q1170 225 1170 156Q1170 121 1158 91.5Q1146 62 1123 40.5Q1100 19 1068.5 6.5Q1037 -6 998 -6ZM597 730H792L265 0H70Z" glyph-name="fivesixteenths" horiz-adv-x="1176" unicode="&#61975;" /><glyph d="M380 730H547V0H380ZM18 500H92Q92 564 104 608Q116 652 143.5 679Q171 706 216 718Q261 730 327 730H345V566Q315 566 298 564Q281 562 272.5 556Q264 550 261.5 538.5Q259 527 259 508V500H345V350H259V0H92V350H18Z" glyph-name="fl" horiz-adv-x="569" unicode="&#64258;" /><glyph d="M41 443H228L247 508Q266 571 290.5 613.5Q315 656 350 682Q385 708 433 719Q481 730 546 730H559V569Q523 569 499 566Q475 563 459 554.5Q443 546 434 531Q425 516 418 492L403 443H559V288H356L337 223Q319 162 296.5 119.5Q274 77 242 50.5Q210 24 165.5 12Q121 0 59 0H41V161Q71 161 91.5 164Q112 167 126.5 175.5Q141 184 150.5 199Q160 214 167 238L182 288H41Z" glyph-name="florin" horiz-adv-x="598" unicode="&#402;" /><glyph d="M23 443H177L194 506Q212 576 241 620Q270 664 305 688.5Q340 713 380 721.5Q420 730 460 730H473V569Q462 569 446 567.5Q430 566 414.5 558.5Q399 551 385 536.5Q371 522 365 496L351 443H473V288H310L293 224Q275 156 250.5 112.5Q226 69 194 44Q162 19 122.5 9.5Q83 0 36 0H23V161Q36 161 51 162Q66 163 79.5 170Q93 177 104.5 192Q116 207 123 234L137 288H23Z" glyph-name="florin.LP" horiz-adv-x="496" unicode="&#58661;" /><glyph d="M41 443H228L247 508Q266 571 290.5 613.5Q315 656 350 682Q385 708 433 719Q481 730 546 730H559V569Q523 569 499 566Q475 563 459 554.5Q443 546 434 531Q425 516 418 492L403 443H559V288H356L337 223Q319 162 296.5 119.5Q274 77 242 50.5Q210 24 165.5 12Q121 0 59 0H41V161Q71 161 91.5 164Q112 167 126.5 175.5Q141 184 150.5 199Q160 214 167 238L182 288H41Z" glyph-name="florin.LT" horiz-adv-x="598" unicode="&#62568;" /><glyph d="M324 308V473L215 308ZM324 158H38V313L314 730H487V308H561V158H487V0H324Z" glyph-name="four" horiz-adv-x="598" unicode="4" /><glyph d="M322 305V473L205 305ZM322 153H23V309L318 730H486V305H593V153H486V0H322Z" glyph-name="four.LP" horiz-adv-x="615" unicode="&#58681;" /><glyph d="M324 308V473L215 308ZM324 158H38V313L314 730H487V308H561V158H487V0H324Z" glyph-name="four.LT" horiz-adv-x="598" unicode="&#58692;" /><glyph d="M171 184V235L136 184ZM171 78H7V189L171 422H287V184H349V78H287V0H171Z" glyph-name="four.inf" horiz-adv-x="356" unicode="&#58741;" /><glyph d="M527 730H722L195 0H0Z" glyph-name="fraction" horiz-adv-x="721" unicode="&#8260;" /><glyph d="M23 730H440V568H196V482H440V337H196V298H440V153H196V0H23Z" glyph-name="franc" horiz-adv-x="462" unicode="&#8355;" /><glyph d="M282 147Q325 147 352.5 177Q380 207 380 251Q380 295 352.5 325Q325 355 282 355Q239 355 210.5 325.5Q182 296 182 251Q182 206 210.5 176.5Q239 147 282 147ZM238 -10Q195 -10 155 7.5Q115 25 83.5 58.5Q52 92 33 140.5Q14 189 14 250Q14 310 33 358.5Q52 407 83.5 440.5Q115 474 156 492Q197 510 241 510Q288 510 320.5 492Q353 474 374 444V500H542V9Q542 -45 526.5 -91Q511 -137 479 -170.5Q447 -204 399 -223.5Q351 -243 286 -243Q193 -243 127.5 -204Q62 -165 26 -104L190 -28Q204 -57 227.5 -74Q251 -91 286 -91Q328 -91 350.5 -64.5Q373 -38 373 6V56Q351 24 317 7Q283 -10 238 -10Z" glyph-name="g" horiz-adv-x="565" unicode="g" /><glyph d="M194 -63Q168 -62 159.5 -70.5Q151 -79 151 -87Q151 -96 163 -104Q175 -112 217 -112H295Q319 -112 333.5 -109.5Q348 -107 356 -102.5Q364 -98 367 -93.5Q370 -89 370 -84Q370 -75 360.5 -69Q351 -63 324 -63ZM227 249Q251 249 267.5 265.5Q284 282 284 307Q284 332 267.5 348.5Q251 365 227 365Q204 365 188 348.5Q172 332 172 307Q172 282 188 265.5Q204 249 227 249ZM253 -258Q184 -258 137.5 -247Q91 -236 62.5 -217.5Q34 -199 22 -175.5Q10 -152 10 -126Q10 -91 27 -69Q44 -47 71 -35Q38 -21 24 5.5Q10 32 10 66Q10 100 30 125Q50 150 85 164Q56 190 39 225.5Q22 261 22 306Q22 349 38 386.5Q54 424 82 452Q110 480 147 496Q184 512 226 512Q280 512 320.5 490.5Q361 469 387 431Q398 473 425 488.5Q452 504 494 504H500V340H471Q449 340 441 335.5Q433 331 433 306Q433 263 418.5 226Q404 189 378 161.5Q352 134 316.5 118.5Q281 103 238 103H156Q141 103 134.5 98Q128 93 128 87Q128 81 134 76Q140 71 158 71H327Q415 71 461.5 31.5Q508 -8 508 -78Q508 -117 492 -150Q476 -183 443.5 -207Q411 -231 363.5 -244.5Q316 -258 253 -258Z" glyph-name="g.alt" horiz-adv-x="513" unicode="&#58566;" /><glyph d="M330 -8Q254 -8 195 16.5Q136 41 96 83Q56 125 35 180.5Q14 236 14 298Q14 364 36.5 420Q59 476 100 517Q141 558 197.5 581Q254 604 323 604Q418 604 485.5 563.5Q553 523 593 462L434 384Q418 411 390.5 426.5Q363 442 324 442Q296 442 271 432Q246 422 227.5 403.5Q209 385 198 358.5Q187 332 187 299Q187 229 224.5 191.5Q262 154 325 154Q363 154 389.5 170Q416 186 429 218H279V363H617V280Q617 221 596 169Q575 117 536.5 77.5Q498 38 445.5 15Q393 -8 330 -8Z" glyph-name="g.smcp" horiz-adv-x="632" unicode="&#57863;" /><glyph d="M282 147Q325 147 352.5 177Q380 207 380 251Q380 295 352.5 325Q325 355 282 355Q239 355 210.5 325.5Q182 296 182 251Q182 206 210.5 176.5Q239 147 282 147ZM298 534Q215 534 175 580.5Q135 627 135 712H242Q242 673 256 655.5Q270 638 298 637Q327 638 341 655.5Q355 673 355 712H463Q463 627 419.5 580.5Q376 534 298 534ZM238 -10Q195 -10 155 7.5Q115 25 83.5 58.5Q52 92 33 140.5Q14 189 14 250Q14 310 33 358.5Q52 407 83.5 440.5Q115 474 156 492Q197 510 241 510Q288 510 320.5 492Q353 474 374 444V500H542V9Q542 -45 526.5 -91Q511 -137 479 -170.5Q447 -204 399 -223.5Q351 -243 286 -243Q193 -243 127.5 -204Q62 -165 26 -104L190 -28Q204 -57 227.5 -74Q251 -91 286 -91Q328 -91 350.5 -64.5Q373 -38 373 6V56Q351 24 317 7Q283 -10 238 -10Z" glyph-name="gbreve" horiz-adv-x="565" unicode="&#287;" /><glyph d="M188 -63Q165 -64 158 -71.5Q151 -79 151 -87Q151 -96 163 -104Q175 -112 217 -112H295Q319 -112 333.5 -109.5Q348 -107 356 -102.5Q364 -98 367 -93.5Q370 -89 370 -84Q370 -75 360.5 -69Q351 -63 324 -63ZM227 249Q251 249 267.5 265.5Q284 282 284 307Q284 332 267.5 348.5Q251 365 227 365Q204 365 188 348.5Q172 332 172 307Q172 282 188 265.5Q204 249 227 249ZM228 534Q145 534 105 580.5Q65 627 65 712H172Q172 673 186 655.5Q200 638 228 637Q257 638 271 655.5Q285 673 285 712H393Q393 627 349.5 580.5Q306 534 228 534ZM253 -258Q184 -258 137.5 -247Q91 -236 62.5 -217.5Q34 -199 22 -175.5Q10 -152 10 -126Q10 -91 27 -69Q44 -47 71 -35Q38 -21 24 5.5Q10 32 10 66Q10 100 30 125Q50 150 85 164Q56 190 39 225.5Q22 261 22 306Q22 349 38 386.5Q54 424 82 452Q110 480 147 496Q184 512 226 512Q280 512 320.5 490.5Q361 469 387 431Q398 473 425 488.5Q452 504 494 504H500V340H471Q449 340 441 335.5Q433 331 433 306Q433 263 418.5 226Q404 189 378 161.5Q352 134 316.5 118.5Q281 103 238 103H156Q141 103 134.5 98Q128 93 128 87Q128 81 134 76Q140 71 158 71H327Q415 71 461.5 31.5Q508 -8 508 -78Q508 -117 492 -150Q476 -183 443.5 -207Q411 -231 363.5 -244.5Q316 -258 253 -258Z" glyph-name="gbreve.alt" horiz-adv-x="513" unicode="&#59664;" /><glyph d="M325 629Q242 629 202 675.5Q162 722 162 807H269Q269 768 283 750.5Q297 733 325 732Q354 733 368 750.5Q382 768 382 807H490Q490 722 446.5 675.5Q403 629 325 629ZM330 -8Q254 -8 195 16.5Q136 41 96 83Q56 125 35 180.5Q14 236 14 298Q14 364 36.5 420Q59 476 100 517Q141 558 197.5 581Q254 604 323 604Q418 604 485.5 563.5Q553 523 593 462L434 384Q418 411 390.5 426.5Q363 442 324 442Q296 442 271 432Q246 422 227.5 403.5Q209 385 198 358.5Q187 332 187 299Q187 229 224.5 191.5Q262 154 325 154Q363 154 389.5 170Q416 186 429 218H279V363H617V280Q617 221 596 169Q575 117 536.5 77.5Q498 38 445.5 15Q393 -8 330 -8Z" glyph-name="gbreve.smcp" horiz-adv-x="632" unicode="&#57934;" /><glyph d="M282 147Q325 147 352.5 177Q380 207 380 251Q380 295 352.5 325Q325 355 282 355Q239 355 210.5 325.5Q182 296 182 251Q182 206 210.5 176.5Q239 147 282 147ZM243 715H354L473 538H344L297 613L251 538H124ZM238 -10Q195 -10 155 7.5Q115 25 83.5 58.5Q52 92 33 140.5Q14 189 14 250Q14 310 33 358.5Q52 407 83.5 440.5Q115 474 156 492Q197 510 241 510Q288 510 320.5 492Q353 474 374 444V500H542V9Q542 -45 526.5 -91Q511 -137 479 -170.5Q447 -204 399 -223.5Q351 -243 286 -243Q193 -243 127.5 -204Q62 -165 26 -104L190 -28Q204 -57 227.5 -74Q251 -91 286 -91Q328 -91 350.5 -64.5Q373 -38 373 6V56Q351 24 317 7Q283 -10 238 -10Z" glyph-name="gcircumflex" horiz-adv-x="565" unicode="&#285;" /><glyph d="M185 -63Q165 -64 158 -71.5Q151 -79 151 -87Q151 -96 163 -104Q175 -112 217 -112H295Q319 -112 333.5 -109.5Q348 -107 356 -102.5Q364 -98 367 -93.5Q370 -89 370 -84Q370 -75 360.5 -69Q351 -63 324 -63ZM227 249Q251 249 267.5 265.5Q284 282 284 307Q284 332 267.5 348.5Q251 365 227 365Q204 365 188 348.5Q172 332 172 307Q172 282 188 265.5Q204 249 227 249ZM173 715H284L403 538H274L227 613L181 538H54ZM253 -258Q184 -258 137.5 -247Q91 -236 62.5 -217.5Q34 -199 22 -175.5Q10 -152 10 -126Q10 -91 27 -69Q44 -47 71 -35Q38 -21 24 5.5Q10 32 10 66Q10 100 30 125Q50 150 85 164Q56 190 39 225.5Q22 261 22 306Q22 349 38 386.5Q54 424 82 452Q110 480 147 496Q184 512 226 512Q280 512 320.5 490.5Q361 469 387 431Q398 473 425 488.5Q452 504 494 504H500V340H471Q449 340 441 335.5Q433 331 433 306Q433 263 418.5 226Q404 189 378 161.5Q352 134 316.5 118.5Q281 103 238 103H156Q141 103 134.5 98Q128 93 128 87Q128 81 134 76Q140 71 158 71H327Q415 71 461.5 31.5Q508 -8 508 -78Q508 -117 492 -150Q476 -183 443.5 -207Q411 -231 363.5 -244.5Q316 -258 253 -258Z" glyph-name="gcircumflex.alt" horiz-adv-x="513" unicode="&#59662;" /><glyph d="M272 809H383L502 632H373L326 707L280 632H153ZM330 -8Q254 -8 195 16.5Q136 41 96 83Q56 125 35 180.5Q14 236 14 298Q14 364 36.5 420Q59 476 100 517Q141 558 197.5 581Q254 604 323 604Q418 604 485.5 563.5Q553 523 593 462L434 384Q418 411 390.5 426.5Q363 442 324 442Q296 442 271 432Q246 422 227.5 403.5Q209 385 198 358.5Q187 332 187 299Q187 229 224.5 191.5Q262 154 325 154Q363 154 389.5 170Q416 186 429 218H279V363H617V280Q617 221 596 169Q575 117 536.5 77.5Q498 38 445.5 15Q393 -8 330 -8Z" glyph-name="gcircumflex.smcp" horiz-adv-x="632" unicode="&#57931;" /><glyph d="M229 537 269 760H434L357 537ZM282 147Q325 147 352.5 177Q380 207 380 251Q380 295 352.5 325Q325 355 282 355Q239 355 210.5 325.5Q182 296 182 251Q182 206 210.5 176.5Q239 147 282 147ZM238 -10Q195 -10 155 7.5Q115 25 83.5 58.5Q52 92 33 140.5Q14 189 14 250Q14 310 33 358.5Q52 407 83.5 440.5Q115 474 156 492Q197 510 241 510Q288 510 320.5 492Q353 474 374 444V500H542V9Q542 -45 526.5 -91Q511 -137 479 -170.5Q447 -204 399 -223.5Q351 -243 286 -243Q193 -243 127.5 -204Q62 -165 26 -104L190 -28Q204 -57 227.5 -74Q251 -91 286 -91Q328 -91 350.5 -64.5Q373 -38 373 6V56Q351 24 317 7Q283 -10 238 -10Z" glyph-name="gcommaaccent" horiz-adv-x="565" unicode="&#291;" /><glyph d="M188 -63Q165 -64 158 -71.5Q151 -79 151 -87Q151 -96 163 -104Q175 -112 217 -112H295Q319 -112 333.5 -109.5Q348 -107 356 -102.5Q364 -98 367 -93.5Q370 -89 370 -84Q370 -75 360.5 -69Q351 -63 324 -63ZM227 249Q251 249 267.5 265.5Q284 282 284 307Q284 332 267.5 348.5Q251 365 227 365Q204 365 188 348.5Q172 332 172 307Q172 282 188 265.5Q204 249 227 249ZM166 537 206 760H371L294 537ZM253 -258Q184 -258 137.5 -247Q91 -236 62.5 -217.5Q34 -199 22 -175.5Q10 -152 10 -126Q10 -91 27 -69Q44 -47 71 -35Q38 -21 24 5.5Q10 32 10 66Q10 100 30 125Q50 150 85 164Q56 190 39 225.5Q22 261 22 306Q22 349 38 386.5Q54 424 82 452Q110 480 147 496Q184 512 226 512Q280 512 320.5 490.5Q361 469 387 431Q398 473 425 488.5Q452 504 494 504H500V340H471Q449 340 441 335.5Q433 331 433 306Q433 263 418.5 226Q404 189 378 161.5Q352 134 316.5 118.5Q281 103 238 103H156Q141 103 134.5 98Q128 93 128 87Q128 81 134 76Q140 71 158 71H327Q415 71 461.5 31.5Q508 -8 508 -78Q508 -117 492 -150Q476 -183 443.5 -207Q411 -231 363.5 -244.5Q316 -258 253 -258Z" glyph-name="gcommaaccent.alt" horiz-adv-x="513" unicode="&#59665;" /><glyph d="M207 -258 247 -35H412L335 -258ZM330 -8Q254 -8 195 16.5Q136 41 96 83Q56 125 35 180.5Q14 236 14 298Q14 364 36.5 420Q59 476 100 517Q141 558 197.5 581Q254 604 323 604Q418 604 485.5 563.5Q553 523 593 462L434 384Q418 411 390.5 426.5Q363 442 324 442Q296 442 271 432Q246 422 227.5 403.5Q209 385 198 358.5Q187 332 187 299Q187 229 224.5 191.5Q262 154 325 154Q363 154 389.5 170Q416 186 429 218H279V363H617V280Q617 221 596 169Q575 117 536.5 77.5Q498 38 445.5 15Q393 -8 330 -8Z" glyph-name="gcommaaccent.smcp" horiz-adv-x="632" unicode="&#57920;" /><glyph d="M209 709H381V537H209ZM282 147Q325 147 352.5 177Q380 207 380 251Q380 295 352.5 325Q325 355 282 355Q239 355 210.5 325.5Q182 296 182 251Q182 206 210.5 176.5Q239 147 282 147ZM238 -10Q195 -10 155 7.5Q115 25 83.5 58.5Q52 92 33 140.5Q14 189 14 250Q14 310 33 358.5Q52 407 83.5 440.5Q115 474 156 492Q197 510 241 510Q288 510 320.5 492Q353 474 374 444V500H542V9Q542 -45 526.5 -91Q511 -137 479 -170.5Q447 -204 399 -223.5Q351 -243 286 -243Q193 -243 127.5 -204Q62 -165 26 -104L190 -28Q204 -57 227.5 -74Q251 -91 286 -91Q328 -91 350.5 -64.5Q373 -38 373 6V56Q351 24 317 7Q283 -10 238 -10Z" glyph-name="gdotaccent" horiz-adv-x="565" unicode="&#289;" /><glyph d="M194 -63Q168 -62 159.5 -70.5Q151 -79 151 -87Q151 -96 163 -104Q175 -112 217 -112H295Q319 -112 333.5 -109.5Q348 -107 356 -102.5Q364 -98 367 -93.5Q370 -89 370 -84Q370 -75 360.5 -69Q351 -63 324 -63ZM227 249Q251 249 267.5 265.5Q284 282 284 307Q284 332 267.5 348.5Q251 365 227 365Q204 365 188 348.5Q172 332 172 307Q172 282 188 265.5Q204 249 227 249ZM145 709H317V537H145ZM253 -258Q184 -258 137.5 -247Q91 -236 62.5 -217.5Q34 -199 22 -175.5Q10 -152 10 -126Q10 -91 27 -69Q44 -47 71 -35Q38 -21 24 5.5Q10 32 10 66Q10 100 30 125Q50 150 85 164Q56 190 39 225.5Q22 261 22 306Q22 349 38 386.5Q54 424 82 452Q110 480 147 496Q184 512 226 512Q280 512 320.5 490.5Q361 469 387 431Q398 473 425 488.5Q452 504 494 504H500V340H471Q449 340 441 335.5Q433 331 433 306Q433 263 418.5 226Q404 189 378 161.5Q352 134 316.5 118.5Q281 103 238 103H156Q141 103 134.5 98Q128 93 128 87Q128 81 134 76Q140 71 158 71H327Q415 71 461.5 31.5Q508 -8 508 -78Q508 -117 492 -150Q476 -183 443.5 -207Q411 -231 363.5 -244.5Q316 -258 253 -258Z" glyph-name="gdotaccent.alt" horiz-adv-x="513" unicode="&#59663;" /><glyph d="M239 805H411V633H239ZM330 -8Q254 -8 195 16.5Q136 41 96 83Q56 125 35 180.5Q14 236 14 298Q14 364 36.5 420Q59 476 100 517Q141 558 197.5 581Q254 604 323 604Q418 604 485.5 563.5Q553 523 593 462L434 384Q418 411 390.5 426.5Q363 442 324 442Q296 442 271 432Q246 422 227.5 403.5Q209 385 198 358.5Q187 332 187 299Q187 229 224.5 191.5Q262 154 325 154Q363 154 389.5 170Q416 186 429 218H279V363H617V280Q617 221 596 169Q575 117 536.5 77.5Q498 38 445.5 15Q393 -8 330 -8Z" glyph-name="gdotaccent.smcp" horiz-adv-x="632" unicode="&#57935;" /><glyph d="M-56 -77Q-27 -77 -11 -74.5Q5 -72 12.5 -64Q20 -56 21.5 -41Q23 -26 23 -1V501Q21 552 36.5 595Q52 638 83 668.5Q114 699 160 716.5Q206 734 265 734Q318 734 361.5 719Q405 704 436 676Q467 648 484 609Q501 570 501 522Q501 474 480 438Q459 402 423 379Q471 356 496.5 315Q522 274 522 219Q522 170 505.5 128Q489 86 457 55.5Q425 25 378.5 7.5Q332 -10 273 -10Q270 -10 263.5 -10Q257 -10 249.5 -10Q242 -10 235 -9.5Q228 -9 225 -9V143H270Q304 143 325.5 164Q347 185 347 220Q347 254 322 275Q297 296 255 296H225V445H249Q289 445 311 466Q333 487 333 520Q333 551 314.5 570.5Q296 590 262 590Q227 590 208.5 570.5Q190 551 190 513V-2Q190 -67 180 -111Q170 -155 144.5 -182Q119 -209 75.5 -220.5Q32 -232 -35 -232H-56Z" glyph-name="germandbls" horiz-adv-x="536" unicode="&#223;" /><glyph d="M81 720H249L361 543H236Z" glyph-name="grave" horiz-adv-x="452" unicode="`" /><glyph d="M25 308 206 362 25 417V563L395 434V291L25 162Z" glyph-name="greater" horiz-adv-x="421" unicode="&gt;" /><glyph d="M24 231H394V89H24ZM24 402 204 456 24 510V657L394 527V385L24 255Z" glyph-name="greaterequal" horiz-adv-x="421" unicode="&#8805;" /><glyph d="M243 209V302L438 413V302L350 256L438 209V98ZM28 209V302L223 413V302L135 256L223 209V98Z" glyph-name="guillemotleft" horiz-adv-x="465" unicode="&#171;" /><glyph d="M243 319V412L438 523V412L350 366L438 319V208ZM28 319V412L223 523V412L135 366L223 319V208Z" glyph-name="guillemotleft.cap" horiz-adv-x="465" unicode="&#58451;" /><glyph d="M28 209 115 256 28 302V413L223 302V209L28 98ZM243 209 330 256 243 302V413L438 302V209L243 98Z" glyph-name="guillemotright" horiz-adv-x="465" unicode="&#187;" /><glyph d="M28 319 115 366 28 412V523L223 412V319L28 208ZM243 319 330 366 243 412V523L438 412V319L243 208Z" glyph-name="guillemotright.cap" horiz-adv-x="465" unicode="&#58452;" /><glyph d="M31 207V304L219 418V302L136 255L219 209V93Z" glyph-name="guilsinglleft" horiz-adv-x="250" unicode="&#8249;" /><glyph d="M31 317V414L219 528V412L136 365L219 319V203Z" glyph-name="guilsinglleft.cap" horiz-adv-x="250" unicode="&#58449;" /><glyph d="M31 210 114 256 31 303V419L219 304V208L31 93Z" glyph-name="guilsinglright" horiz-adv-x="250" unicode="&#8250;" /><glyph d="M31 320 114 366 31 413V529L219 414V318L31 203Z" glyph-name="guilsinglright.cap" horiz-adv-x="250" unicode="&#58450;" /><glyph d="M23 730H191V444Q214 475 247 492.5Q280 510 321 510Q402 510 450 460Q498 410 498 319V0H325V282Q325 321 309 342Q293 363 260 363Q231 363 212 341.5Q193 320 193 275V0H23Z" glyph-name="h" horiz-adv-x="521" unicode="h" /><glyph d="M325 213H196V0H23V596H196V389H325V596H499V0H325Z" glyph-name="h.smcp" horiz-adv-x="521" unicode="&#57864;" /><glyph d="M-41 648H23V730H191V648H254V544H191V444Q214 475 247 492.5Q280 510 321 510Q402 510 450 460Q498 410 498 319V0H325V282Q325 321 309 342Q293 363 260 363Q231 363 212 341.5Q193 320 193 275V0H23V544H-41Z" glyph-name="hbar" horiz-adv-x="521" unicode="&#295;" /><glyph d="M216 349H345V397H216ZM345 193H216V0H43V397H10V546H43V596H216V546H345V596H519V546H551V397H519V0H345Z" glyph-name="hbar.smcp" horiz-adv-x="561" unicode="&#57943;" /><glyph d="M52 941H163L282 764H153L106 839L60 764H-67ZM23 730H191V444Q214 475 247 492.5Q280 510 321 510Q402 510 450 460Q498 410 498 319V0H325V282Q325 321 309 342Q293 363 260 363Q231 363 212 341.5Q193 320 193 275V0H23Z" glyph-name="hcircumflex" horiz-adv-x="521" unicode="&#293;" /><glyph d="M205 807H316L435 630H306L259 705L213 630H86ZM325 213H196V0H23V596H196V389H325V596H499V0H325Z" glyph-name="hcircumflex.smcp" horiz-adv-x="521" unicode="&#57939;" /><glyph d="M89 550Q89 589 103 623.5Q117 658 142 684Q167 710 200 725Q233 740 272 740Q310 740 342.5 727.5Q375 715 399 693.5Q423 672 438 642.5Q453 613 457 579Q461 613 476 642.5Q491 672 515 693.5Q539 715 571 727.5Q603 740 642 740Q681 740 715 725Q749 710 775 684Q801 658 816 623.5Q831 589 831 550Q831 507 818 463.5Q805 420 777 371Q749 322 705 265.5Q661 209 599 140L457 -17L316 140Q254 209 210.5 265.5Q167 322 140 371Q113 420 101 463.5Q89 507 89 550Z" glyph-name="heart" horiz-adv-x="920" unicode="&#9829;" /><glyph d="M100 0V427L437 750L774 427V0Z" glyph-name="house" horiz-adv-x="874" unicode="&#8962;" /><glyph d="M298 720H447L312 543H206ZM112 720H262L127 543H21Z" glyph-name="hungarumlaut" horiz-adv-x="452" unicode="&#733;" /><glyph d="M23 326H393V182H23Z" glyph-name="hyphen" horiz-adv-x="415" unicode="-" /><glyph d="M23 436H393V292H23Z" glyph-name="hyphen.cap" horiz-adv-x="415" unicode="&#58498;" /><glyph d="M23 709H196V534H23ZM23 500H196V0H23Z" glyph-name="i" horiz-adv-x="219" unicode="i" /><glyph d="M25 596H201V0H25Z" glyph-name="i.smcp" horiz-adv-x="226" unicode="&#57865;" /><glyph d="M23 500H196V0H23ZM148 712H316L161 535H36Z" glyph-name="iacute" horiz-adv-x="219" unicode="&#237;" /><glyph d="M25 596H201V0H25ZM160 807H328L173 630H48Z" glyph-name="iacute.smcp" horiz-adv-x="226" unicode="&#57944;" /><glyph d="M108 529Q25 529 -15 575.5Q-55 622 -55 707H52Q52 668 66 650.5Q80 633 108 632Q137 633 151 650.5Q165 668 165 707H273Q273 622 229.5 575.5Q186 529 108 529ZM23 500H196V0H23Z" glyph-name="ibreve" horiz-adv-x="219" unicode="&#301;" /><glyph d="M113 623Q30 623 -10 669.5Q-50 716 -50 801H57Q57 762 71 744.5Q85 727 113 726Q142 727 156 744.5Q170 762 170 801H278Q278 716 234.5 669.5Q191 623 113 623ZM25 596H201V0H25Z" glyph-name="ibreve.smcp" horiz-adv-x="226" unicode="&#57951;" /><glyph d="M55 712H166L285 535H156L109 610L63 535H-64ZM23 500H196V0H23Z" glyph-name="icircumflex" horiz-adv-x="219" unicode="&#238;" /><glyph d="M65 807H176L295 630H166L119 705L73 630H-54ZM25 596H201V0H25Z" glyph-name="icircumflex.smcp" horiz-adv-x="226" unicode="&#57946;" /><glyph d="M23 500H196V0H23ZM-79 702H88V534H-79ZM132 702H299V534H132Z" glyph-name="idieresis" horiz-adv-x="219" unicode="&#239;" /><glyph d="M25 596H201V0H25ZM-77 798H91V630H-77ZM147 798H314V630H147Z" glyph-name="idieresis.smcp" horiz-adv-x="226" unicode="&#57947;" /><glyph d="M23 709H196V534H23ZM23 500H196V0H23Z" glyph-name="idotaccent" horiz-adv-x="219" unicode="&#59269;" /><glyph d="M27 802H199V630H27ZM25 596H201V0H25Z" glyph-name="idotaccent.smcp" horiz-adv-x="226" unicode="&#57954;" /><glyph d="M-98 712H70L182 535H57ZM23 500H196V0H23Z" glyph-name="igrave" horiz-adv-x="219" unicode="&#236;" /><glyph d="M25 596H201V0H25ZM-101 807H67L179 630H54Z" glyph-name="igrave.smcp" horiz-adv-x="226" unicode="&#57945;" /><glyph d="M23 709H196V534H23ZM23 500H196V0H23ZM236 709H410V534H236ZM23 -40H167Q192 -40 205.5 -38Q219 -36 226 -29.5Q233 -23 234.5 -9.5Q236 4 236 27V500H410V38Q410 -25 400 -71Q390 -117 364 -147.5Q338 -178 293.5 -192.5Q249 -207 180 -207H23Z" glyph-name="ij" horiz-adv-x="432" unicode="&#307;" /><glyph d="M23 596H198V0H23ZM229 164H236Q271 164 282 176.5Q293 189 293 226V596H466V219Q466 157 457 115.5Q448 74 423.5 48Q399 22 357 11Q315 0 249 0H229Z" glyph-name="ij.smcp" horiz-adv-x="489" unicode="&#58151;" /><glyph d="M-29 648H249V535H-29ZM23 500H196V0H23Z" glyph-name="imacron" horiz-adv-x="219" unicode="&#299;" /><glyph d="M25 596H201V0H25ZM-27 743H251V630H-27Z" glyph-name="imacron.smcp" horiz-adv-x="226" unicode="&#57950;" /><glyph d="M642 333Q663 333 678 348Q693 363 693 384Q693 405 678 420.5Q663 436 642 436Q618 436 595 422Q572 408 548 386Q573 363 596 348Q619 333 642 333ZM250 333Q273 333 295.5 348Q318 363 341 386Q318 408 295.5 421.5Q273 435 250 435Q229 435 214 420Q199 405 199 384Q199 364 214 348.5Q229 333 250 333ZM250 180Q208 180 170.5 196Q133 212 105.5 239.5Q78 267 62 304.5Q46 342 46 384Q46 426 62 463.5Q78 501 105.5 528.5Q133 556 170.5 572Q208 588 250 588Q309 588 356 560Q403 532 445 493Q485 531 533.5 559.5Q582 588 642 588Q684 588 721.5 572Q759 556 786.5 528.5Q814 501 830 463.5Q846 426 846 384Q846 342 830 304.5Q814 267 786.5 239.5Q759 212 721.5 196Q684 180 642 180Q583 180 534.5 209.5Q486 239 445 279Q403 239 355.5 209.5Q308 180 250 180Z" glyph-name="infinity" horiz-adv-x="890" unicode="&#8734;" /><glyph d="M14 -69Q41 -69 56.5 -67Q72 -65 80 -57Q88 -49 90 -34Q92 -19 92 7V500Q92 564 104 608Q116 652 143.5 679Q171 706 216 718Q261 730 327 730H345V566Q315 566 298 564Q281 562 272.5 556Q264 550 261.5 538.5Q259 527 259 508V7Q259 -59 249 -103Q239 -147 213 -174Q187 -201 143 -212.5Q99 -224 31 -224H14Z" glyph-name="integral" horiz-adv-x="362" unicode="&#8747;" /><glyph d="M344 526Q344 549 333.5 566.5Q323 584 302 595Q301 509 296 435Q316 452 330 471.5Q344 491 344 526ZM163 175H337V0H163ZM197 210Q193 317 190 412Q187 507 187 591Q167 579 153 560.5Q139 542 132 519L-4 589Q25 658 87.5 699Q150 740 250 740Q307 740 352.5 723.5Q398 707 430 678.5Q462 650 479.5 611Q497 572 497 526Q497 479 483 449Q469 419 448 398Q427 377 402 361Q377 345 356 326.5Q335 308 321 283Q307 258 307 218V210Z" glyph-name="interrobang" horiz-adv-x="515" unicode="&#8253;" /><glyph d="M172 -26Q172 -49 182.5 -66.5Q193 -84 214 -95Q214 -50 215.5 -11.5Q217 27 219 64Q199 47 185.5 27.5Q172 8 172 -26ZM353 326H179V500H353ZM266 -240Q209 -240 163.5 -223.5Q118 -207 86 -178.5Q54 -150 36.5 -111Q19 -72 19 -26Q19 21 33 51Q47 81 68 102Q89 123 114 139Q139 155 160 173.5Q181 192 195 217.5Q209 243 209 283V290H319Q322 183 325 87.5Q328 -8 329 -91Q349 -79 362.5 -60.5Q376 -42 384 -19L519 -89Q491 -158 428.5 -199Q366 -240 266 -240Z" glyph-name="interrobangdown" horiz-adv-x="515" unicode="&#59701;" /><glyph d="M172 205Q172 182 182.5 164Q193 146 214 135Q214 180 215.5 219Q217 258 219 294Q199 277 185.5 258Q172 239 172 205ZM353 556H179V730H353ZM266 -10Q209 -10 163.5 6.5Q118 23 86 51.5Q54 80 36.5 119Q19 158 19 204Q19 251 33 281Q47 311 68 332Q89 353 114 369Q139 385 160 403.5Q181 422 195 447.5Q209 473 209 513V520H319Q322 413 325 317.5Q328 222 329 138Q349 150 362.5 169.5Q376 189 384 212L519 142Q491 73 428.5 31.5Q366 -10 266 -10Z" glyph-name="interrobangdown.cap" horiz-adv-x="515" unicode="&#59803;" /><glyph d="M60 545Q60 630 101.5 676.5Q143 723 224 723Q303 723 345.5 676.5Q388 630 388 545H281Q281 584 267 601.5Q253 619 224 620Q195 619 181.5 601.5Q168 584 168 545Z" glyph-name="invertedbreve" horiz-adv-x="452" unicode="&#58385;" /><glyph d="M23 709H196V534H23ZM114 -244Q79 -244 50.5 -235Q22 -226 2 -209.5Q-18 -193 -29.5 -170Q-41 -147 -41 -120Q-41 -85 -25 -55Q-9 -25 23 4V500H196V0H193Q133 -44 112 -70.5Q91 -97 91 -111Q91 -124 99.5 -130.5Q108 -137 119 -137Q134 -137 146 -127Q158 -117 166 -107L269 -168Q242 -200 203.5 -222Q165 -244 114 -244Z" glyph-name="iogonek" horiz-adv-x="219" unicode="&#303;" /><glyph d="M120 -244Q85 -244 56.5 -235Q28 -226 8 -209.5Q-12 -193 -23.5 -170Q-35 -147 -35 -120Q-35 -86 -19.5 -57.5Q-4 -29 25 0V596H201V0H199Q139 -44 118 -70.5Q97 -97 97 -111Q97 -124 105.5 -130.5Q114 -137 125 -137Q140 -137 152 -127Q164 -117 172 -107L275 -168Q248 -200 209.5 -222Q171 -244 120 -244Z" glyph-name="iogonek.smcp" horiz-adv-x="226" unicode="&#63054;" /><glyph d="M-59 535Q-59 682 49 682Q73 682 91 675.5Q109 669 123 661Q137 653 148.5 647Q160 641 171 641Q192 641 192 678H288Q288 611 263 571Q238 531 180 531Q151 531 133 538.5Q115 546 101 554Q89 560 78.5 565.5Q68 571 57 571Q45 571 39.5 563Q34 555 34 535ZM23 500H196V0H23Z" glyph-name="itilde" horiz-adv-x="219" unicode="&#297;" /><glyph d="M-53 630Q-53 777 55 777Q79 777 97 770.5Q115 764 129 756Q143 748 154.5 742Q166 736 177 736Q198 736 198 773H294Q294 706 269 666Q244 626 186 626Q157 626 139 633.5Q121 641 107 649Q95 655 84.5 660.5Q74 666 63 666Q51 666 45.5 658Q40 650 40 630ZM25 596H201V0H25Z" glyph-name="itilde.smcp" horiz-adv-x="226" unicode="&#57948;" /><glyph d="M23 709H196V534H23ZM-56 -76Q-27 -76 -11 -73.5Q5 -71 12.5 -62.5Q20 -54 21.5 -39Q23 -24 23 1V500H196V-1Q196 -66 185 -110Q174 -154 147.5 -181Q121 -208 76.5 -219.5Q32 -231 -35 -231H-56Z" glyph-name="j" horiz-adv-x="219" unicode="j" /><glyph d="M209 -8Q130 -8 79.5 28Q29 64 4 125L162 198Q175 152 209 152Q227 152 236 163.5Q245 175 245 195V596H420V198Q420 100 370 46Q320 -8 209 -8Z" glyph-name="j.smcp" horiz-adv-x="443" unicode="&#57866;" /><glyph d="M55 712H166L285 535H156L109 610L63 535H-64ZM-56 -76Q-27 -76 -11 -73.5Q5 -71 12.5 -62.5Q20 -54 21.5 -39Q23 -24 23 1V500H197V-1Q197 -66 186 -110Q175 -154 148 -181Q121 -208 76.5 -219.5Q32 -231 -35 -231H-56Z" glyph-name="jcircumflex" horiz-adv-x="219" unicode="&#309;" /><glyph d="M278 807H389L508 630H379L332 705L286 630H159ZM209 -8Q130 -8 79.5 28Q29 64 4 125L162 198Q175 152 209 152Q227 152 236 163.5Q245 175 245 195V596H420V198Q420 100 370 46Q320 -8 209 -8Z" glyph-name="jcircumflex.smcp" horiz-adv-x="443" unicode="&#63027;" /><glyph d="M248 173 190 102V0H23V730H190V306L347 500H546L368 282L554 0H364Z" glyph-name="k" horiz-adv-x="557" unicode="k" /><glyph d="M230 223 196 169V0H23V596H196V413L322 596H522L354 359L534 0H341Z" glyph-name="k.smcp" horiz-adv-x="532" unicode="&#57867;" /><glyph d="M156 -255 196 -32H361L284 -255ZM248 173 190 102V0H23V730H190V306L347 500H546L368 282L554 0H364Z" glyph-name="kcommaaccent" horiz-adv-x="557" unicode="&#311;" /><glyph d="M149 -252 189 -29H354L277 -252ZM230 223 196 169V0H23V596H196V413L322 596H522L354 359L534 0H341Z" glyph-name="kcommaaccent.smcp" horiz-adv-x="532" unicode="&#57960;" /><glyph d="M248 173 190 102V0H23V500H190V306L347 500H546L368 282L554 0H364Z" glyph-name="kgreenlandic" horiz-adv-x="557" unicode="&#312;" /><glyph d="M23 730H189V0H23Z" glyph-name="l" horiz-adv-x="212" unicode="l" /><glyph d="M23 596H196V166H367V0H23Z" glyph-name="l.smcp" horiz-adv-x="386" unicode="&#57868;" /><glyph d="M23 730H189V0H23ZM151 941H319L164 764H39Z" glyph-name="lacute" horiz-adv-x="212" unicode="&#314;" /><glyph d="M155 807H323L168 630H43ZM23 596H196V166H367V0H23Z" glyph-name="lacute.smcp" horiz-adv-x="386" unicode="&#57963;" /><glyph d="M23 730H189V0H23ZM260 730H407L322 553H214Z" glyph-name="lcaron" horiz-adv-x="372" unicode="&#318;" /><glyph d="M279 596H426L341 419H233ZM23 596H196V166H367V0H23Z" glyph-name="lcaron.smcp" horiz-adv-x="386" unicode="&#57964;" /><glyph d="M23 730H189V0H23ZM-16 -255 24 -32H189L112 -255Z" glyph-name="lcommaaccent" horiz-adv-x="212" unicode="&#316;" /><glyph d="M80 -257 120 -34H285L208 -257ZM23 596H196V166H367V0H23Z" glyph-name="lcommaaccent.smcp" horiz-adv-x="386" unicode="&#57965;" /><glyph d="M224 346H396V174H224ZM23 730H189V0H23Z" glyph-name="ldot" horiz-adv-x="419" unicode="&#320;" /><glyph d="M235 405H407V233H235ZM23 596H196V166H408V0H23Z" glyph-name="ldot.smcp" horiz-adv-x="426" unicode="&#57969;" /><glyph d="M25 291V434L395 563V417L214 362L395 308V162Z" glyph-name="less" horiz-adv-x="421" unicode="&lt;" /><glyph d="M24 231H394V89H24ZM24 385V527L394 657V510L213 456L394 402V255Z" glyph-name="lessequal" horiz-adv-x="421" unicode="&#8804;" /><glyph d="M185 90Q210 90 232 106Q216 117 202 123.5Q188 130 175 130Q163 130 158 124.5Q153 119 153 112Q153 90 185 90ZM69 434H149Q140 455 134.5 478.5Q129 502 129 529Q129 573 146 611.5Q163 650 194 678.5Q225 707 268 723.5Q311 740 363 740Q459 740 517.5 703Q576 666 605 606L440 531Q424 583 368 583Q337 583 319 564.5Q301 546 301 520Q301 498 306.5 477Q312 456 321 434H520V320H367Q375 294 380.5 266.5Q386 239 386 209Q386 177 380 149Q412 133 438 133Q469 133 480 147.5Q491 162 491 194V239H667V172Q667 134 657 100.5Q647 67 625 42.5Q603 18 568 4Q533 -10 482 -10Q434 -10 395 5.5Q356 21 323 41Q299 16 265 2Q231 -12 187 -12Q111 -12 70.5 19Q30 50 30 111Q30 166 65.5 201Q101 236 162 236Q191 236 217.5 228Q244 220 269 209Q265 239 251 266Q237 293 219 320H69Z" glyph-name="lira" horiz-adv-x="689" unicode="&#8356;" /><glyph d="M387 359H22V522H562V158H387Z" glyph-name="logicalnot" horiz-adv-x="587" unicode="&#172;" /><glyph d="M23 -105H408V-247H23Z" glyph-name="lowline" horiz-adv-x="431" unicode="&#58641;" /><glyph d="M395 210 547 362 390 519 238 367ZM12 366 392 746 774 364 394 -16Z" glyph-name="lozenge" horiz-adv-x="794" unicode="&#9674;" /><glyph d="M18 397 96 419V730H262V467L345 491V356L262 332V0H96V284L18 262Z" glyph-name="lslash" horiz-adv-x="363" unicode="&#322;" /><glyph d="M11 358 60 372V596H233V422L341 453V319L233 287V166H404V0H60V237L11 223Z" glyph-name="lslash.smcp" horiz-adv-x="423" unicode="&#63225;" /><glyph d="M23 500H192V440Q215 474 249 492Q283 510 325 510Q426 510 467 432Q490 469 527.5 489.5Q565 510 611 510Q696 510 741 460Q786 410 786 319V0H614V282Q614 321 600 342Q586 363 553 363Q524 363 507 341.5Q490 320 490 275V0H318V282Q318 321 303.5 342Q289 363 257 363Q228 363 210.5 341.5Q193 320 193 275V0H23Z" glyph-name="m" horiz-adv-x="809" unicode="m" /><glyph d="M23 596H197L319 426L447 596H612V0H439V321L318 158L195 323V0H23Z" glyph-name="m.smcp" horiz-adv-x="634" unicode="&#57869;" /><glyph d="M87 656H365V543H87Z" glyph-name="macron" horiz-adv-x="452" unicode="&#175;" /><glyph d="M349 -10Q295 -10 248 10.5Q201 31 165.5 66Q130 101 110 148.5Q90 196 90 250Q90 304 110 351.5Q130 399 165.5 434Q201 469 248 489.5Q295 510 349 510Q403 510 450 489.5Q497 469 532.5 434Q568 399 588 351.5Q608 304 608 250Q608 196 588 148.5Q568 101 532.5 66Q497 31 450 10.5Q403 -10 349 -10Z" glyph-name="mediumblackcircle" horiz-adv-x="698" unicode="&#9899;" /><glyph d="M349 120Q375 120 398 130.5Q421 141 438 158.5Q455 176 465 199.5Q475 223 475 250Q475 277 465 300.5Q455 324 438 341.5Q421 359 398 369.5Q375 380 349 380Q322 380 299.5 369.5Q277 359 260 341.5Q243 324 233.5 300.5Q224 277 224 250Q224 223 233.5 199.5Q243 176 260 158.5Q277 141 299.5 130.5Q322 120 349 120ZM349 -10Q295 -10 248 10.5Q201 31 165.5 66Q130 101 110 148.5Q90 196 90 250Q90 304 110 351.5Q130 399 165.5 434Q201 469 248 489.5Q295 510 349 510Q403 510 450 489.5Q497 469 532.5 434Q568 399 588 351.5Q608 304 608 250Q608 196 588 148.5Q568 101 532.5 66Q497 31 450 10.5Q403 -10 349 -10Z" glyph-name="mediumwhitecircle" horiz-adv-x="698" unicode="&#9898;" /><glyph d="M25 435H395V293H25Z" glyph-name="minus" horiz-adv-x="420" unicode="&#8722;" /><glyph d="M10 261H224V160H10Z" glyph-name="minus.inf" horiz-adv-x="235" unicode="&#58748;" /><glyph d="M12 507 53 730H217L141 507Z" glyph-name="minute" horiz-adv-x="228" unicode="&#8242;" /><glyph d="M20 500H193V232Q193 138 258 138Q287 138 306.5 159Q326 180 326 225V500H496V0H332V51Q300 -8 234 -8Q221 -8 209.5 -5Q198 -2 188 3V-230H20Z" glyph-name="mu" horiz-adv-x="516" unicode="&#181;" /><glyph d="M17 268 111 362 15 459 114 557 210 461 307 558 405 459 308 362 404 267 305 169 210 264 115 169Z" glyph-name="multiply" horiz-adv-x="421" unicode="&#215;" /><glyph d="M23 500H192V444Q215 475 247.5 492.5Q280 510 321 510Q402 510 450 460Q498 410 498 319V0H325V282Q325 321 309 342Q293 363 260 363Q231 363 212 341.5Q193 320 193 275V0H23Z" glyph-name="n" horiz-adv-x="521" unicode="n" /><glyph d="M23 596H199L373 317V596H545V0H382L194 301V0H23Z" glyph-name="n.smcp" horiz-adv-x="567" unicode="&#57870;" /><glyph d="M312 715H480L325 538H200ZM23 500H192V444Q215 475 247.5 492.5Q280 510 321 510Q402 510 450 460Q498 410 498 319V0H325V282Q325 321 309 342Q293 363 260 363Q231 363 212 341.5Q193 320 193 275V0H23Z" glyph-name="nacute" horiz-adv-x="521" unicode="&#324;" /><glyph d="M328 807H496L341 630H216ZM23 596H199L373 317V596H545V0H382L194 301V0H23Z" glyph-name="nacute.smcp" horiz-adv-x="567" unicode="&#57974;" /><glyph d="M90 715H218L264 640L311 715H439L320 538H209ZM23 500H192V444Q215 475 247.5 492.5Q280 510 321 510Q402 510 450 460Q498 410 498 319V0H325V282Q325 321 309 342Q293 363 260 363Q231 363 212 341.5Q193 320 193 275V0H23Z" glyph-name="ncaron" horiz-adv-x="521" unicode="&#328;" /><glyph d="M111 803H239L285 728L332 803H460L341 626H230ZM23 596H199L373 317V596H545V0H382L194 301V0H23Z" glyph-name="ncaron.smcp" horiz-adv-x="567" unicode="&#57978;" /><glyph d="M151 -255 191 -32H356L279 -255ZM23 500H192V444Q215 475 247.5 492.5Q280 510 321 510Q402 510 450 460Q498 410 498 319V0H325V282Q325 321 309 342Q293 363 260 363Q231 363 212 341.5Q193 320 193 275V0H23Z" glyph-name="ncommaaccent" horiz-adv-x="521" unicode="&#326;" /><glyph d="M173 -257 213 -34H378L301 -257ZM23 596H199L373 317V596H545V0H382L194 301V0H23Z" glyph-name="ncommaaccent.smcp" horiz-adv-x="567" unicode="&#57981;" /><glyph d="M301 385Q342 385 369.5 413.5Q397 442 397 484Q397 525 369.5 553.5Q342 582 301 582Q281 582 263 574.5Q245 567 231.5 553.5Q218 540 210 522Q202 504 202 483Q202 463 210 445Q218 427 231.5 413.5Q245 400 263 392.5Q281 385 301 385ZM139 0 282 235H269Q219 235 176 253Q133 271 101 303.5Q69 336 50.5 382Q32 428 32 485Q32 541 52 588Q72 635 107.5 668.5Q143 702 192 721Q241 740 300 740Q359 740 408 720.5Q457 701 492.5 667Q528 633 547.5 586.5Q567 540 567 486Q567 434 548 384.5Q529 335 503 293L337 0Z" glyph-name="nine" horiz-adv-x="598" unicode="9" /><glyph d="M290 372Q334 372 363.5 402.5Q393 433 393 477Q393 521 363.5 551.5Q334 582 290 582Q269 582 249.5 573.5Q230 565 216 551Q202 537 193.5 518Q185 499 185 477Q185 455 193.5 436Q202 417 216 402.5Q230 388 249.5 380Q269 372 290 372ZM269 222H259Q208 222 163.5 240Q119 258 86 291.5Q53 325 33.5 372Q14 419 14 478Q14 535 34.5 583.5Q55 632 92 666.5Q129 701 179 720.5Q229 740 289 740Q350 740 401 720Q452 700 488.5 665Q525 630 545 582Q565 534 565 478Q565 425 546 371.5Q527 318 500 275L328 0H128Z" glyph-name="nine.LP" horiz-adv-x="580" unicode="&#58686;" /><glyph d="M301 385Q342 385 369.5 413.5Q397 442 397 484Q397 525 369.5 553.5Q342 582 301 582Q281 582 263 574.5Q245 567 231.5 553.5Q218 540 210 522Q202 504 202 483Q202 463 210 445Q218 427 231.5 413.5Q245 400 263 392.5Q281 385 301 385ZM139 0 282 235H269Q219 235 176 253Q133 271 101 303.5Q69 336 50.5 382Q32 428 32 485Q32 541 52 588Q72 635 107.5 668.5Q143 702 192 721Q241 740 300 740Q359 740 408 720.5Q457 701 492.5 667Q528 633 547.5 586.5Q567 540 567 486Q567 434 548 384.5Q529 335 503 293L337 0Z" glyph-name="nine.LT" horiz-adv-x="598" unicode="&#58697;" /><glyph d="M178 221Q198 221 210.5 233.5Q223 246 223 265Q223 285 210.5 297.5Q198 310 178 310Q159 310 146 297.5Q133 285 133 266Q133 246 146 233.5Q159 221 178 221ZM143 111Q85 115 46 156Q7 197 7 266Q7 300 19 330Q31 360 53.5 381.5Q76 403 108 415.5Q140 428 179 428Q217 428 248.5 416Q280 404 302.5 382Q325 360 337.5 330.5Q350 301 350 266Q350 234 336 200.5Q322 167 305 138L217 0H74Z" glyph-name="nine.inf" horiz-adv-x="356" unicode="&#58746;" /><glyph d="M178 529Q198 529 210.5 541.5Q223 554 223 573Q223 593 210.5 605.5Q198 618 178 618Q159 618 146 605.5Q133 593 133 574Q133 554 146 541.5Q159 529 178 529ZM1037 112Q1057 112 1070.5 125Q1084 138 1084 157Q1084 176 1070.5 189Q1057 202 1037 202Q1018 202 1005.5 189Q993 176 993 157Q993 138 1005.5 125Q1018 112 1037 112ZM575 117H656V257Q646 243 630 238Q614 233 594 233H588V350H591Q612 350 625.5 357Q639 364 646.5 374.5Q654 385 657 398Q660 411 660 422H783V117H860V0H575ZM143 419Q85 423 46 464Q7 505 7 574Q7 608 19 638Q31 668 53.5 689.5Q76 711 108 723.5Q140 736 179 736Q217 736 248.5 724Q280 712 302.5 690Q325 668 337.5 638.5Q350 609 350 574Q350 542 336 508.5Q322 475 305 446L217 308H74ZM1037 -6Q999 -6 967.5 6.5Q936 19 913.5 40.5Q891 62 878.5 91.5Q866 121 866 156Q866 188 880 222Q894 256 911 284L998 422H1142L1073 311Q1131 306 1170 265.5Q1209 225 1209 156Q1209 121 1197 91.5Q1185 62 1162 40.5Q1139 19 1107.5 6.5Q1076 -6 1037 -6ZM636 730H831L304 0H109Z" glyph-name="ninesixteenths" horiz-adv-x="1215" unicode="&#61977;" /><glyph d="M330 519H393V381H271L256 346H393V207H197L166 135H56L85 207H23V346H143L157 381H23V519H214L244 590H361Z" glyph-name="notequal" horiz-adv-x="415" unicode="&#8800;" /><glyph d="M88 540Q88 687 196 687Q220 687 238 680.5Q256 674 270 666Q284 658 295.5 652Q307 646 318 646Q339 646 339 683H435Q435 616 410 576Q385 536 327 536Q298 536 280 543.5Q262 551 248 559Q236 565 225.5 570.5Q215 576 204 576Q192 576 186.5 568Q181 560 181 540ZM23 500H192V444Q215 475 247.5 492.5Q280 510 321 510Q402 510 450 460Q498 410 498 319V0H325V282Q325 321 309 342Q293 363 260 363Q231 363 212 341.5Q193 320 193 275V0H23Z" glyph-name="ntilde" horiz-adv-x="521" unicode="&#241;" /><glyph d="M113 630Q113 777 221 777Q245 777 263 770.5Q281 764 295 756Q309 748 320.5 742Q332 736 343 736Q364 736 364 773H460Q460 706 435 666Q410 626 352 626Q323 626 305 633.5Q287 641 273 649Q261 655 250.5 660.5Q240 666 229 666Q217 666 211.5 658Q206 650 206 630ZM23 596H199L373 317V596H545V0H382L194 301V0H23Z" glyph-name="ntilde.smcp" horiz-adv-x="567" unicode="&#57977;" /><glyph d="M322 304H450V431H322ZM450 138H322V0H150V138H18V304H150V431H18V597H150V730H322V597H450V730H622V597H758V431H622V304H758V138H622V0H450Z" glyph-name="numbersign" horiz-adv-x="775" unicode="#" /><glyph d="M325 341 424 304 457 392 358 429ZM366 150 261 189 191 0H18L111 248L25 281V455L174 398L207 488L25 557V730L265 639L300 730H473L416 581L520 542L592 730H762L670 484L755 452V279L608 335L574 244L756 175V2L515 92L480 0H309Z" glyph-name="numbersign.alt" horiz-adv-x="781" unicode="&#62563;" /><glyph d="M276 148Q318 148 345.5 177Q373 206 373 250Q373 294 345.5 323.5Q318 353 276 353Q234 353 207 323.5Q180 294 180 250Q180 206 207 177Q234 148 276 148ZM276 -10Q219 -10 170.5 10.5Q122 31 87 66Q52 101 32.5 148.5Q13 196 13 250Q13 304 32.5 351.5Q52 399 87 434Q122 469 170.5 489.5Q219 510 276 510Q332 510 380 489.5Q428 469 463.5 434Q499 399 519 351.5Q539 304 539 250Q539 196 519.5 148.5Q500 101 465 66Q430 31 381.5 10.5Q333 -10 276 -10Z" glyph-name="o" horiz-adv-x="552" unicode="o" /><glyph d="M318 163Q348 163 372 173.5Q396 184 413 202.5Q430 221 439 245.5Q448 270 448 298Q448 326 438.5 350.5Q429 375 412 393.5Q395 412 371 423Q347 434 318 434Q289 434 265.5 423Q242 412 225.5 393.5Q209 375 199.5 350.5Q190 326 190 298Q190 270 199 245.5Q208 221 224.5 202.5Q241 184 265 173.5Q289 163 318 163ZM318 -8Q251 -8 195 16Q139 40 99 81.5Q59 123 36.5 178.5Q14 234 14 298Q14 362 37 417.5Q60 473 100.5 514.5Q141 556 196.5 580Q252 604 318 604Q384 604 440 580Q496 556 537 514.5Q578 473 601 417.5Q624 362 624 298Q624 234 601.5 178.5Q579 123 538.5 81.5Q498 40 441.5 16Q385 -8 318 -8Z" glyph-name="o.smcp" horiz-adv-x="637" unicode="&#57871;" /><glyph d="M276 148Q318 148 345.5 177Q373 206 373 250Q373 294 345.5 323.5Q318 353 276 353Q234 353 207 323.5Q180 294 180 250Q180 206 207 177Q234 148 276 148ZM276 -10Q219 -10 170.5 10.5Q122 31 87 66Q52 101 32.5 148.5Q13 196 13 250Q13 304 32.5 351.5Q52 399 87 434Q122 469 170.5 489.5Q219 510 276 510Q332 510 380 489.5Q428 469 463.5 434Q499 399 519 351.5Q539 304 539 250Q539 196 519.5 148.5Q500 101 465 66Q430 31 381.5 10.5Q333 -10 276 -10ZM321 715H489L334 538H209Z" glyph-name="oacute" horiz-adv-x="552" unicode="&#243;" /><glyph d="M361 810H529L374 633H249ZM318 163Q348 163 372 173.5Q396 184 413 202.5Q430 221 439 245.5Q448 270 448 298Q448 326 438.5 350.5Q429 375 412 393.5Q395 412 371 423Q347 434 318 434Q289 434 265.5 423Q242 412 225.5 393.5Q209 375 199.5 350.5Q190 326 190 298Q190 270 199 245.5Q208 221 224.5 202.5Q241 184 265 173.5Q289 163 318 163ZM318 -8Q251 -8 195 16Q139 40 99 81.5Q59 123 36.5 178.5Q14 234 14 298Q14 362 37 417.5Q60 473 100.5 514.5Q141 556 196.5 580Q252 604 318 604Q384 604 440 580Q496 556 537 514.5Q578 473 601 417.5Q624 362 624 298Q624 234 601.5 178.5Q579 123 538.5 81.5Q498 40 441.5 16Q385 -8 318 -8Z" glyph-name="oacute.smcp" horiz-adv-x="637" unicode="&#57985;" /><glyph d="M275 534Q192 534 152 580.5Q112 627 112 712H219Q219 673 233 655.5Q247 638 275 637Q304 638 318 655.5Q332 673 332 712H440Q440 627 396.5 580.5Q353 534 275 534ZM276 148Q318 148 345.5 177Q373 206 373 250Q373 294 345.5 323.5Q318 353 276 353Q234 353 207 323.5Q180 294 180 250Q180 206 207 177Q234 148 276 148ZM276 -10Q219 -10 170.5 10.5Q122 31 87 66Q52 101 32.5 148.5Q13 196 13 250Q13 304 32.5 351.5Q52 399 87 434Q122 469 170.5 489.5Q219 510 276 510Q332 510 380 489.5Q428 469 463.5 434Q499 399 519 351.5Q539 304 539 250Q539 196 519.5 148.5Q500 101 465 66Q430 31 381.5 10.5Q333 -10 276 -10Z" glyph-name="obreve" horiz-adv-x="552" unicode="&#335;" /><glyph d="M318 628Q235 628 195 674.5Q155 721 155 806H262Q262 767 276 749.5Q290 732 318 731Q347 732 361 749.5Q375 767 375 806H483Q483 721 439.5 674.5Q396 628 318 628ZM318 163Q348 163 372 173.5Q396 184 413 202.5Q430 221 439 245.5Q448 270 448 298Q448 326 438.5 350.5Q429 375 412 393.5Q395 412 371 423Q347 434 318 434Q289 434 265.5 423Q242 412 225.5 393.5Q209 375 199.5 350.5Q190 326 190 298Q190 270 199 245.5Q208 221 224.5 202.5Q241 184 265 173.5Q289 163 318 163ZM318 -8Q251 -8 195 16Q139 40 99 81.5Q59 123 36.5 178.5Q14 234 14 298Q14 362 37 417.5Q60 473 100.5 514.5Q141 556 196.5 580Q252 604 318 604Q384 604 440 580Q496 556 537 514.5Q578 473 601 417.5Q624 362 624 298Q624 234 601.5 178.5Q579 123 538.5 81.5Q498 40 441.5 16Q385 -8 318 -8Z" glyph-name="obreve.smcp" horiz-adv-x="637" unicode="&#57992;" /><glyph d="M276 148Q318 148 345.5 177Q373 206 373 250Q373 294 345.5 323.5Q318 353 276 353Q234 353 207 323.5Q180 294 180 250Q180 206 207 177Q234 148 276 148ZM221 715H332L451 538H322L275 613L229 538H102ZM276 -10Q219 -10 170.5 10.5Q122 31 87 66Q52 101 32.5 148.5Q13 196 13 250Q13 304 32.5 351.5Q52 399 87 434Q122 469 170.5 489.5Q219 510 276 510Q332 510 380 489.5Q428 469 463.5 434Q499 399 519 351.5Q539 304 539 250Q539 196 519.5 148.5Q500 101 465 66Q430 31 381.5 10.5Q333 -10 276 -10Z" glyph-name="ocircumflex" horiz-adv-x="552" unicode="&#244;" /><glyph d="M263 809H374L493 632H364L317 707L271 632H144ZM318 163Q348 163 372 173.5Q396 184 413 202.5Q430 221 439 245.5Q448 270 448 298Q448 326 438.5 350.5Q429 375 412 393.5Q395 412 371 423Q347 434 318 434Q289 434 265.5 423Q242 412 225.5 393.5Q209 375 199.5 350.5Q190 326 190 298Q190 270 199 245.5Q208 221 224.5 202.5Q241 184 265 173.5Q289 163 318 163ZM318 -8Q251 -8 195 16Q139 40 99 81.5Q59 123 36.5 178.5Q14 234 14 298Q14 362 37 417.5Q60 473 100.5 514.5Q141 556 196.5 580Q252 604 318 604Q384 604 440 580Q496 556 537 514.5Q578 473 601 417.5Q624 362 624 298Q624 234 601.5 178.5Q579 123 538.5 81.5Q498 40 441.5 16Q385 -8 318 -8Z" glyph-name="ocircumflex.smcp" horiz-adv-x="637" unicode="&#57987;" /><glyph d="M276 148Q318 148 345.5 177Q373 206 373 250Q373 294 345.5 323.5Q318 353 276 353Q234 353 207 323.5Q180 294 180 250Q180 206 207 177Q234 148 276 148ZM276 -10Q219 -10 170.5 10.5Q122 31 87 66Q52 101 32.5 148.5Q13 196 13 250Q13 304 32.5 351.5Q52 399 87 434Q122 469 170.5 489.5Q219 510 276 510Q332 510 380 489.5Q428 469 463.5 434Q499 399 519 351.5Q539 304 539 250Q539 196 519.5 148.5Q500 101 465 66Q430 31 381.5 10.5Q333 -10 276 -10ZM91 706H258V538H91ZM292 706H459V538H292Z" glyph-name="odieresis" horiz-adv-x="552" unicode="&#246;" /><glyph d="M135 801H302V633H135ZM336 801H503V633H336ZM318 163Q348 163 372 173.5Q396 184 413 202.5Q430 221 439 245.5Q448 270 448 298Q448 326 438.5 350.5Q429 375 412 393.5Q395 412 371 423Q347 434 318 434Q289 434 265.5 423Q242 412 225.5 393.5Q209 375 199.5 350.5Q190 326 190 298Q190 270 199 245.5Q208 221 224.5 202.5Q241 184 265 173.5Q289 163 318 163ZM318 -8Q251 -8 195 16Q139 40 99 81.5Q59 123 36.5 178.5Q14 234 14 298Q14 362 37 417.5Q60 473 100.5 514.5Q141 556 196.5 580Q252 604 318 604Q384 604 440 580Q496 556 537 514.5Q578 473 601 417.5Q624 362 624 298Q624 234 601.5 178.5Q579 123 538.5 81.5Q498 40 441.5 16Q385 -8 318 -8Z" glyph-name="odieresis.smcp" horiz-adv-x="637" unicode="&#57988;" /><glyph d="M636 374Q603 374 578 359Q553 344 539 317H730Q703 374 636 374ZM276 148Q318 148 346 177Q374 206 374 250Q374 295 346 324Q318 353 276 353Q234 353 206.5 324Q179 295 179 250Q179 206 206.5 177Q234 148 276 148ZM276 -10Q219 -10 170.5 10.5Q122 31 87 66Q52 101 32.5 148.5Q13 196 13 250Q13 304 32.5 351.5Q52 399 87 434Q122 469 170.5 489.5Q219 510 276 510Q332 510 377 491Q422 472 456 439Q488 471 533.5 490.5Q579 510 635 510Q692 510 740.5 490Q789 470 823.5 435.5Q858 401 877.5 353.5Q897 306 897 251V197H534Q546 163 573.5 145Q601 127 639 127Q674 127 700 144Q726 161 740 187L878 128Q862 99 838.5 73.5Q815 48 785 29.5Q755 11 718 0.5Q681 -10 637 -10Q577 -10 531.5 8Q486 26 453 58Q420 26 375.5 8Q331 -10 276 -10Z" glyph-name="oe" horiz-adv-x="910" unicode="&#339;" /><glyph d="M318 163Q348 163 372 173.5Q396 184 413 202.5Q430 221 439 245.5Q448 270 448 298Q448 326 438.5 350.5Q429 375 412 393.5Q395 412 371 423Q347 434 318 434Q289 434 265.5 423Q242 412 225.5 393.5Q209 375 199.5 350.5Q190 326 190 298Q190 270 199 245.5Q208 221 224.5 202.5Q241 184 265 173.5Q289 163 318 163ZM450 41Q398 -8 306 -8Q243 -8 189.5 16Q136 40 97 81.5Q58 123 36 178.5Q14 234 14 298Q14 362 36.5 417.5Q59 473 98.5 514.5Q138 556 191.5 580Q245 604 306 604Q353 604 388.5 591.5Q424 579 450 555V596H813V438H621V377H813V221H621V158H813V0H450Z" glyph-name="oe.smcp" horiz-adv-x="833" unicode="&#58008;" /><glyph d="M225 -238Q155 -238 113.5 -205Q72 -172 72 -120Q72 -99 79 -79Q86 -59 103.5 -38.5Q121 -18 151.5 4Q182 26 229 50L329 1Q285 -30 258.5 -48.5Q232 -67 218 -79Q204 -91 199.5 -98.5Q195 -106 195 -113Q195 -126 204 -131Q213 -136 226 -136Q243 -136 255.5 -126.5Q268 -117 278 -108L381 -168Q353 -198 312 -218Q271 -238 225 -238Z" glyph-name="ogonek" horiz-adv-x="452" unicode="&#731;" /><glyph d="M63 715H231L343 538H218ZM276 148Q318 148 345.5 177Q373 206 373 250Q373 294 345.5 323.5Q318 353 276 353Q234 353 207 323.5Q180 294 180 250Q180 206 207 177Q234 148 276 148ZM276 -10Q219 -10 170.5 10.5Q122 31 87 66Q52 101 32.5 148.5Q13 196 13 250Q13 304 32.5 351.5Q52 399 87 434Q122 469 170.5 489.5Q219 510 276 510Q332 510 380 489.5Q428 469 463.5 434Q499 399 519 351.5Q539 304 539 250Q539 196 519.5 148.5Q500 101 465 66Q430 31 381.5 10.5Q333 -10 276 -10Z" glyph-name="ograve" horiz-adv-x="552" unicode="&#242;" /><glyph d="M110 810H278L390 633H265ZM318 163Q348 163 372 173.5Q396 184 413 202.5Q430 221 439 245.5Q448 270 448 298Q448 326 438.5 350.5Q429 375 412 393.5Q395 412 371 423Q347 434 318 434Q289 434 265.5 423Q242 412 225.5 393.5Q209 375 199.5 350.5Q190 326 190 298Q190 270 199 245.5Q208 221 224.5 202.5Q241 184 265 173.5Q289 163 318 163ZM318 -8Q251 -8 195 16Q139 40 99 81.5Q59 123 36.5 178.5Q14 234 14 298Q14 362 37 417.5Q60 473 100.5 514.5Q141 556 196.5 580Q252 604 318 604Q384 604 440 580Q496 556 537 514.5Q578 473 601 417.5Q624 362 624 298Q624 234 601.5 178.5Q579 123 538.5 81.5Q498 40 441.5 16Q385 -8 318 -8Z" glyph-name="ograve.smcp" horiz-adv-x="637" unicode="&#57986;" /><glyph d="M18 168H170Q136 217 112 278.5Q88 340 88 414Q88 482 113 541.5Q138 601 181.5 645.5Q225 690 284.5 715.5Q344 741 414 741Q483 741 543 715.5Q603 690 648 646Q693 602 718.5 542.5Q744 483 744 414Q744 340 719.5 278.5Q695 217 660 168H811V0H518L445 158Q502 224 534 286.5Q566 349 567 418Q567 451 555 480Q543 509 522.5 530Q502 551 474 563Q446 575 414 575Q383 575 355.5 563Q328 551 307.5 530Q287 509 275 480Q263 451 263 418Q263 349 295 286.5Q327 224 384 158L321 0H18Z" glyph-name="ohm" horiz-adv-x="829" unicode="&#59425;" /><glyph d="M276 148Q318 148 345.5 177Q373 206 373 250Q373 294 345.5 323.5Q318 353 276 353Q234 353 207 323.5Q180 294 180 250Q180 206 207 177Q234 148 276 148ZM276 -10Q219 -10 170.5 10.5Q122 31 87 66Q52 101 32.5 148.5Q13 196 13 250Q13 304 32.5 351.5Q52 399 87 434Q122 469 170.5 489.5Q219 510 276 510Q332 510 380 489.5Q428 469 463.5 434Q499 399 519 351.5Q539 304 539 250Q539 196 519.5 148.5Q500 101 465 66Q430 31 381.5 10.5Q333 -10 276 -10ZM404 714H553L418 537H312ZM218 714H368L233 537H127Z" glyph-name="ohungarumlaut" horiz-adv-x="553" unicode="&#337;" /><glyph d="M446 807H595L460 630H354ZM260 807H410L275 630H169ZM318 163Q348 163 372 173.5Q396 184 413 202.5Q430 221 439 245.5Q448 270 448 298Q448 326 438.5 350.5Q429 375 412 393.5Q395 412 371 423Q347 434 318 434Q289 434 265.5 423Q242 412 225.5 393.5Q209 375 199.5 350.5Q190 326 190 298Q190 270 199 245.5Q208 221 224.5 202.5Q241 184 265 173.5Q289 163 318 163ZM318 -8Q251 -8 195 16Q139 40 99 81.5Q59 123 36.5 178.5Q14 234 14 298Q14 362 37 417.5Q60 473 100.5 514.5Q141 556 196.5 580Q252 604 318 604Q384 604 440 580Q496 556 537 514.5Q578 473 601 417.5Q624 362 624 298Q624 234 601.5 178.5Q579 123 538.5 81.5Q498 40 441.5 16Q385 -8 318 -8Z" glyph-name="ohungarumlaut.smcp" horiz-adv-x="637" unicode="&#57994;" /><glyph d="M276 148Q318 148 345.5 177Q373 206 373 250Q373 294 345.5 323.5Q318 353 276 353Q234 353 207 323.5Q180 294 180 250Q180 206 207 177Q234 148 276 148ZM276 -10Q219 -10 170.5 10.5Q122 31 87 66Q52 101 32.5 148.5Q13 196 13 250Q13 304 32.5 351.5Q52 399 87 434Q122 469 170.5 489.5Q219 510 276 510Q332 510 380 489.5Q428 469 463.5 434Q499 399 519 351.5Q539 304 539 250Q539 196 519.5 148.5Q500 101 465 66Q430 31 381.5 10.5Q333 -10 276 -10ZM137 651H415V538H137Z" glyph-name="omacron" horiz-adv-x="552" unicode="&#333;" /><glyph d="M179 746H457V633H179ZM318 163Q348 163 372 173.5Q396 184 413 202.5Q430 221 439 245.5Q448 270 448 298Q448 326 438.5 350.5Q429 375 412 393.5Q395 412 371 423Q347 434 318 434Q289 434 265.5 423Q242 412 225.5 393.5Q209 375 199.5 350.5Q190 326 190 298Q190 270 199 245.5Q208 221 224.5 202.5Q241 184 265 173.5Q289 163 318 163ZM318 -8Q251 -8 195 16Q139 40 99 81.5Q59 123 36.5 178.5Q14 234 14 298Q14 362 37 417.5Q60 473 100.5 514.5Q141 556 196.5 580Q252 604 318 604Q384 604 440 580Q496 556 537 514.5Q578 473 601 417.5Q624 362 624 298Q624 234 601.5 178.5Q579 123 538.5 81.5Q498 40 441.5 16Q385 -8 318 -8Z" glyph-name="omacron.smcp" horiz-adv-x="637" unicode="&#57991;" /><glyph d="M41 163H217V489Q200 465 169 451Q138 437 104 437H93V608H98Q134 608 158 619.5Q182 631 196.5 649Q211 667 217 688.5Q223 710 223 730H391V163H559V0H41Z" glyph-name="one" horiz-adv-x="598" unicode="1" /><glyph d="M23 163H165V489Q148 465 117 451Q86 437 52 437H41V608H46Q82 608 106 619.5Q130 631 144.5 649Q159 667 165 688.5Q171 710 171 730H339V163H473V0H23Z" glyph-name="one.LP" horiz-adv-x="491" unicode="&#58678;" /><glyph d="M41 163H217V489Q200 465 169 451Q138 437 104 437H93V608H98Q134 608 158 619.5Q182 631 196.5 649Q211 667 217 688.5Q223 710 223 730H391V163H559V0H41Z" glyph-name="one.LT" horiz-adv-x="598" unicode="&#58689;" /><glyph d="M9 117H90V257Q80 243 64 238Q48 233 28 233H22V350H25Q46 350 59.5 357Q73 364 80.5 374.5Q88 385 91 398Q94 411 94 422H217V117H294V0H9Z" glyph-name="one.inf" horiz-adv-x="301" unicode="&#58738;" /><glyph d="M9 425H90V565Q80 551 64 546Q48 541 28 541H22V658H25Q46 658 59.5 665Q73 672 80.5 682.5Q88 693 91 706Q94 719 94 730H217V425H294V308H9ZM583 88Q583 121 593.5 145Q604 169 621 187Q638 205 659 217.5Q680 230 700 240Q730 254 751 266Q772 278 772 294Q772 304 764.5 311Q757 318 740 318Q717 318 703 301Q689 284 682 266L573 323Q597 372 639 400Q681 428 742 428Q777 428 806.5 418.5Q836 409 857.5 391.5Q879 374 891 349.5Q903 325 903 296Q903 264 891 240Q879 216 861 198.5Q843 181 821 168.5Q799 156 779 147Q758 137 742.5 130.5Q727 124 723 117H901V0H583ZM613 730H808L281 0H86Z" glyph-name="onehalf" horiz-adv-x="910" unicode="&#189;" /><glyph d="M697 184V235L662 184ZM9 425H90V565Q80 551 64 546Q48 541 28 541H22V658H25Q46 658 59.5 665Q73 672 80.5 682.5Q88 693 91 706Q94 719 94 730H217V425H294V308H9ZM697 78H533V189L697 422H813V184H875V78H813V0H697ZM613 730H808L281 0H86Z" glyph-name="onequarter" horiz-adv-x="882" unicode="&#188;" /><glyph d="M1013 112Q1033 112 1046.5 125Q1060 138 1060 157Q1060 176 1046.5 189Q1033 202 1013 202Q994 202 981.5 189Q969 176 969 157Q969 138 981.5 125Q994 112 1013 112ZM9 425H90V565Q80 551 64 546Q48 541 28 541H22V658H25Q46 658 59.5 665Q73 672 80.5 682.5Q88 693 91 706Q94 719 94 730H217V425H294V308H9ZM551 117H632V257Q622 243 606 238Q590 233 570 233H564V350H567Q588 350 601.5 357Q615 364 622.5 374.5Q630 385 633 398Q636 411 636 422H759V117H836V0H551ZM1013 -6Q975 -6 943.5 6.5Q912 19 889.5 40.5Q867 62 854.5 91.5Q842 121 842 156Q842 188 856 222Q870 256 887 284L974 422H1118L1049 311Q1107 306 1146 265.5Q1185 225 1185 156Q1185 121 1173 91.5Q1161 62 1138 40.5Q1115 19 1083.5 6.5Q1052 -6 1013 -6ZM613 730H808L281 0H86Z" glyph-name="onesixteenth" horiz-adv-x="1191" unicode="&#61973;" /><glyph d="M9 425H90V565Q80 551 64 546Q48 541 28 541H22V658H25Q46 658 59.5 665Q73 672 80.5 682.5Q88 693 91 706Q94 719 94 730H217V425H294V308H9Z" glyph-name="onesuperior" horiz-adv-x="301" unicode="&#185;" /><glyph d="M23 326H343V182H23Z" glyph-name="onethirdemdash" horiz-adv-x="365" unicode="&#58481;" /><glyph d="M23 436H343V292H23Z" glyph-name="onethirdemdash.cap" horiz-adv-x="365" unicode="&#58499;" /><glyph d="M173 548Q188 548 198 559Q208 570 208 586Q208 602 198 612.5Q188 623 173 623Q156 623 145.5 613Q135 603 135 586Q135 569 145.5 558.5Q156 548 173 548ZM137 435Q119 435 97.5 442.5Q76 450 57.5 467.5Q39 485 26.5 514Q14 543 14 585Q14 628 27 657Q40 686 58.5 703.5Q77 721 99 728.5Q121 736 139 736Q163 736 180 727.5Q197 719 208 705V730H326V440H208V470Q197 455 179 445Q161 435 137 435Z" glyph-name="ordfeminine" horiz-adv-x="348" unicode="&#170;" /><glyph d="M152 513Q173 513 190.5 526Q208 539 212 553V561Q207 557 194 552Q181 547 172 545Q158 540 147.5 535Q137 530 137 524Q137 513 152 513ZM120 434Q69 434 41 455.5Q13 477 13 519Q13 544 25 560.5Q37 577 55.5 588Q74 599 96.5 605.5Q119 612 140 616Q168 621 187.5 626Q207 631 207 642Q207 655 178 655Q161 655 151 649Q141 643 141 629V627H20Q20 654 31.5 674.5Q43 695 64 708.5Q85 722 114 729Q143 736 177 736Q326 736 326 630V440H208V462Q193 450 171 442Q149 434 120 434Z" glyph-name="ordfeminine.alt" horiz-adv-x="348" unicode="&#59686;" /><glyph d="M178 603 164 558H193ZM115 730H242L345 440H231L221 470H135L126 440H12Z" glyph-name="ordfeminine.smcp" horiz-adv-x="356" unicode="&#58193;" /><glyph d="M163 549Q177 549 187 560Q197 571 197 585Q197 601 187 611.5Q177 622 163 622Q147 622 137.5 611.5Q128 601 128 585Q128 571 137.5 560Q147 549 163 549ZM163 435Q131 435 104 447Q77 459 56.5 479Q36 499 24.5 526.5Q13 554 13 585Q13 616 24.5 644Q36 672 56.5 692Q77 712 104 724Q131 736 163 736Q194 736 221.5 724Q249 712 269 692Q289 672 300.5 644Q312 616 312 585Q312 554 300.5 526.5Q289 499 269 479Q249 459 221.5 447Q194 435 163 435Z" glyph-name="ordmasculine" horiz-adv-x="325" unicode="&#186;" /><glyph d="M163 549Q177 549 187 560Q197 571 197 585Q197 601 187 611.5Q177 622 163 622Q147 622 137.5 611.5Q128 601 128 585Q128 571 137.5 560Q147 549 163 549ZM163 435Q131 435 104 447Q77 459 56.5 479Q36 499 24.5 526.5Q13 554 13 585Q13 616 24.5 644Q36 672 56.5 692Q77 712 104 724Q131 736 163 736Q194 736 221.5 724Q249 712 269 692Q289 672 300.5 644Q312 616 312 585Q312 554 300.5 526.5Q289 499 269 479Q249 459 221.5 447Q194 435 163 435Z" glyph-name="ordmasculine.smcp" horiz-adv-x="325" unicode="&#58194;" /><glyph d="M171 250Q171 231 175 218L293 360Q283 362 276 362Q231 362 201 330Q171 298 171 250ZM276 139Q298 139 317.5 147.5Q337 156 351.5 171Q366 186 374 206Q382 226 382 250Q382 266 377 284L258 140Q263 139 267 139Q271 139 276 139ZM276 -10Q243 -10 212.5 -3Q182 4 156 17L142 0H-6L67 88Q41 122 27 163Q13 204 13 250Q13 304 32.5 351.5Q52 399 87 434Q122 469 170.5 489.5Q219 510 276 510Q341 510 395 482L410 500H557L483 411Q509 378 524 337Q539 296 539 250Q539 196 519.5 148.5Q500 101 465 66Q430 31 381.5 10.5Q333 -10 276 -10Z" glyph-name="oslash" horiz-adv-x="552" unicode="&#248;" /><glyph d="M318 156Q349 156 374.5 167.5Q400 179 417.5 198.5Q435 218 444.5 243.5Q454 269 454 298Q454 322 446 348L292 158Q298 157 304.5 156.5Q311 156 318 156ZM184 298Q184 269 193 244L349 436Q336 440 318 440Q288 440 263.5 429Q239 418 221 398.5Q203 379 193.5 353Q184 327 184 298ZM318 -8Q241 -8 181 22L163 0H-6L79 104Q48 144 31 193Q14 242 14 298Q14 362 37 417.5Q60 473 100.5 514.5Q141 556 196.5 580Q252 604 318 604Q356 604 391.5 595.5Q427 587 459 571L479 596H647L559 488Q590 449 607 400.5Q624 352 624 298Q624 234 601.5 178.5Q579 123 538.5 81.5Q498 40 441.5 16Q385 -8 318 -8Z" glyph-name="oslash.smcp" horiz-adv-x="637" unicode="&#58005;" /><glyph d="M171 250Q171 231 175 218L293 360Q283 362 276 362Q231 362 201 330Q171 298 171 250ZM276 139Q298 139 317.5 147.5Q337 156 351.5 171Q366 186 374 206Q382 226 382 250Q382 266 377 284L258 140Q263 139 267 139Q271 139 276 139ZM320 715H488L333 538H208ZM276 -10Q243 -10 212.5 -3Q182 4 156 17L142 0H-6L67 88Q41 122 27 163Q13 204 13 250Q13 304 32.5 351.5Q52 399 87 434Q122 469 170.5 489.5Q219 510 276 510Q341 510 395 482L410 500H557L483 411Q509 378 524 337Q539 296 539 250Q539 196 519.5 148.5Q500 101 465 66Q430 31 381.5 10.5Q333 -10 276 -10Z" glyph-name="oslashacute" horiz-adv-x="552" unicode="&#511;" /><glyph d="M318 156Q349 156 374.5 167.5Q400 179 417.5 198.5Q435 218 444.5 243.5Q454 269 454 298Q454 322 446 348L292 158Q298 157 304.5 156.5Q311 156 318 156ZM184 298Q184 269 193 244L349 436Q336 440 318 440Q288 440 263.5 429Q239 418 221 398.5Q203 379 193.5 353Q184 327 184 298ZM363 811H531L376 634H251ZM318 -8Q241 -8 181 22L163 0H-6L79 104Q48 144 31 193Q14 242 14 298Q14 362 37 417.5Q60 473 100.5 514.5Q141 556 196.5 580Q252 604 318 604Q356 604 391.5 595.5Q427 587 459 571L479 596H647L559 488Q590 449 607 400.5Q624 352 624 298Q624 234 601.5 178.5Q579 123 538.5 81.5Q498 40 441.5 16Q385 -8 318 -8Z" glyph-name="oslashacute.smcp" horiz-adv-x="637" unicode="&#58006;" /><glyph d="M109 537Q109 684 217 684Q241 684 259 677.5Q277 671 291 663Q305 655 316.5 649Q328 643 339 643Q360 643 360 680H456Q456 613 431 573Q406 533 348 533Q319 533 301 540.5Q283 548 269 556Q257 562 246.5 567.5Q236 573 225 573Q213 573 207.5 565Q202 557 202 537ZM276 148Q318 148 345.5 177Q373 206 373 250Q373 294 345.5 323.5Q318 353 276 353Q234 353 207 323.5Q180 294 180 250Q180 206 207 177Q234 148 276 148ZM276 -10Q219 -10 170.5 10.5Q122 31 87 66Q52 101 32.5 148.5Q13 196 13 250Q13 304 32.5 351.5Q52 399 87 434Q122 469 170.5 489.5Q219 510 276 510Q332 510 380 489.5Q428 469 463.5 434Q499 399 519 351.5Q539 304 539 250Q539 196 519.5 148.5Q500 101 465 66Q430 31 381.5 10.5Q333 -10 276 -10Z" glyph-name="otilde" horiz-adv-x="552" unicode="&#245;" /><glyph d="M150 633Q150 780 258 780Q282 780 300 773.5Q318 767 332 759Q346 751 357.5 745Q369 739 380 739Q401 739 401 776H497Q497 709 472 669Q447 629 389 629Q360 629 342 636.5Q324 644 310 652Q298 658 287.5 663.5Q277 669 266 669Q254 669 248.5 661Q243 653 243 633ZM318 163Q348 163 372 173.5Q396 184 413 202.5Q430 221 439 245.5Q448 270 448 298Q448 326 438.5 350.5Q429 375 412 393.5Q395 412 371 423Q347 434 318 434Q289 434 265.5 423Q242 412 225.5 393.5Q209 375 199.5 350.5Q190 326 190 298Q190 270 199 245.5Q208 221 224.5 202.5Q241 184 265 173.5Q289 163 318 163ZM318 -8Q251 -8 195 16Q139 40 99 81.5Q59 123 36.5 178.5Q14 234 14 298Q14 362 37 417.5Q60 473 100.5 514.5Q141 556 196.5 580Q252 604 318 604Q384 604 440 580Q496 556 537 514.5Q578 473 601 417.5Q624 362 624 298Q624 234 601.5 178.5Q579 123 538.5 81.5Q498 40 441.5 16Q385 -8 318 -8Z" glyph-name="otilde.smcp" horiz-adv-x="637" unicode="&#57989;" /><glyph d="M318 163Q348 163 372 173.5Q396 184 413 202.5Q430 221 439 245.5Q448 270 448 298Q448 326 438.5 350.5Q429 375 412 393.5Q395 412 371 423Q347 434 318 434Q289 434 265.5 423Q242 412 225.5 393.5Q209 375 199.5 350.5Q190 326 190 298Q190 270 199 245.5Q208 221 224.5 202.5Q241 184 265 173.5Q289 163 318 163ZM318 -8Q251 -8 195 16Q139 40 99 81.5Q59 123 36.5 178.5Q14 234 14 298Q14 362 37 417.5Q60 473 100.5 514.5Q141 556 196.5 580Q252 604 318 604Q384 604 440 580Q496 556 537 514.5Q578 473 601 417.5Q624 362 624 298Q624 234 601.5 178.5Q579 123 538.5 81.5Q498 40 441.5 16Q385 -8 318 -8ZM20 596H155V584Q111 560 82 530Q53 500 32 458H20ZM605 455Q585 502 552.5 532Q520 562 478 584V596H617V455Z" glyph-name="oumlaut.smcp" horiz-adv-x="637" unicode="&#61824;" /><glyph d="M282 147Q325 147 353.5 176.5Q382 206 382 251Q382 296 353.5 325.5Q325 355 282 355Q239 355 211.5 325Q184 295 184 251Q184 207 211.5 177Q239 147 282 147ZM327 -10Q234 -10 191 52V-230H23V500H190V440Q210 472 243 491Q276 510 324 510Q368 510 409 492Q450 474 481.5 440.5Q513 407 531.5 358.5Q550 310 550 250Q550 189 531 140.5Q512 92 481 58.5Q450 25 410 7.5Q370 -10 327 -10Z" glyph-name="p" horiz-adv-x="562" unicode="p" /><glyph d="M196 439V303H231Q261 303 280.5 321Q300 339 300 371Q300 404 280.5 421.5Q261 439 231 439ZM23 596H234Q293 596 338.5 578Q384 560 414.5 529.5Q445 499 461 458Q477 417 477 372Q477 327 461.5 285.5Q446 244 416 212.5Q386 181 340.5 162Q295 143 235 143H196V0H23Z" glyph-name="p.smcp" horiz-adv-x="491" unicode="&#57856;" /><glyph d="M318 302H231Q184 302 144.5 318.5Q105 335 76 364Q47 393 30.5 432Q14 471 14 516Q14 561 30.5 600Q47 639 76 668Q105 697 144.5 713.5Q184 730 230 730H667V0H513V572H473V0H318Z" glyph-name="paragraph" horiz-adv-x="689" unicode="&#182;" /><glyph d="M296 -275Q233 -232 181.5 -178Q130 -124 92.5 -59Q55 6 34.5 83Q14 160 14 250Q14 339 34 415Q54 491 90 555Q126 619 177 672.5Q228 726 290 770L396 634Q354 604 317.5 566.5Q281 529 253 482Q225 435 209 377.5Q193 320 193 250Q193 181 208.5 124.5Q224 68 251 21Q278 -26 316 -63.5Q354 -101 399 -132Z" glyph-name="parenleft" horiz-adv-x="399" unicode="(" /><glyph d="M296 -165Q233 -122 181.5 -68Q130 -14 92.5 51Q55 116 34.5 193Q14 270 14 360Q14 449 34 525Q54 601 90 665Q126 729 177 782.5Q228 836 290 880L396 744Q354 714 317.5 676.5Q281 639 253 592Q225 545 209 487.5Q193 430 193 360Q193 291 208.5 234.5Q224 178 251 131Q278 84 316 46.5Q354 9 399 -22Z" glyph-name="parenleft.cap" horiz-adv-x="399" unicode="&#58513;" /><glyph d="M163 -101Q92 -42 53.5 33.5Q15 109 15 209Q15 309 53.5 384Q92 459 163 518L242 419Q195 381 168 328.5Q141 276 141 209Q141 142 168 89.5Q195 37 242 -2Z" glyph-name="parenleft.inf" horiz-adv-x="254" unicode="&#58750;" /><glyph d="M234 -152Q131 -71 72.5 38Q14 147 14 294Q14 368 29 430.5Q44 493 72 547Q100 601 140 647Q180 693 230 734L336 597Q273 547 231.5 472Q190 397 190 294Q190 194 229.5 119Q269 44 338 -7Z" glyph-name="parenleft.smcp" horiz-adv-x="334" unicode="&#58521;" /><glyph d="M206 249Q206 319 190 377Q174 435 146 482Q118 529 81.5 566.5Q45 604 3 634L109 770Q171 725 222 672Q273 619 309 554.5Q345 490 365 414.5Q385 339 385 249Q385 159 364.5 82Q344 5 306.5 -60Q269 -125 217.5 -178.5Q166 -232 103 -275L-1 -132Q44 -102 82 -64Q120 -26 147.5 20.5Q175 67 190.5 124Q206 181 206 249Z" glyph-name="parenright" horiz-adv-x="399" unicode=")" /><glyph d="M-1 -22Q44 9 82 46.5Q120 84 147.5 131Q175 178 190.5 234.5Q206 291 206 360Q206 430 190 487.5Q174 545 146 592Q118 639 81.5 676.5Q45 714 3 744L109 880Q171 836 222 782.5Q273 729 309 665Q345 601 365 525Q385 449 385 360Q385 270 364.5 193Q344 116 306.5 51Q269 -14 217.5 -68Q166 -122 103 -165Z" glyph-name="parenright.cap" horiz-adv-x="399" unicode="&#58514;" /><glyph d="M13 -2Q60 37 86.5 89.5Q113 142 113 209Q113 276 86.5 328.5Q60 381 13 419L92 518Q162 459 201 384Q240 309 240 209Q240 109 201.5 33.5Q163 -42 92 -101Z" glyph-name="parenright.inf" horiz-adv-x="254" unicode="&#58751;" /><glyph d="M-4 -7Q65 44 104.5 119Q144 194 144 294Q144 396 102.5 471.5Q61 547 -3 597L104 734Q154 693 194 647Q234 601 262 547Q290 493 305 430.5Q320 368 320 294Q320 147 261.5 38Q203 -71 100 -152Z" glyph-name="parenright.smcp" horiz-adv-x="334" unicode="&#58522;" /><glyph d="M278 143Q299 143 317.5 151.5Q336 160 349.5 174Q363 188 371 207Q379 226 379 247Q379 269 371.5 288Q364 307 350.5 321Q337 335 318.5 343.5Q300 352 279 352Q258 352 239 344Q220 336 206.5 322Q193 308 185 288.5Q177 269 177 247Q177 202 206.5 172.5Q236 143 278 143ZM276 -10Q222 -10 174 8.5Q126 27 90.5 60.5Q55 94 34 141.5Q13 189 13 247Q13 303 32 347.5Q51 392 83.5 423.5Q116 455 160 472Q204 489 254 489Q276 489 295.5 483.5Q315 478 332 470Q290 531 219 593.5Q148 656 39 730H272Q347 671 399 610.5Q451 550 482.5 490Q514 430 528 373.5Q542 317 542 267Q542 205 522 154.5Q502 104 466.5 67Q431 30 382 10Q333 -10 276 -10Z" glyph-name="partialdiff" horiz-adv-x="557" unicode="&#8706;" /><glyph d="M14 556Q14 594 28.5 627.5Q43 661 68 686Q93 711 126.5 725.5Q160 740 198 740Q236 740 269.5 725.5Q303 711 328 686Q353 661 367.5 627.5Q382 594 382 556Q382 518 367.5 484.5Q353 451 328 426.5Q303 402 269.5 387.5Q236 373 198 373Q160 373 126.5 387.5Q93 402 68 426.5Q43 451 28.5 484.5Q14 518 14 556ZM593 173Q593 155 605.5 142Q618 129 636 129Q654 129 667 142Q680 155 680 173Q680 191 667 204Q654 217 636 217Q618 217 605.5 204Q593 191 593 173ZM623 730H838L211 0H-4ZM452 173Q452 211 466.5 244.5Q481 278 506 303Q531 328 564.5 342.5Q598 357 636 357Q674 357 707.5 342.5Q741 328 766 303Q791 278 805.5 244.5Q820 211 820 173Q820 135 805.5 101.5Q791 68 766 43Q741 18 707.5 3.5Q674 -11 636 -11Q598 -11 564.5 3.5Q531 18 506 43Q481 68 466.5 101.5Q452 135 452 173ZM154 556Q154 538 167 525.5Q180 513 198 513Q216 513 229 525.5Q242 538 242 556Q242 574 229 587Q216 600 198 600Q180 600 167 587Q154 574 154 556Z" glyph-name="percent" horiz-adv-x="834" unicode="%" /><glyph d="M423 99Q434 99 442 106.5Q450 114 450 125Q450 136 442 144Q434 152 423 152Q412 152 404.5 144Q397 136 397 125Q397 114 404.5 106.5Q412 99 423 99ZM423 -10Q395 -10 370.5 0.5Q346 11 327.5 29.5Q309 48 298.5 72.5Q288 97 288 125Q288 153 298.5 178Q309 203 327.5 221.5Q346 240 370.5 250.5Q395 261 423 261Q451 261 476 250.5Q501 240 519.5 221.5Q538 203 548.5 178Q559 153 559 125Q559 97 548.5 72.5Q538 48 519.5 29.5Q501 11 476 0.5Q451 -10 423 -10ZM141 578Q152 578 160 585.5Q168 593 168 604Q168 615 160 623Q152 631 141 631Q130 631 122.5 623Q115 615 115 604Q115 593 122.5 585.5Q130 578 141 578ZM141 469Q113 469 88.5 479.5Q64 490 45.5 508.5Q27 527 16.5 551.5Q6 576 6 604Q6 632 16.5 657Q27 682 45.5 700.5Q64 719 88.5 729.5Q113 740 141 740Q169 740 194 729.5Q219 719 237.5 700.5Q256 682 266.5 657Q277 632 277 604Q277 576 266.5 551.5Q256 527 237.5 508.5Q219 490 194 479.5Q169 469 141 469ZM386 730H568L178 0H-4Z" glyph-name="percent.LT" horiz-adv-x="563" unicode="&#62569;" /><glyph d="M23 175H196V0H23Z" glyph-name="period" horiz-adv-x="219" unicode="." /><glyph d="M52 175H226V0H52Z" glyph-name="period.T" horiz-adv-x="283" unicode="&#61826;" /><glyph d="M23 340H196V166H23Z" glyph-name="periodcentered" horiz-adv-x="219" unicode="&#183;" /><glyph d="M23 450H196V276H23Z" glyph-name="periodcentered.cap" horiz-adv-x="219" unicode="&#58497;" /><glyph d="M1020 129Q1038 129 1051 142Q1064 155 1064 173Q1064 191 1051 204Q1038 217 1020 217Q1002 217 989.5 204Q977 191 977 173Q977 155 989.5 142Q1002 129 1020 129ZM1020 -11Q982 -11 948.5 3.5Q915 18 890 43Q865 68 850.5 101.5Q836 135 836 173Q836 211 850.5 244.5Q865 278 890 303Q915 328 948.5 342.5Q982 357 1020 357Q1058 357 1091.5 342.5Q1125 328 1150 303Q1175 278 1189.5 244.5Q1204 211 1204 173Q1204 135 1189.5 101.5Q1175 68 1150 43Q1125 18 1091.5 3.5Q1058 -11 1020 -11ZM198 513Q216 513 229 525.5Q242 538 242 556Q242 574 229 587Q216 600 198 600Q180 600 167 587Q154 574 154 556Q154 538 167 525.5Q180 513 198 513ZM198 373Q160 373 126.5 387.5Q93 402 68 426.5Q43 451 28.5 484.5Q14 518 14 556Q14 594 28.5 627.5Q43 661 68 686Q93 711 126.5 725.5Q160 740 198 740Q236 740 269.5 725.5Q303 711 328 686Q353 661 367.5 627.5Q382 594 382 556Q382 518 367.5 484.5Q353 451 328 426.5Q303 402 269.5 387.5Q236 373 198 373ZM636 129Q654 129 667 142Q680 155 680 173Q680 191 667 204Q654 217 636 217Q618 217 605.5 204Q593 191 593 173Q593 155 605.5 142Q618 129 636 129ZM636 -11Q598 -11 564.5 3.5Q531 18 506 43Q481 68 466.5 101.5Q452 135 452 173Q452 211 466.5 244.5Q481 278 506 303Q531 328 564.5 342.5Q598 357 636 357Q674 357 707.5 342.5Q741 328 766 303Q791 278 805.5 244.5Q820 211 820 173Q820 135 805.5 101.5Q791 68 766 43Q741 18 707.5 3.5Q674 -11 636 -11ZM623 730H838L211 0H-4Z" glyph-name="perthousand" horiz-adv-x="1218" unicode="&#8240;" /><glyph d="M197 571V354H265Q313 354 344 383.5Q375 413 375 462Q375 511 344 541Q313 571 265 571ZM863 0Q791 0 745 11Q699 22 672 49Q645 76 635 121Q625 166 625 233V352H530Q500 281 433.5 236.5Q367 192 271 192H197V0H23V730H271Q329 730 377.5 712Q426 694 462 663Q498 632 520.5 590Q543 548 549 500H625V617L795 708V500H891V352H795V229Q795 199 797.5 182Q800 165 809.5 156.5Q819 148 838.5 145.5Q858 143 891 143H1128Q1163 143 1176.5 149.5Q1190 156 1190 168Q1190 182 1164 187Q1138 192 1101 197Q1070 201 1036.5 209Q1003 217 974.5 233Q946 249 927.5 276Q909 303 909 346Q909 384 925.5 415Q942 446 971.5 467.5Q1001 489 1041 500.5Q1081 512 1129 512Q1224 512 1280 476Q1336 440 1363 384L1208 344Q1199 368 1178 380.5Q1157 393 1131 393Q1106 393 1093.5 385Q1081 377 1081 364Q1081 356 1088.5 351Q1096 346 1109.5 342.5Q1123 339 1141 336Q1159 333 1179 330Q1210 325 1243.5 316.5Q1277 308 1305 291.5Q1333 275 1351 247Q1369 219 1369 175Q1369 139 1356.5 107Q1344 75 1315 51Q1286 27 1239.5 13Q1193 -1 1126 0Z" glyph-name="peseta" horiz-adv-x="1432" unicode="&#8359;" /><glyph d="M23 730H736V567H622L621 233Q621 213 623 201Q625 189 632 181.5Q639 174 651.5 171.5Q664 169 684 169H708V0H665Q595 0 552.5 12.5Q510 25 486.5 52Q463 79 455 122Q447 165 447 227V567H309V0H135V567H23Z" glyph-name="pi" horiz-adv-x="759" unicode="&#960;" /><glyph d="M25 436H141V549H281V436H395V293H281V179H141V293H25Z" glyph-name="plus" horiz-adv-x="421" unicode="+" /><glyph d="M10 261H68V317H167V261H224V160H167V104H68V160H10Z" glyph-name="plus.inf" horiz-adv-x="235" unicode="&#58747;" /><glyph d="M25 253H395V111H25ZM25 550H141V664H281V550H395V408H281V294H141V408H25Z" glyph-name="plusminus" horiz-adv-x="421" unicode="&#177;" /><glyph d="M23 730H736V567H625V0H451V567H309V0H135V567H23Z" glyph-name="product" horiz-adv-x="759" unicode="&#8719;" /><glyph d="M379 381V301H410Q427 301 438.5 312Q450 323 450 340Q450 357 438.5 369Q427 381 410 381ZM246 490H435Q465 490 491.5 478Q518 466 538.5 446Q559 426 570.5 398.5Q582 371 582 340Q582 309 570.5 281.5Q559 254 539.5 233Q520 212 493 200Q466 188 436 188H379V120H246ZM393 67Q444 67 487.5 86Q531 105 563.5 138Q596 171 614.5 214.5Q633 258 633 308Q633 357 614 400.5Q595 444 562.5 477Q530 510 486.5 529Q443 548 393 548Q342 548 298.5 529Q255 510 223 477Q191 444 173 400.5Q155 357 155 308Q155 258 173 214.5Q191 171 222.5 138Q254 105 298 86Q342 67 393 67ZM393 -68Q313 -68 244 -39Q175 -10 124 41Q73 92 43.5 160.5Q14 229 14 308Q14 386 43.5 454.5Q73 523 124 573.5Q175 624 244 653.5Q313 683 393 683Q472 683 541 654Q610 625 661.5 574.5Q713 524 742.5 455.5Q772 387 772 308Q772 229 742.5 160.5Q713 92 662 41Q611 -10 541.5 -39Q472 -68 393 -68Z" glyph-name="published" horiz-adv-x="786" unicode="&#8471;" /><glyph d="M282 147Q325 147 352.5 177Q380 207 380 251Q380 295 352.5 325Q325 355 282 355Q239 355 210.5 325.5Q182 296 182 251Q182 206 210.5 176.5Q239 147 282 147ZM238 -10Q195 -10 155 7.5Q115 25 83.5 58.5Q52 92 33 140.5Q14 189 14 250Q14 310 33 358.5Q52 407 83.5 440.5Q115 474 156 492Q197 510 241 510Q288 510 320.5 492Q353 474 374 444V500H541V-230H373V53Q328 -10 238 -10Z" glyph-name="q" horiz-adv-x="564" unicode="q" /><glyph d="M322 -8Q255 -8 199 16Q143 40 102.5 81.5Q62 123 39.5 178.5Q17 234 17 298Q17 362 40 417.5Q63 473 104 514.5Q145 556 200.5 580Q256 604 322 604Q388 604 443.5 580Q499 556 540 514.5Q581 473 604 417.5Q627 362 627 298Q627 243 610.5 194.5Q594 146 564 107L646 0H480L247 306H411L455 249Q458 260 460 272.5Q462 285 462 298Q462 328 452 355Q442 382 423.5 402Q405 422 379 433.5Q353 445 322 445Q291 445 265.5 433.5Q240 422 221.5 402Q203 382 193 355Q183 328 183 298Q183 269 192.5 242.5Q202 216 220 196Q238 176 263 164Q288 152 320 151Q330 151 340 153L444 16Q416 4 386.5 -2Q357 -8 322 -8Z" glyph-name="q.smcp" horiz-adv-x="644" unicode="&#57873;" /><glyph d="M157 175H330V0H157ZM173 218Q173 275 184.5 313Q196 351 213 377Q230 403 249.5 420Q269 437 286 452Q303 467 314.5 483Q326 499 326 524Q326 553 305.5 572.5Q285 592 249 592Q215 592 190.5 571Q166 550 158 521L10 589Q38 658 98 699Q158 740 258 740Q312 740 356.5 723.5Q401 707 432 678.5Q463 650 480 611Q497 572 497 526Q497 479 483.5 448.5Q470 418 450 396.5Q430 375 406.5 358.5Q383 342 363 323.5Q343 305 329.5 280.5Q316 256 316 218V211H173Z" glyph-name="question" horiz-adv-x="515" unicode="?" /><glyph d="M185 500H359V326H185ZM257 -240Q203 -240 159 -223.5Q115 -207 84 -178.5Q53 -150 36 -111Q19 -72 19 -26Q19 21 32.5 51.5Q46 82 66 104Q86 126 109.5 142Q133 158 153 177Q173 196 186.5 220.5Q200 245 200 283V290H342V283Q342 225 330.5 187Q319 149 302.5 123Q286 97 266 80Q246 63 229.5 48Q213 33 201.5 16.5Q190 0 190 -24Q190 -53 210.5 -72.5Q231 -92 266 -92Q300 -92 324.5 -71Q349 -50 358 -21L506 -89Q477 -158 417 -199Q357 -240 257 -240Z" glyph-name="questiondown" horiz-adv-x="515" unicode="&#191;" /><glyph d="M185 730H359V556H185ZM257 -10Q203 -10 159 6.5Q115 23 84 51.5Q53 80 36 119Q19 158 19 204Q19 251 32.5 281.5Q46 312 66 334Q86 356 109.5 372Q133 388 153 407Q173 426 186.5 450.5Q200 475 200 513V520H342V513Q342 455 330.5 417Q319 379 302.5 353Q286 327 266 310Q246 293 229.5 278.5Q213 264 201.5 247.5Q190 231 190 207Q190 177 210.5 157.5Q231 138 266 138Q300 138 324.5 159.5Q349 181 358 210L506 141Q477 72 417 31Q357 -10 257 -10Z" glyph-name="questiondown.cap" horiz-adv-x="515" unicode="&#58436;" /><glyph d="M219 470Q214 479 207.5 497.5Q201 516 194.5 538Q188 560 183.5 583.5Q179 607 179 626V730H306V626Q306 607 301 583.5Q296 560 289 537.5Q282 515 275 497Q268 479 264 470ZM63 470Q58 479 51.5 497.5Q45 516 38.5 538Q32 560 27.5 583.5Q23 607 23 626V730H149V626Q149 607 144 583.5Q139 560 132.5 537.5Q126 515 119 497Q112 479 108 470Z" glyph-name="quotedbl" horiz-adv-x="328" unicode="&quot;" /><glyph d="M76 -89 116 135H307L231 -89Z" glyph-name="quotedblbase" horiz-adv-x="408" unicode="&#8222;" /><glyph d="M406 507H277L201 730H365ZM216 507H88L11 730H176Z" glyph-name="quotedblleft" horiz-adv-x="417" unicode="&#8220;" /><glyph d="M202 507 242 730H407L330 507ZM12 507 53 730H217L141 507Z" glyph-name="quotedblright" horiz-adv-x="417" unicode="&#8221;" /><glyph d="M214 507H86L9 730H174Z" glyph-name="quoteleft" horiz-adv-x="228" unicode="&#8216;" /><glyph d="M12 507 53 730H217L141 507Z" glyph-name="quoteright" horiz-adv-x="228" unicode="&#8217;" /><glyph d="M-6 -89 35 135H199L123 -89Z" glyph-name="quotesinglbase" horiz-adv-x="219" unicode="&#8218;" /><glyph d="M63 470Q58 479 51.5 497.5Q45 516 38.5 538Q32 560 27.5 583.5Q23 607 23 626V730H149V626Q149 607 144 583.5Q139 560 132.5 537.5Q126 515 119 497Q112 479 108 470Z" glyph-name="quotesingle" horiz-adv-x="172" unicode="&apos;" /><glyph d="M23 500H188V413Q205 454 237.5 477Q270 500 321 500H377V332H274Q250 332 233.5 327.5Q217 323 207 311.5Q197 300 193 280.5Q189 261 189 232V0H23Z" glyph-name="r" horiz-adv-x="396" unicode="r" /><glyph d="M195 439V324H246Q278 324 294.5 341.5Q311 359 311 382Q311 439 246 439ZM23 596H256Q313 596 356 579Q399 562 428 533Q457 504 472 465.5Q487 427 487 385Q487 327 461.5 279Q436 231 385 203L500 0H306L195 223V0H23Z" glyph-name="r.smcp" horiz-adv-x="500" unicode="&#57874;" /><glyph d="M250 712H418L263 535H138ZM23 500H188V413Q205 454 237.5 477Q270 500 321 500H377V332H274Q250 332 233.5 327.5Q217 323 207 311.5Q197 300 193 280.5Q189 261 189 232V0H23Z" glyph-name="racute" horiz-adv-x="396" unicode="&#341;" /></font>
</defs>
</svg>
