<svg id="Layer_2" data-name="Layer 2" xmlns="http://www.w3.org/2000/svg" viewBox="0 0 104.8 73.91"><defs><style>.cls-1{fill:#666766;}</style></defs><title>cart</title><path class="cls-1" d="M116.43,55.66a25.54,25.54,0,0,0-2.46-.37H37.52l-6-11.67a9.49,9.49,0,0,0-8.47-5.17h-6.8a3,3,0,0,0,0,6h6.8a3.51,3.51,0,0,1,3.14,1.92l21.7,42.26a3,3,0,0,0,2.67,1.63h49.52a3,3,0,0,0,2.66-1.62l15-28.93A3,3,0,0,0,116.43,55.66ZM98.26,84.25H52.39l-11.79-23h69.54Z" transform="translate(-13.25 -38.44)"/><path class="cls-1" d="M50.68,112.34H50.42a6,6,0,1,1,0-12h0.26A6,6,0,1,1,50.68,112.34Z" transform="translate(-13.25 -38.44)"/><path class="cls-1" d="M100.22,112.35H100a6,6,0,0,1,0-12h0.26A6,6,0,1,1,100.22,112.35Z" transform="translate(-13.25 -38.44)"/></svg>