<svg id="Social_Icons" data-name="Social Icons" xmlns="http://www.w3.org/2000/svg" viewBox="0 0 52.4 52.4"><defs><style>.cls-1{fill:#999;fill-rule:evenodd;}</style></defs><title>instagram</title><path class="cls-1" d="M55.53,48.8H94.47a6.75,6.75,0,0,1,6.73,6.73V94.48a6.75,6.75,0,0,1-6.73,6.72H55.53a6.74,6.74,0,0,1-6.73-6.72V55.53a6.75,6.75,0,0,1,6.73-6.73h0ZM87,54.62A2.37,2.37,0,0,0,84.61,57v5.65A2.36,2.36,0,0,0,87,65H92.9a2.37,2.37,0,0,0,2.36-2.36V57a2.37,2.37,0,0,0-2.36-2.36H87ZM95.28,71H90.67a15.38,15.38,0,0,1,.67,4.5,16.3,16.3,0,0,1-32.58,0,15.37,15.37,0,0,1,.67-4.5H54.62V93.1a2.09,2.09,0,0,0,2.08,2.08H93.2a2.09,2.09,0,0,0,2.08-2.08V71h0ZM75.05,64.69a10.2,10.2,0,1,0,10.52,10.2A10.36,10.36,0,0,0,75.05,64.69Z" transform="translate(-48.8 -48.8)"/></svg>