<?xml version="1.0" encoding="utf-8"?>
<!-- Generator: Adobe Illustrator 19.2.1, SVG Export Plug-In . SVG Version: 6.00 Build 0)  -->
<svg version="1.1" id="Layer_1" xmlns="http://www.w3.org/2000/svg" xmlns:xlink="http://www.w3.org/1999/xlink" x="0px" y="0px"
	 viewBox="0 0 30 130" style="enable-background:new 0 0 30 130;" xml:space="preserve">
<style type="text/css">
	.st0{display:none;}
	.st1{display:inline;}
	.st2{fill:#C1C1C1;}
	.st3{display:inline;fill:#C1C1C1;stroke:#FFFFFF;stroke-width:0.8;stroke-linecap:round;stroke-miterlimit:10;}
	.st4{display:inline;fill:none;stroke:#FFFFFF;stroke-width:0.8;stroke-linecap:round;stroke-miterlimit:10;}
	.st5{display:inline;stroke:#FFFFFF;stroke-width:0.8;stroke-linecap:round;stroke-miterlimit:10;}
</style>
<g id="Layer_1_2_">
	<g id="Layer_1_1_" class="st0">
	</g>
	<g id="COMPARE" class="st0">
		<g id="Ift84p_1_" class="st1">
		</g>
	</g>
	<g id="LINES" class="st0">
	</g>
	<g id="PHONE_copy">
	</g>
	<g id="iPhone_6_x2B_">
	</g>
	<g id="iPhone_6">
		<g id="GROUP" class="st0">
			<g class="st1">
				<path class="st2" d="M23.9,60.9H6.1c-3.2,0-5.9-2.6-5.9-5.9V5.9C0.2,2.6,2.8,0,6.1,0H24c3.2,0,5.9,2.6,5.9,5.9v49.2
					C29.8,58.3,27,60.9,23.9,60.9z"/>
			</g>
			<g class="st1">
				<path class="st2" d="M27,53.3H2.9c-0.6,0-1.1-0.5-1.1-1.1V8.4c0-0.6,0.5-1.1,1.1-1.1h24.2c0.6,0,1.1,0.5,1.1,1.1v43.8
					C28.2,52.8,27.7,53.3,27,53.3z"/>
			</g>
			<circle class="st3" cx="15" cy="56.9" r="2.4"/>
			<line class="st4" x1="12.3" y1="4" x2="17.7" y2="4"/>
		</g>
		<g>
			<g>
				<circle class="st2" cx="15" cy="56.9" r="2"/>
			</g>
			<g>
				<path class="st2" d="M23.9,0H6.1C2.8,0,0.2,2.6,0.2,5.9v49.2c0,3.2,2.6,5.9,5.9,5.9H24c3.2,0,5.9-2.6,5.9-5.9V5.9
					C29.8,2.6,27,0,23.9,0z M12.3,3.6h5.4C17.9,3.6,18,3.8,18,4c0,0.2-0.2,0.4-0.4,0.4h-5.4c-0.2,0-0.4-0.2-0.4-0.4
					S12.1,3.6,12.3,3.6z M15,59.8c-1.6,0-2.8-1.3-2.8-2.8s1.3-2.8,2.8-2.8s2.8,1.3,2.8,2.8S16.5,59.8,15,59.8z M28.2,52.2
					c0,0.6-0.5,1.1-1.1,1.1H2.9c-0.6,0-1.1-0.5-1.1-1.1V8.4c0-0.6,0.5-1.1,1.1-1.1h24.2c0.6,0,1.1,0.5,1.1,1.1V52.2z"/>
			</g>
		</g>
	</g>
</g>
<g id="Layer_2">
	<g id="iPhone_6_1_">
		<g id="GROUP_1_" class="st0">
			<g class="st1">
				<path d="M23.9,129.9H6.1c-3.2,0-5.9-2.6-5.9-5.9V74.9c0-3.3,2.6-5.9,5.9-5.9H24c3.2,0,5.9,2.6,5.9,5.9v49.2
					C29.8,127.3,27,129.9,23.9,129.9z"/>
			</g>
			<g class="st1">
				<path d="M27,122.3H2.9c-0.6,0-1.1-0.5-1.1-1.1V77.4c0-0.6,0.5-1.1,1.1-1.1h24.2c0.6,0,1.1,0.5,1.1,1.1v43.8
					C28.2,121.8,27.7,122.3,27,122.3z"/>
			</g>
			<circle class="st5" cx="15" cy="125.9" r="2.4"/>
			<line class="st4" x1="12.3" y1="73" x2="17.7" y2="73"/>
		</g>
		<g>
			<g>
				<circle cx="15" cy="125.9" r="2"/>
			</g>
			<g>
				<path d="M23.9,69H6.1c-3.3,0-5.9,2.6-5.9,5.9v49.2c0,3.2,2.6,5.9,5.9,5.9H24c3.2,0,5.9-2.6,5.9-5.9V74.9
					C29.8,71.6,27,69,23.9,69z M12.3,72.6h5.4c0.2,0,0.4,0.2,0.4,0.4c0,0.2-0.2,0.4-0.4,0.4h-5.4c-0.2,0-0.4-0.2-0.4-0.4
					C11.9,72.8,12.1,72.6,12.3,72.6z M15,128.8c-1.6,0-2.8-1.3-2.8-2.8s1.3-2.8,2.8-2.8s2.8,1.3,2.8,2.8S16.5,128.8,15,128.8z
					 M28.2,121.2c0,0.6-0.5,1.1-1.1,1.1H2.9c-0.6,0-1.1-0.5-1.1-1.1V77.4c0-0.6,0.5-1.1,1.1-1.1h24.2c0.6,0,1.1,0.5,1.1,1.1V121.2z"
					/>
			</g>
		</g>
	</g>
</g>
</svg>
