<svg width="100%" id="Layer_2" data-name="Layer 2" xmlns="http://www.w3.org/2000/svg" viewBox="0 0 64.57 8.26"><defs><style>.cls-1{fill:#010101;}.cls-1,.cls-2{fill-rule:evenodd;}.cls-2{fill:#3cbcbe;}</style></defs><title>logo</title><polygon class="cls-1" points="28.53 5.01 28.53 6.53 28.53 7.08 29.02 7.08 29.12 7.08 29.13 7.08 29.13 5.88 29.13 5.07 28.53 4.21 28.53 5.01"/><polygon class="cls-1" points="33.41 1.18 32.82 1.18 32.82 3.19 33.41 4.04 33.41 1.18"/><polygon class="cls-2" points="34.25 8.26 28.47 0 27.74 0 33.51 8.26 34.25 8.26"/><path class="cls-1" d="M4,1.83a2,2,0,0,0-.77-0.57A2.55,2.55,0,0,0,2.28,1.1a2.55,2.55,0,0,0-.71.1,1.88,1.88,0,0,0-.62.31A1.57,1.57,0,0,0,.51,2a1.62,1.62,0,0,0-.17.75,1.6,1.6,0,0,0,.13.69,1.35,1.35,0,0,0,.35.46,2,2,0,0,0,.49.3C1.5,4.33,1.68,4.4,1.88,4.46L2.45,4.65a2.18,2.18,0,0,1,.49.23,1.14,1.14,0,0,1,.35.35,1,1,0,0,1,.13.52,0.91,0.91,0,0,1-.12.47,1.17,1.17,0,0,1-.3.34,1.31,1.31,0,0,1-.41.21,1.52,1.52,0,0,1-.46.07,1.62,1.62,0,0,1-.82-0.2A1.46,1.46,0,0,1,.76,6.11l-0.55.4a2,2,0,0,0,.84.68,2.68,2.68,0,0,0,1,.21,2.2,2.2,0,0,0,.71-0.12,2.15,2.15,0,0,0,.64-0.34A1.7,1.7,0,0,0,3.91,6.4a1.54,1.54,0,0,0,.17-0.73,1.43,1.43,0,0,0-.23-0.86,1.78,1.78,0,0,0-.57-0.5A3.44,3.44,0,0,0,2.54,4,6.49,6.49,0,0,1,1.8,3.74a1.83,1.83,0,0,1-.57-0.37A0.85,0.85,0,0,1,1,2.74a1,1,0,0,1,.11-0.49A1,1,0,0,1,1.4,1.91a1.27,1.27,0,0,1,.41-0.19,1.73,1.73,0,0,1,.47-0.06,1.32,1.32,0,0,1,1.16.59Z" transform="translate(-0.21 -0.12)"/><polygon class="cls-1" points="10.43 1.13 9.82 1.13 9.82 7.13 13.22 7.13 13.22 6.57 10.43 6.57 10.43 1.13"/><path class="cls-1" d="M19.59,4.41h2.27V3.85H19v3.4h3.82V6.69H19.59V4.41h0Zm3.21-2.6V1.25H19V1.81h3.82Z" transform="translate(-0.21 -0.12)"/><path class="cls-1" d="M39.95,7.25h2a3.57,3.57,0,0,0,1.12-.19,3.1,3.1,0,0,0,1-.56,2.87,2.87,0,0,0,.73-0.94,2.9,2.9,0,0,0,.28-1.31,2.91,2.91,0,0,0-.28-1.31A2.87,2.87,0,0,0,44.08,2a3.12,3.12,0,0,0-1-.56,3.57,3.57,0,0,0-1.12-.19h-2V1.81h1.8A3.11,3.11,0,0,1,42.94,2a2.46,2.46,0,0,1,.84.55,2.21,2.21,0,0,1,.5.78,2.61,2.61,0,0,1,0,1.81,2.2,2.2,0,0,1-.5.78,2.45,2.45,0,0,1-.84.55,3.11,3.11,0,0,1-1.19.21h-1.8V7.25Z" transform="translate(-0.21 -0.12)"/><path class="cls-1" d="M62.4,4.46h0l1,1.65L64,7.25h0.75L63.06,4.4a1.69,1.69,0,0,0,1.14-.5,1.5,1.5,0,0,0,.39-1.06,1.41,1.41,0,0,0-.53-1.2,2.36,2.36,0,0,0-1.45-.4H60.77V1.81h1.7a2.56,2.56,0,0,1,.69.08,1.19,1.19,0,0,1,.45.22,0.85,0.85,0,0,1,.25.33,1.07,1.07,0,0,1,.08.4,1.09,1.09,0,0,1-.08.41,0.82,0.82,0,0,1-.25.33,1.27,1.27,0,0,1-.45.22,2.42,2.42,0,0,1-.69.08h-0.4Z" transform="translate(-0.21 -0.12)"/><path class="cls-1" d="M51.64,4.41h2.27V3.85H51v3.4h3.82V6.69H51.64V4.41h0Zm3.21-2.6V1.25H51V1.81h3.82Z" transform="translate(-0.21 -0.12)"/></svg>
