<svg id="Social_Icons" data-name="Social Icons" xmlns="http://www.w3.org/2000/svg" viewBox="0 0 52.03 46.25"><defs><style>.cls-1{fill:#999;fill-rule:evenodd;}</style></defs><title>twitter</title><path class="cls-1" d="M99.07,52.74a20.17,20.17,0,0,1-6.79,2.83,10.18,10.18,0,0,0-7.78-3.7c-5.9,0-10.67,5.23-10.67,11.68a13.17,13.17,0,0,0,.26,2.66A29.56,29.56,0,0,1,52.1,54a12.42,12.42,0,0,0-1.45,5.87,12,12,0,0,0,4.74,9.71,10,10,0,0,1-4.83-1.45v0.14c0,5.67,3.67,10.38,8.56,11.45a10.12,10.12,0,0,1-2.8.4,9.42,9.42,0,0,1-2-.2,10.86,10.86,0,0,0,10,8.09A20.12,20.12,0,0,1,51,93a24.07,24.07,0,0,1-2.54-.14,28.41,28.41,0,0,0,16.36,5.23c19.63,0,30.35-17.78,30.35-33.21l0-1.5a22.52,22.52,0,0,0,5.35-6.07,19.78,19.78,0,0,1-6.13,1.85A11.66,11.66,0,0,0,99.07,52.74Z" transform="translate(-48.49 -51.88)"/></svg>