<svg width="9" height="13" viewBox="0 0 9 13" fill="none" xmlns="http://www.w3.org/2000/svg">
  <path fill="#ffffff" fill-rule="evenodd" clip-rule="evenodd" d="M4.50001 5.81953C3.71731 5.81953 3.08281 5.18809 3.08281 4.40946C3.08281 3.63058 3.71731 2.99938 4.50001 2.99938C5.28271 2.99938 5.91721 3.63058 5.91721 4.40946C5.91721 5.18809 5.28271 5.81953 4.50001 5.81953M4.5512 0.000274251C2.14946 -0.0263996 0.106781 1.89605 0.00415929 4.28312C-0.0309417 5.10031 0.157726 5.86973 0.509467 6.54094L4.10561 12.7727C4.28038 13.0758 4.71963 13.0758 4.89441 12.7727L8.49055 6.54094C8.81426 5.92283 9 5.22179 9 4.47663C9 2.02118 7.0129 0.0276755 4.5512 0.000274251" />
</svg>