<?xml version="1.0" encoding="utf-8"?>
<!-- Generator: Adobe Illustrator 18.1.0, SVG Export Plug-In . SVG Version: 6.00 Build 0)  -->
<svg version="1.1" id="_x3C_Layer_x3E_" xmlns="http://www.w3.org/2000/svg" xmlns:xlink="http://www.w3.org/1999/xlink" x="0px"
	 y="0px" viewBox="0 0 595.3 841.9" enable-background="new 0 0 595.3 841.9" xml:space="preserve">
<g>
	<path fill="none" stroke="#FFFFFF" stroke-width="5" stroke-miterlimit="10" d="M60.4,160.4h211.4v147.5l253.5,186.8
		c0,0,2.7,6,4,10c1.3,4,0,6.7,4.7,10s4,5.3,6,9.3s16,8,12.7,12.7c-3.3,4.7-13.3,7.3-16.7,10.6c-3.3,3.3-4.7,4.7-4.7,9.3
		c0,4.7,4,8,0,14s-6,5.3-6.7,14.8c-0.7,9.3,0.7,6.7,4,9.3s6,0,8,2.7c2.1,2.7,0,8-2.1,10.6s-122.7,13.6-122.7,13.6s-2.1-4.2-7.3-7.5
		c-5.3-3.3,0-10-4-14.8s-2.7-9.3-8.7-14.8c-6-5.3-16.7-10.6-24-16s-9.3-8.7-12.7-8.7c-3.3,0-6.7,3.3-8,0s6-11.3-4-11.3
		c-10,0-13.3,3.5-19.4,3.8c-6,0.2-13.3-4.4-21.3-9.8c-8-5.3-3.3-11.3-10.6-12c-7.3-0.7-12.2,5-17.2,2.7c-5-2.4-8.8-4-13.6-6
		c-4.7-2.1-10.6,0.7-14.3,0c-3.8-0.7-10.3-2.1-11.7-14c-1.3-12,1.3-15.2-0.7-18c-2.1-2.8-8-2.1-9.3-7.3c-1.3-5.3-4.7-11.3-10-15.2
		c-5.3-4-8-2.4-13.3-9.2c-5.3-6.8-16-15.5-19.4-20.2c-3.3-4.7-5.3-8.7-8-14c-2.7-5.3-5.3-12-0.7-11.3c4.7,0.7,6,0.7,6-5.3
		c0-6-8-7.3-13.3-8c-5.3-0.7-2.1,2.7-8-4c-6-6.7-6.7-12-10-18c-3.4-6-1.3-10,0-12.7s3.1,1.3,8.5,6c5.4,4.7,11.5,2.4,8.1-1.5
		c-3.3-3.9-9.3-8.5-11.3-13.2c-2.1-4.7-5.3-4.7-7.3-0.7c-2.1,4-4.4,4.7-7.5,3.3c-3.1-1.5-4.5-9.3-7.7-8.7c-3.3,0.7-4,6.7-6.7,4
		c-2.7-2.7-4-8.7-5.3-14.8c-1.3-6,4-8.7-7.3-14c-11.3-5.3-21.3-9.3-24.7-17.3c-3.4-8-2.7-10-4.7-19.4c-2.1-9.3,2.7-16.7-4.7-27.3
		c-7.3-10.6-4-10.6-11.3-18c-7.3-7.3-9.3-5.3-10-14.8c-0.7-9.3,3.3-8.7,7.3-19.4s1.3-7.3,4.7-20c3.3-12.7,6-10,2.7-18.8
		C67.8,167.2,57.8,168.9,60.4,160.4z"/>
	<circle opacity="0.1" fill="#149896" enable-background="new    " cx="163.9" cy="380" r="51.8"/>
	<circle opacity="0.5" fill="#149896" enable-background="new    " cx="163.9" cy="380" r="22.1"/>
	<circle fill="#149896" cx="163.9" cy="380" r="4.1"/>
</g>
</svg>
