<?xml version="1.0" encoding="utf-8"?>
<!-- Generator: Adobe Illustrator 18.1.1, SVG Export Plug-In . SVG Version: 6.00 Build 0)  -->
<svg version="1.1" id="Layer_1" xmlns="http://www.w3.org/2000/svg" xmlns:xlink="http://www.w3.org/1999/xlink" x="0px" y="0px"
	 viewBox="-35 -94.6 228.3 489.6" enable-background="new -35 -94.6 228.3 489.6" xml:space="preserve">
<g id="Layer_3">
	<g id="_x23_020201ff">
		<path fill="#FFFFFF" d="M40.3-69.5c19-18.4,46.5-24.5,71.6-25.1c26.9,0,54.5,0,81.4,0c0,28.8,0,56.9,0,85.7c-17.7,0-34.9,0-52.6,0
			c-11-0.6-22.6,8-24.5,19c0,19,0,38.6,0,57.5c25.7,0,51.4,0,77.1,0c-1.8,27.5-5.5,55.1-9.2,82.6c-22.6,0-45.3,0-67.9,0
			c0,81.4,0,163.4,0,244.8c-33.7,0-67.3,0-101,0c-0.6-81.4,0-163.4-0.6-244.8c-16.5,0-33,0-49.6,0c0-27.5,0-55.1,0-82
			c16.5,0,33,0,49.6,0C15.2,41.3,14,15,15.2-12C16.5-33.4,25-54.8,40.3-69.5z"/>
	</g>
</g>
</svg>
