<?xml version="1.0" encoding="utf-8"?>
<!-- Generator: Adobe Illustrator 18.1.1, SVG Export Plug-In . SVG Version: 6.00 Build 0)  -->
<svg version="1.1" id="Layer_1" xmlns="http://www.w3.org/2000/svg" xmlns:xlink="http://www.w3.org/1999/xlink" x="0px" y="0px"
	 width="408.2px" height="407.6px" viewBox="-144.9 563.1 408.2 407.6" enable-background="new -144.9 563.1 408.2 407.6"
	 xml:space="preserve">

	<g id="Layer_1_1_">
		<path fill="#ababab" d="M258.5,905.8c-23.3,55.7-77.1,64.9-94.9,64.9c-4.9,0-86.3,4.3-202.6-105.9c-93.6-88.7-105.3-184.2-105.9-202.6
			c-1.2-17.7,4.3-61.8,64.9-94.9c7.3-4.3,22.6-6.1,26.3-1.8c1.8,1.8,53.2,86.3,54.5,88.7c1.2,3.1,1.8,5.5,1.8,8c0,3.7-2.4,8.6-8,14.7
			c-5.5,5.5-11.6,11-17.7,15.9c-6.7,4.9-12.2,9.8-17.7,15.3c-5.5,5.5-8,9.8-8,13.5c0.6,9.2,8,41,63.6,90.6
			c56.3,49.6,83.2,63,85.7,64.3s4.9,1.2,6.7,1.2c3.7,0,8-2.4,13.5-8c5.5-5.5,23.3-30.6,29.4-36.1c5.5-5.5,10.4-8,14.7-8
			c2.4,0,5.5,0.6,8,1.8c3.1,1.2,86.9,50.8,88.7,52.6C265.2,883.8,262.2,897.9,258.5,905.8"/>
	</g>
</svg>
