<?xml version="1.0" encoding="utf-8"?>
<!-- Generator: Adobe Illustrator 18.1.1, SVG Export Plug-In . SVG Version: 6.00 Build 0)  -->
<svg version="1.1" id="Layer_1" xmlns="http://www.w3.org/2000/svg" xmlns:xlink="http://www.w3.org/1999/xlink" x="0px" y="0px"
	 viewBox="0 0 324.2 22.2" enable-background="new 0 0 324.2 22.2" xml:space="preserve">
<polyline fill="none" stroke="#000" stroke-width="3" stroke-linecap="round" stroke-linejoin="round" stroke-miterlimit="10" points="
	322.6,20.6 308,11.5 293.3,20.6 278.7,11.5 279,11.5 264.4,20.7 249.8,11.5 249.8,11.5 235.1,20.7 220.5,11.5 220.5,11.5 
	205.9,20.6 191.3,11.5 176.6,20.6 162,11.5 162.3,11.5 147.7,20.7 133.1,11.5 133.1,11.5 118.4,20.7 103.8,11.5 103.8,11.5 
	89.2,20.6 74.6,11.5 59.9,20.6 45.3,11.5 45.6,11.5 31,20.7 16.4,11.5 16.4,11.5 1.7,20.7 "/>
<polyline fill="none" stroke="#000" stroke-width="3" stroke-linecap="round" stroke-linejoin="round" stroke-miterlimit="10" points="
	1.7,1.8 1.7,1.8 16.3,10.9 30.9,1.8 30.6,1.8 45.3,10.9 59.9,1.8 74.5,10.9 89.1,1.8 89.1,1.8 103.8,10.9 118.4,1.8 118.4,1.8 
	133,10.9 147.6,1.8 147.3,1.8 162,10.9 176.6,1.8 191.2,10.9 205.8,1.8 205.8,1.8 220.5,10.9 235.1,1.8 235.1,1.8 249.7,10.9 
	264.3,1.8 264,1.8 278.7,10.9 293.3,1.8 307.9,10.9 322.5,1.8 "/>
</svg>
