<?xml version="1.0" encoding="utf-8"?>
<!-- Generator: Adobe Illustrator 18.1.0, SVG Export Plug-In . SVG Version: 6.00 Build 0)  -->
<svg version="1.1" xmlns="http://www.w3.org/2000/svg" xmlns:xlink="http://www.w3.org/1999/xlink" x="0px" y="0px"
	 viewBox="-247 370.9 100 100" enable-background="new -247 370.9 100 100" xml:space="preserve">
<g id="Layer_1" display="none">
	<path display="inline" d="M-164.4,443.6c-3.8,9.1-12.6,10.6-15.5,10.6c-0.8,0-14.1,0.7-33.1-17.3c-15.3-14.5-17.2-30.1-17.3-33.1
		c-0.2-2.9,0.7-10.1,10.6-15.5c1.2-0.7,3.7-1,4.3-0.3c0.3,0.3,8.7,14.1,8.9,14.5c0.2,0.5,0.3,0.9,0.3,1.3c0,0.6-0.4,1.4-1.3,2.4
		c-0.9,0.9-1.9,1.8-2.9,2.6c-1.1,0.8-2,1.6-2.9,2.5c-0.9,0.9-1.3,1.6-1.3,2.2c0.1,1.5,1.3,6.7,10.4,14.8c9.2,8.1,13.6,10.3,14,10.5
		c0.4,0.2,0.8,0.2,1.1,0.2c0.6,0,1.3-0.4,2.2-1.3c0.9-0.9,3.8-5,4.8-5.9c0.9-0.9,1.7-1.3,2.4-1.3c0.4,0,0.9,0.1,1.3,0.3
		c0.5,0.2,14.2,8.3,14.5,8.6C-163.3,440-163.8,442.3-164.4,443.6"/>
</g>
<g id="Layer_2">
	<g>
		<polygon fill="#010101" points="-196.8,419.1 -160,401.7 -160,393.6 -234,393.6 -234,401.7 		"/>
		<polygon fill="#010101" points="-196.8,426.4 -234,408.9 -234,448.2 -160,448.2 -160,408.9 		"/>
	</g>
</g>
<g id="Layer_3" display="none">
	<g id="_x23_020201ff" display="inline">
		<path fill="#020201" d="M-203.4,385c3.1-3,7.6-4,11.7-4.1c4.4,0,8.9,0,13.3,0c0,4.7,0,9.3,0,14c-2.9,0-5.7,0-8.6,0
			c-1.8-0.1-3.7,1.3-4,3.1c0,3.1,0,6.3,0,9.4c4.2,0,8.4,0,12.6,0c-0.3,4.5-0.9,9-1.5,13.5c-3.7,0-7.4,0-11.1,0c0,13.3,0,26.7,0,40
			c-5.5,0-11,0-16.5,0c-0.1-13.3,0-26.7-0.1-40c-2.7,0-5.4,0-8.1,0c0-4.5,0-9,0-13.4c2.7,0,5.4,0,8.1,0c0.1-4.4-0.1-8.7,0.1-13.1
			C-207.3,390.9-205.9,387.4-203.4,385z"/>
	</g>
</g>
<g id="Layer_4" display="none">
	<g display="inline">
		<path d="M-180.8,423c0,8.9-7.2,16.2-16.2,16.2s-16.2-7.2-16.2-16.2c0-2.8,0.7-5.4,1.9-7.7h-16.7V440c0,6.6,5.4,11.9,11.9,11.9
			h37.9c6.6,0,11.9-5.4,11.9-11.9v-24.7h-16.7C-181.5,417.6-180.8,420.2-180.8,423z"/>
		<path d="M-187.7,423c0-5.1-4.2-9.3-9.3-9.3c-5.1,0-9.3,4.2-9.3,9.3c0,5.1,4.2,9.3,9.3,9.3C-191.9,432.3-187.7,428.1-187.7,423z"/>
		<path d="M-178,389.8H-216c-6.6,0-11.9,5.4-11.9,11.9v7.7h22.1c2.5-1.7,5.6-2.6,8.9-2.6s6.3,1,8.9,2.6h22.1v-7.7
			C-166.1,395.2-171.4,389.8-178,389.8z M-173.5,403.1c0,1-0.8,1.7-1.7,1.7h-5.3c-1,0-1.7-0.8-1.7-1.7v-5.3c0-1,0.8-1.7,1.7-1.7h5.3
			c1,0,1.7,0.8,1.7,1.7V403.1z"/>
	</g>
</g>
<g id="Layer_5" display="none">
	<path display="inline" d="M-166.5,408c-1.7-4-4.1-7.5-7.1-10.5c-3.1-3.1-6.6-5.4-10.5-7.1c-4.1-1.7-8.4-2.6-12.9-2.6
		c-4.5,0-8.8,0.9-12.9,2.6c-4,1.7-7.5,4.1-10.5,7.1c-3.1,3.1-5.4,6.6-7.1,10.5c-1.7,4.1-2.6,8.4-2.6,12.9c0,4.5,0.9,8.8,2.6,12.9
		c1.7,4,4.1,7.5,7.1,10.5c3.1,3.1,6.6,5.4,10.5,7.1c4.1,1.7,8.4,2.6,12.9,2.6c4.5,0,8.8-0.9,12.9-2.6c4-1.7,7.5-4.1,10.5-7.1
		c3.1-3.1,5.4-6.6,7.1-10.5c1.7-4.1,2.6-8.4,2.6-12.9C-163.9,416.4-164.8,412.1-166.5,408z M-197,393.1c6.6,0,13.1,2.4,18.1,6.7
		c-2.8,4-7.6,7.2-14.2,9.7c-2.9-5.2-6.3-10.5-10.1-15.7C-201.2,393.4-199.1,393.1-197,393.1z M-209,395.9c1.7,2.2,5.7,7.6,10,15.6
		c-10.9,2.9-22.1,3.3-25.1,3.3C-222.2,406.6-216.6,399.5-209,395.9z M-224.7,420.9c0-0.2,0-0.5,0-0.7c0.5,0,1,0,1.5,0
		c10.1,0,19.2-1.2,26.9-3.6c0.6,1.3,1.3,2.7,1.9,4.1c-14.8,4.3-21.8,15.3-23.5,18.4C-222.3,434-224.7,427.6-224.7,420.9z
		 M-197,448.6c-6.1,0-11.8-1.9-16.7-5.6c5.6-8.7,12.8-14.5,21.4-17.2c2.6,6.8,4.6,13.8,5.9,20.7C-189.7,447.9-193.3,448.6-197,448.6
		z M-181.1,443.6c-0.2-2.6-1.1-9.4-4.9-19.2c1.7-0.2,3.4-0.3,5.2-0.3c5,0,9,0.9,11.2,1.5C-170.9,432.9-175.1,439.4-181.1,443.6z
		 M-181.3,418.9c-2.3,0-4.6,0.2-6.8,0.5c-0.8-1.8-1.6-3.4-2.4-5c9-3.9,13.4-8.7,15.1-11c3.8,4.7,6,10.6,6.2,16.7
		C-173.4,419.3-177.5,418.9-181.3,418.9z"/>
</g>
<g id="Layer_6" display="none">
	<circle display="inline" cx="-197" cy="420.9" r="37.3"/>
	<g display="inline">
		<line fill="none" stroke="#FFFFFF" stroke-width="2" stroke-miterlimit="10" x1="-209.4" y1="408.4" x2="-184.6" y2="433.3"/>
		<line fill="none" stroke="#FFFFFF" stroke-width="2" stroke-miterlimit="10" x1="-209.4" y1="433.3" x2="-184.6" y2="408.4"/>
	</g>
</g>
<g id="Layer_7" display="none">
	<g display="inline">
		<line fill="none" stroke="#000000" stroke-width="2" stroke-miterlimit="10" x1="-223.1" y1="394.8" x2="-170.9" y2="447"/>
		<line fill="none" stroke="#000000" stroke-width="2" stroke-miterlimit="10" x1="-223.1" y1="447" x2="-170.9" y2="394.8"/>
	</g>
</g>
</svg>
